<?xml version="1.0" encoding="utf-8"?>
<!-- Generator: Adobe Illustrator 23.0.2, SVG Export Plug-In . SVG Version: 6.00 Build 0)  -->
<svg version="1.1" id="Ebene_1" xmlns="http://www.w3.org/2000/svg" xmlns:xlink="http://www.w3.org/1999/xlink" x="0px" y="0px"
	 viewBox="0 0 239.7 31.5" style="enable-background:new 0 0 239.7 31.5;" xml:space="preserve">
<g>
	<path d="M12.3,6l6.8,17.4l-3,8.2h-0.8L4.1,4.4C2.7,0.8,1.2,0.8,0,0.8V0h14.3v0.8C10.3,0.8,12.3,6,12.3,6z M28.5,6l6.7,17.5
		l-3.1,8.1h-0.8l-11-27.1c-1.4-3.6-3-3.6-4.1-3.6V0h14.3v0.8C26.5,0.8,28.5,6,28.5,6z"/>
	<path d="M38.7,0.8V0c4.1,0.1,7.6,0.7,10.1,2.4L48.5,10h-1.5C45.7,3.6,43.2,1.2,38.7,0.8z M52.1,18.6v0.8c-2.5,0-3.1,0.9-3.1,10.3
		c-2.5,0.9-6.1,1.7-10.3,1.8v-0.8c3.9-0.2,4.5-1.2,4.5-5.1c0-6.1-1.2-6.3-3.8-6.3v-0.8C39.5,18.6,52.1,18.6,52.1,18.6z"/>
</g>
<g>
	<path d="M80.1,12.4l-3.7,11.3h-1.9L69.1,7.9h2.7l3.6,11.3l3.7-11.3h1.9l3.7,11.3l3.6-11.3h2.7l-5.5,15.8h-1.9L80.1,12.4z"/>
	<path d="M93.4,19.1c0.1,1.5,0.8,2.7,2.8,2.7c1.4,0,1.9-0.6,2.2-1.4h2.5c-0.3,1.8-2,3.4-4.7,3.4c-3.5,0-5.3-2.4-5.3-5.5
		c0-3.2,1.9-5.5,5.2-5.5c2.7,0,4.9,2.1,4.9,4.7c0,0.4,0,0.9-0.1,1.5H93.4z M93.4,17.3h5.2c0-1.6-1.1-2.6-2.5-2.6
		C94.6,14.7,93.4,15.6,93.4,17.3z"/>
	<path d="M104.9,7.5c1,0,1.8,0.8,1.8,1.8c0,1-0.8,1.8-1.8,1.8c-1,0-1.8-0.8-1.8-1.8C103.1,8.3,103.9,7.5,104.9,7.5z M103.7,13.1h2.5
		v10.5h-2.5V13.1z"/>
	<path d="M109.4,13.1h2.5v1.5c0.7-1.1,1.9-1.7,3.4-1.7c1.5,0,2.6,0.5,3.2,1.4c0.5,0.8,0.7,1.7,0.7,3.1v6.2h-2.5v-5.4
		c0-1.8-0.5-3.2-2.3-3.2c-1.7,0-2.5,1.4-2.5,3.2v5.4h-2.5V13.1z"/>
	<path d="M132.6,24.2c0,1.8-0.5,3-1.5,3.8c-1,0.8-2.4,1.2-4.1,1.2c-1.8,0-3-0.5-3.9-1.4c-0.9-0.8-1.3-1.9-1.4-3h2.5
		c0.1,1.1,1,2.1,2.8,2.1c2,0,3.2-0.8,3.2-2.8v-1.9c-0.7,1.1-2,1.7-3.2,1.7c-3.2,0-5.4-2.5-5.4-5.5c0-3,2.2-5.5,5.4-5.5
		c1.2,0,2.6,0.6,3.2,1.7v-1.4h2.5L132.6,24.2z M123.9,18.4c0,1.8,1.2,3.3,3.1,3.3c1.9,0,3.1-1.5,3.1-3.3c0-1.8-1.2-3.3-3.1-3.3
		C125.1,15,123.9,16.6,123.9,18.4z"/>
	<path d="M146.1,13.1v10.5h-2.5v-1.4c-0.7,1.1-2,1.7-3.2,1.7c-3.2,0-5.4-2.5-5.4-5.5c0-3,2.2-5.5,5.4-5.5c1.2,0,2.6,0.6,3.2,1.7
		v-1.4H146.1z M143.6,18.4c0-1.8-1.2-3.3-3.1-3.3c-1.8,0-3.1,1.5-3.1,3.3c0,1.8,1.2,3.3,3.1,3.3C142.4,21.7,143.6,20.2,143.6,18.4z"
		/>
	<path d="M156.1,15.4c-0.4-0.1-0.6-0.1-1-0.1c-2.1,0-3.2,1.2-3.2,3.8v4.5h-2.5V13.1h2.5v1.7c0.5-1,1.8-1.8,3.2-1.8
		c0.4,0,0.7,0,1,0.2V15.4z"/>
	<path d="M163.7,23.6c-0.4,0.1-1.1,0.1-1.8,0.1c-1.2,0-3.4-0.2-3.4-3.7v-4.9h-1.8v-2.1h1.8V9.9h2.5v3.2h2.4v2.1h-2.4v4.3
		c0,1.8,0.6,2.1,1.5,2.1c0.4,0,1,0,1.2-0.1V23.6z"/>
	<path d="M167.3,19.1c0.1,1.5,0.8,2.7,2.8,2.7c1.4,0,1.9-0.6,2.2-1.4h2.5c-0.3,1.8-2,3.4-4.7,3.4c-3.5,0-5.3-2.4-5.3-5.5
		c0-3.2,1.9-5.5,5.2-5.5c2.7,0,4.9,2.1,4.9,4.7c0,0.4,0,0.9-0.1,1.5H167.3z M167.3,17.3h5.2c0-1.6-1.1-2.6-2.5-2.6
		C168.5,14.7,167.3,15.6,167.3,17.3z"/>
	<path d="M177.6,13.1h2.5v1.5c0.7-1.1,1.9-1.7,3.4-1.7c1.5,0,2.6,0.5,3.2,1.4c0.5,0.8,0.7,1.7,0.7,3.1v6.2h-2.5v-5.4
		c0-1.8-0.5-3.2-2.3-3.2c-1.7,0-2.5,1.4-2.5,3.2v5.4h-2.5V13.1z"/>
	<path d="M195.1,10.5c2.9,0,3.5-0.7,3.5-2.6h2.5v15.8h-2.7V12.5h-3.2V10.5z"/>
	<path d="M203.9,19.1c0-1.5,0.7-3.2,2.3-3.7c-1.4-0.6-1.9-2-1.9-3.3c0-2.4,1.9-4.5,5-4.5c3.1,0,5,2.1,5,4.5c0,1.3-0.5,2.6-1.9,3.3
		c1.6,0.6,2.3,2.3,2.3,3.7c0,2.5-2,4.8-5.4,4.8C205.9,23.9,203.9,21.7,203.9,19.1z M212.1,19.1c0-1.3-1-2.5-2.8-2.5
		c-1.8,0-2.8,1.2-2.8,2.5c0,1.4,1.1,2.5,2.8,2.5C211,21.6,212.1,20.4,212.1,19.1z M211.7,12.2c0-1.2-0.9-2.3-2.4-2.3
		c-1.5,0-2.4,1.1-2.4,2.3c0,1.2,0.9,2.3,2.4,2.3C210.8,14.5,211.7,13.4,211.7,12.2z"/>
	<path d="M227.9,13.1c0,1.2-0.4,2.3-1,3.3l-4.5,7.3h-3l3.3-5c-3.6,0-5.9-2.3-5.9-5.5c0-3,2.2-5.5,5.6-5.5
		C225.7,7.6,227.9,10.1,227.9,13.1z M219.4,13.1c0,1.7,1.2,3.2,3,3.2c1.8,0,2.9-1.5,2.9-3.2s-1.1-3.2-2.9-3.2
		C220.6,9.9,219.4,11.4,219.4,13.1z"/>
	<path d="M239.7,7.9l-6.7,15.8h-2.8l5.8-13.5h-6.4V7.9H239.7z"/>
</g>
</svg>
