<?xml version="1.0" encoding="utf-8"?>
<!-- Generator: Adobe Illustrator 26.3.1, SVG Export Plug-In . SVG Version: 6.00 Build 0)  -->
<svg version="1.1" id="Ebene_1" xmlns="http://www.w3.org/2000/svg" xmlns:xlink="http://www.w3.org/1999/xlink" x="0px" y="0px"
	 viewBox="0 0 224.3 184.5" style="enable-background:new 0 0 224.3 184.5;" xml:space="preserve">
<style type="text/css">
	.st0{fill:#FFFFFF;}
</style>
<g>
	<g>
		<path class="st0" d="M18.7,158.6l-4.6,14.2h-2.4l-6.9-19.9h3.4l4.6,14.2l4.6-14.2h2.4l4.6,14.2l4.6-14.2h3.4l-6.9,19.9h-2.4
			L18.7,158.6z"/>
		<path class="st0" d="M35.5,167.1c0.1,1.9,1,3.4,3.6,3.4c1.8,0,2.4-0.8,2.8-1.7H45c-0.4,2.3-2.6,4.3-5.9,4.3c-4.5,0-6.6-3.1-6.6-7
			c0-4,2.4-7,6.5-7c3.4,0,6.1,2.6,6.1,6c0,0.5,0,1.1-0.1,1.9H35.5z M35.5,164.8h6.6c0-2-1.3-3.3-3.2-3.3
			C37,161.5,35.5,162.6,35.5,164.8z"/>
		<path class="st0" d="M50,152.4c1.3,0,2.3,1,2.3,2.3c0,1.2-1,2.3-2.3,2.3c-1.2,0-2.3-1-2.3-2.3C47.7,153.4,48.7,152.4,50,152.4z
			 M48.4,159.6h3.1v13.2h-3.1V159.6z"/>
		<path class="st0" d="M55.7,159.6h3.1v1.8c0.8-1.4,2.4-2.2,4.3-2.2c1.9,0,3.2,0.7,4,1.8c0.7,1,0.9,2.1,0.9,3.9v7.9h-3.1v-6.8
			c0-2.3-0.7-4-2.9-4c-2.2,0-3.2,1.7-3.2,4v6.8h-3.1V159.6z"/>
		<path class="st0" d="M84.9,173.4c0,2.2-0.7,3.8-1.9,4.8s-3,1.5-5.2,1.5c-2.2,0-3.8-0.7-4.9-1.7c-1.1-1-1.7-2.4-1.8-3.8h3.1
			c0.2,1.4,1.3,2.7,3.6,2.7c2.5,0,4-1.1,4-3.6V171c-0.8,1.3-2.6,2.1-4.1,2.1c-4,0-6.8-3.2-6.8-7c0-3.8,2.8-7,6.8-7
			c1.5,0,3.3,0.8,4.1,2.1v-1.8h3.1L84.9,173.4z M73.9,166.2c0,2.3,1.5,4.2,3.9,4.2c2.4,0,3.9-1.9,3.9-4.2c0-2.3-1.5-4.2-3.9-4.2
			C75.5,162,73.9,163.9,73.9,166.2z"/>
		<path class="st0" d="M101.9,159.6v13.2h-3.1V171c-0.8,1.3-2.6,2.1-4.1,2.1c-4,0-6.8-3.2-6.8-7c0-3.8,2.8-7,6.8-7
			c1.5,0,3.3,0.8,4.1,2.1v-1.8H101.9z M98.8,166.2c0-2.3-1.5-4.2-3.9-4.2c-2.3,0-3.9,1.9-3.9,4.2c0,2.3,1.5,4.2,3.9,4.2
			C97.2,170.4,98.8,168.4,98.8,166.2z"/>
		<path class="st0" d="M114.4,162.4c-0.5-0.1-0.7-0.1-1.2-0.1c-2.6,0-4.1,1.5-4.1,4.8v5.7H106v-13.2h3.1v2.1
			c0.6-1.2,2.3-2.3,4.1-2.3c0.5,0,0.9,0.1,1.2,0.2V162.4z"/>
		<path class="st0" d="M124.7,172.8c-0.5,0.1-1.4,0.2-2.3,0.2c-1.5,0-4.3-0.2-4.3-4.7v-6.2h-2.2v-2.6h2.2v-4h3.1v4h3v2.6h-3v5.5
			c0,2.3,0.7,2.6,1.9,2.6c0.5,0,1.2-0.1,1.6-0.1V172.8z"/>
		<path class="st0" d="M129.2,167.1c0.1,1.9,1,3.4,3.6,3.4c1.8,0,2.4-0.8,2.8-1.7h3.1c-0.4,2.3-2.6,4.3-5.9,4.3
			c-4.5,0-6.6-3.1-6.6-7c0-4,2.4-7,6.5-7c3.4,0,6.1,2.6,6.1,6c0,0.5,0,1.1-0.1,1.9H129.2z M129.2,164.8h6.6c0-2-1.3-3.3-3.2-3.3
			C130.7,161.5,129.2,162.6,129.2,164.8z"/>
		<path class="st0" d="M141.6,159.6h3.1v1.8c0.8-1.4,2.4-2.2,4.3-2.2c1.9,0,3.2,0.7,4,1.8c0.7,1,0.9,2.1,0.9,3.9v7.9h-3.1v-6.8
			c0-2.3-0.7-4-2.9-4c-2.2,0-3.2,1.7-3.2,4v6.8h-3.1V159.6z"/>
		<path class="st0" d="M163.6,156.2c3.6,0,4.4-0.9,4.4-3.3h3.1v19.9h-3.4v-14h-4.1V156.2z"/>
		<path class="st0" d="M174.7,167.1c0-1.9,0.9-4,2.9-4.7c-1.8-0.8-2.4-2.5-2.4-4.1c0-3.1,2.4-5.7,6.3-5.7c3.9,0,6.3,2.6,6.3,5.7
			c0,1.6-0.6,3.3-2.4,4.1c2,0.7,2.9,2.9,2.9,4.7c0,3.2-2.5,6.1-6.8,6.1S174.7,170.3,174.7,167.1z M185.1,167.1
			c0-1.6-1.2-3.2-3.5-3.2c-2.3,0-3.6,1.5-3.6,3.2c0,1.7,1.3,3.2,3.6,3.2C183.8,170.2,185.1,168.7,185.1,167.1z M184.6,158.4
			c0-1.5-1.1-2.9-3-2.9c-1.9,0-3.1,1.3-3.1,2.9c0,1.6,1.1,2.9,3.1,2.9C183.4,161.3,184.6,159.9,184.6,158.4z"/>
		<path class="st0" d="M205,159.5c0,1.5-0.5,2.9-1.3,4.1l-5.7,9.1h-3.8l4.2-6.3c-4.5,0-7.4-2.9-7.4-7c0-3.8,2.8-7,7-7
			C202.3,152.6,205,155.8,205,159.5z M194.3,159.5c0,2.2,1.5,4,3.8,4c2.2,0,3.7-1.8,3.7-4s-1.4-4-3.7-4
			C195.8,155.5,194.3,157.3,194.3,159.5z"/>
		<path class="st0" d="M219.8,152.9l-8.5,19.9h-3.5l7.3-17h-8.1v-2.9H219.8z"/>
	</g>
	<g>
		<g>
			<path class="st0" d="M122.5,29.4l28,72.8L137.4,136h-3.2L88.5,22.9C82.7,7.7,76.2,7.7,71.3,7.7V4.6h59.6v3.2
				C114.1,7.7,122.5,29.4,122.5,29.4 M54.9,29.4l28.6,72.5L70.9,136h-3.2L20.9,22.9C14.9,7.7,8.6,7.7,3.7,7.7V4.6h59.6v3.2
				C46.8,7.7,54.9,29.4,54.9,29.4"/>
		</g>
		<g>
			<path class="st0" d="M221.1,82.1v3.2c-10.5,0-12.9,3.5-12.9,43c-10.5,3.9-25.4,7.1-42.8,7.7v-3.2c16.4-0.7,18.9-4.9,18.9-21.1
				c0-25.4-5.2-26.3-15.9-26.3v-3.2H221.1z M164.9,7.9V4.6c17.2,0.4,31.7,3,42.2,9.9l-1.3,31.9h-6.3C194.4,19.7,183.7,9.4,164.9,7.9
				"/>
		</g>
	</g>
</g>
</svg>
