<?xml version="1.0" encoding="utf-8"?>
<!-- Generator: Adobe Illustrator 23.0.2, SVG Export Plug-In . SVG Version: 6.00 Build 0)  -->
<svg version="1.1" id="Ebene_1" xmlns="http://www.w3.org/2000/svg" xmlns:xlink="http://www.w3.org/1999/xlink" x="0px" y="0px"
	 viewBox="0 0 53.5 32.2" style="enable-background:new 0 0 53.5 32.2;" xml:space="preserve">
<g>
	<path d="M13.6,6l6.8,17.4l-3,8.2h-0.8L5.5,4.4C4,0.8,2.5,0.8,1.3,0.8V0h14.3v0.8C11.7,0.8,13.6,6,13.6,6z M29.8,6l6.7,17.5
		l-3.1,8.1h-0.8l-11-27.1c-1.4-3.6-3-3.6-4.1-3.6V0h14.3v0.8C27.8,0.8,29.8,6,29.8,6z"/>
	<path d="M40,0.8V0c4.1,0.1,7.6,0.7,10.1,2.4L49.8,10h-1.5C47.1,3.6,44.5,1.2,40,0.8z M53.5,18.6v0.8c-2.5,0-3.1,0.9-3.1,10.3
		c-2.5,0.9-6.1,1.7-10.3,1.8v-0.8c3.9-0.2,4.5-1.2,4.5-5.1c0-6.1-1.2-6.3-3.8-6.3v-0.8C40.8,18.6,53.5,18.6,53.5,18.6z"/>
</g>
</svg>
