<?xml version="1.0" encoding="utf-8"?>
<!-- Generator: Adobe Illustrator 24.2.0, SVG Export Plug-In . SVG Version: 6.00 Build 0)  -->
<svg version="1.1" id="Ebene_1" xmlns="http://www.w3.org/2000/svg" xmlns:xlink="http://www.w3.org/1999/xlink" x="0px" y="0px"
	 viewBox="0 0 528.4 399.9" style="enable-background:new 0 0 528.4 399.9;" xml:space="preserve">
<style type="text/css">
	.st0{fill:none;stroke:#000000;stroke-width:0.72;stroke-linecap:round;stroke-linejoin:round;stroke-miterlimit:10;}
	.st1{fill:none;stroke:#000000;stroke-width:0.54;stroke-linecap:round;stroke-linejoin:round;stroke-miterlimit:10;}
	.st2{fill:none;stroke:#000000;stroke-width:1.44;stroke-linecap:round;stroke-linejoin:round;stroke-miterlimit:10;}
	
		.st3{clip-path:url(#SVGID_2_);fill:none;stroke:#000000;stroke-width:0.54;stroke-linecap:round;stroke-linejoin:round;stroke-miterlimit:10;}
	.st4{fill:none;stroke:#000000;stroke-width:0.24;stroke-linecap:round;stroke-linejoin:round;stroke-miterlimit:10;}
	
		.st5{clip-path:url(#SVGID_4_);fill:none;stroke:#000000;stroke-width:0.54;stroke-linecap:round;stroke-linejoin:round;stroke-miterlimit:10;}
	
		.st6{clip-path:url(#SVGID_6_);fill:none;stroke:#000000;stroke-width:0.24;stroke-linecap:round;stroke-linejoin:round;stroke-miterlimit:10;}
	
		.st7{clip-path:url(#SVGID_8_);fill:none;stroke:#000000;stroke-width:0.24;stroke-linecap:round;stroke-linejoin:round;stroke-miterlimit:10;}
	
		.st8{clip-path:url(#SVGID_10_);fill:none;stroke:#000000;stroke-width:0.54;stroke-linecap:round;stroke-linejoin:round;stroke-miterlimit:10;}
	
		.st9{clip-path:url(#SVGID_12_);fill:none;stroke:#000000;stroke-width:0.72;stroke-linecap:round;stroke-linejoin:round;stroke-miterlimit:10;}
	
		.st10{clip-path:url(#SVGID_14_);fill:none;stroke:#000000;stroke-width:0.72;stroke-linecap:round;stroke-linejoin:round;stroke-miterlimit:10;}
	
		.st11{clip-path:url(#SVGID_16_);fill:none;stroke:#000000;stroke-width:0.54;stroke-linecap:round;stroke-linejoin:round;stroke-miterlimit:10;}
	
		.st12{clip-path:url(#SVGID_18_);fill:none;stroke:#000000;stroke-width:0.24;stroke-linecap:round;stroke-linejoin:round;stroke-miterlimit:10;}
	
		.st13{clip-path:url(#SVGID_20_);fill:none;stroke:#000000;stroke-width:1.44;stroke-linecap:round;stroke-linejoin:round;stroke-miterlimit:10;}
	.st14{fill:none;stroke:#000000;stroke-width:0.36;stroke-linecap:round;stroke-linejoin:round;stroke-miterlimit:10;}
	
		.st15{clip-path:url(#SVGID_22_);fill:none;stroke:#000000;stroke-width:0.54;stroke-linecap:round;stroke-linejoin:round;stroke-miterlimit:10;}
	
		.st16{clip-path:url(#SVGID_24_);fill:none;stroke:#000000;stroke-width:0.54;stroke-linecap:round;stroke-linejoin:round;stroke-miterlimit:10;}
	
		.st17{clip-path:url(#SVGID_26_);fill:none;stroke:#000000;stroke-width:0.54;stroke-linecap:round;stroke-linejoin:round;stroke-miterlimit:10;}
	
		.st18{clip-path:url(#SVGID_28_);fill:none;stroke:#000000;stroke-width:0.24;stroke-linecap:round;stroke-linejoin:round;stroke-miterlimit:10;}
	
		.st19{clip-path:url(#SVGID_30_);fill:none;stroke:#000000;stroke-width:0.24;stroke-linecap:round;stroke-linejoin:round;stroke-miterlimit:10;}
	
		.st20{clip-path:url(#SVGID_32_);fill:none;stroke:#000000;stroke-width:0.54;stroke-linecap:round;stroke-linejoin:round;stroke-miterlimit:10;}
	
		.st21{clip-path:url(#SVGID_34_);fill:none;stroke:#000000;stroke-width:0.72;stroke-linecap:round;stroke-linejoin:round;stroke-miterlimit:10;}
	
		.st22{clip-path:url(#SVGID_36_);fill:none;stroke:#000000;stroke-width:0.72;stroke-linecap:round;stroke-linejoin:round;stroke-miterlimit:10;}
	
		.st23{clip-path:url(#SVGID_38_);fill:none;stroke:#000000;stroke-width:0.54;stroke-linecap:round;stroke-linejoin:round;stroke-miterlimit:10;}
	
		.st24{clip-path:url(#SVGID_40_);fill:none;stroke:#000000;stroke-width:0.24;stroke-linecap:round;stroke-linejoin:round;stroke-miterlimit:10;}
	
		.st25{clip-path:url(#SVGID_42_);fill:none;stroke:#000000;stroke-width:0.54;stroke-linecap:round;stroke-linejoin:round;stroke-miterlimit:10;}
	.st26{clip-path:url(#SVGID_44_);fill:none;stroke:#000000;stroke-width:1.5;}
	.st27{fill:#FFFFFF;}
	.st28{fill:#1D1D1B;}
</style>
<line class="st0" x1="120.9" y1="139.5" x2="120.9" y2="268.5"/>
<line class="st1" x1="120.9" y1="284.7" x2="120.9" y2="368.8"/>
<path class="st0" d="M405.5,157.8l-0.4,221.5 M405.5,139.5v16.8 M114.9,284.7v84.1"/>
<path class="st1" d="M218.4,366.7v2.8 M219.7,301v65.7 M225.8,295.8v0.3"/>
<line class="st2" x1="120.9" y1="368.8" x2="114.9" y2="368.8"/>
<g>
	<g>
		<g>
			<g>
				<defs>
					<rect id="SVGID_1_" x="-825.8" y="-0.8" width="1796.7" height="400.7"/>
				</defs>
				<clipPath id="SVGID_2_">
					<use xlink:href="#SVGID_1_"  style="overflow:visible;"/>
				</clipPath>
				<path class="st3" d="M328,269.1h30.8v51.1H328V269.1z M190.5,297.5v73 M190.5,294.5L190.5,294.5 M184.4,297.5v73 M184.4,294.5
					L184.4,294.5 M187.4,294.5v76.1 M184.9,294.5v-8.3 M191,294.5v-8.3 M149.5,296.1v74.4 M153.6,296.1v74.4 M149.4,296.1
					c-0.9-1.5-2-2.9-3.3-4.1 M156.7,292c-1.2,1.2-2.3,2.6-3.3,4.1 M154.5,296.1h-6.1 M154.5,295.8h-6.1 M191,286.3h-6.1
					 M184.9,290.4l-6,0.2l-6,0.5l-6,0.7l-5.9,0.9l-5.9,1.2 M218.8,293.5l-5.5-1l-5.5-0.8l-5.6-0.6l-5.6-0.4l-5.6-0.2 M149,295.4
					l-0.5,0.1 M184.4,297.5l-5.4,0.2l-5.4,0.4l-5.4,0.7l-5.3,0.8l-5.3,1 M219.7,301l-5.8-1.1l-5.8-0.9l-5.8-0.7l-5.9-0.4l-5.8-0.2
					 M220.6,298.1l-6-1.2l-6-1l-6.1-0.7l-6.1-0.5l-6.1-0.2h-6.1l-6.1,0.3l-6.1,0.5l-6.1,0.8l-6,1l-6,1.3 M156.8,292h-10.6
					 M157.6,300.7v69.9 M154.5,298.2v72.3 M154.5,295.8v0.3 M148.4,295.5v75 M148.4,295.8v0.3 M225.2,296.1v70.5 M220.6,296.1v70.5
					 M228.1,292c-1.2,1.2-2.3,2.6-3.3,4.1 M220.8,296.1c-0.9-1.5-2-2.9-3.3-4.1 M217.5,292h10.6"/>
			</g>
		</g>
	</g>
</g>
<rect x="329.5" y="270.6" class="st4" width="27.8" height="48"/>
<path class="st1" d="M321.9,263h43 M325,323.8v-57.7h36.9v57.7"/>
<path class="st4" d="M342.8,303.1v15.5 M342.8,301.9v-14.5V301.9z M342.8,270.6v15.6 M344,303.1v15.5 M344,301.9v-14.5V301.9z
	 M344,270.6v15.6h13.3 M329.5,286.3h13.3 M344,287.5h13.3 M329.5,287.5h13.3"/>
<g>
	<g>
		<g>
			<g>
				<defs>
					<rect id="SVGID_3_" x="-825.8" y="-0.8" width="1796.7" height="400.7"/>
				</defs>
				<clipPath id="SVGID_4_">
					<use xlink:href="#SVGID_3_"  style="overflow:visible;"/>
				</clipPath>
				<path class="st5" d="M361.9,266c-1.3,0.6-2.4,1.7-3,3 M364.9,263c-1.3,0.6-2.4,1.7-3,3 M328,269.1c-0.6-1.3-1.7-2.4-3-3
					 M325,266c-0.6-1.3-1.7-2.4-3-3 M321.9,263v-0.6h43v0.6"/>
			</g>
		</g>
	</g>
</g>
<line class="st0" x1="405.5" y1="139.5" x2="110.2" y2="139.5"/>
<path class="st4" d="M410.7,40.4h4.2 M401.8,40.4h6.2 M394.9,40.4h4.8 M387.4,40.4h4.1 M378.4,40.4h6.1 M371.6,40.4h4.8 M364,40.4
	h4.1 M355.1,40.4h6.2 M348.2,40.4h4.8 M340.7,40.4h4.2 M331.7,40.4h6.2 M324.9,40.4h4.8 M317.3,40.4h4.1 M308.4,40.4h6.1
	 M301.5,40.4h4.8 M293.9,40.4h4.2 M285,40.4h6.2 M278.1,40.4h4.8 M270.6,40.4h4.1 M261.7,40.4h6.1 M254.8,40.4h4.8 M247.3,40.4h4.1
	 M238.3,40.4h6.2 M231.4,40.4h4.8 M223.9,40.4h4.2 M215,40.4h6.2 M208.1,40.4h4.8 M200.6,40.4h4.1 M191.7,40.4h6.1 M184.8,40.4h4.8
	 M177.2,40.4h4.2 M168.3,40.4h6.2 M161.4,40.4h4.8 M153.9,40.4h4.1 M144.9,40.4h6.1 M138.1,40.4h4.8 M130.5,40.4h4.1 M121.5,40.4
	h6.2 M114.7,40.4h4.8 M110.2,40.4h1.1 M412.4,32.1h3.8 M404.8,32.1h4.2 M395.9,32.1h6.2 M389.1,32.1h4.8 M381.5,32.1h4.1
	 M372.6,32.1h6.2 M365.7,32.1h4.8 M358.2,32.1h4.1 M349.3,32.1h6.1 M342.4,32.1h4.8 M334.8,32.1h4.2 M325.9,32.1h6.2 M319,32.1h4.8
	 M311.5,32.1h4.1 M302.6,32.1h6.1 M295.7,32.1h4.8 M288.1,32.1h4.2 M279.2,32.1h6.2 M272.3,32.1h4.8 M264.8,32.1h4.1 M255.8,32.1
	h6.2 M249,32.1h4.8 M241.4,32.1h4.1 M232.5,32.1h6.1 M225.6,32.1h4.8 M218.1,32.1h4.2 M209.1,32.1h6.2 M202.3,32.1h4.8 M194.7,32.1
	h4.1 M185.8,32.1h6.1 M178.9,32.1h4.8 M171.3,32.1h4.2 M162.4,32.1h6.2 M155.5,32.1h4.8 M148,32.1h4.1 M139.1,32.1h6.2 M132.2,32.1
	h4.8 M124.7,32.1h4.1 M115.8,32.1h6.1 M110.2,32.1h3.5 M413.5,23.9h2.8 M406.6,23.9h4.8 M399.1,23.9h4.1 M390.1,23.9h6.1
	 M383.3,23.9h4.8 M375.7,23.9h4.2 M366.8,23.9h6.2 M359.9,23.9h4.8 M352.3,23.9h4.1 M343.4,23.9h6.1 M336.6,23.9h4.8 M329,23.9h4.2
	 M320,23.9h6.2 M313.2,23.9h4.8 M305.6,23.9h4.1 M296.7,23.9h6.1 M289.8,23.9h4.8 M282.3,23.9h4.1 M273.4,23.9h6.1 M266.5,23.9h4.8
	 M258.9,23.9h4.2 M250,23.9h6.2 M243.1,23.9h4.8 M235.6,23.9h4.1 M226.7,23.9h6.1 M219.8,23.9h4.8 M212.2,23.9h4.2 M203.3,23.9h6.2
	 M196.4,23.9h4.8 M188.9,23.9h4.1 M180,23.9h6.1 M173.1,23.9h4.8 M165.6,23.9h4.1 M156.6,23.9h6.1 M149.8,23.9h4.8 M142.2,23.9h4.2
	 M133.2,23.9h6.2 M126.4,23.9h4.8 M118.8,23.9h4.1 M110.2,23.9h5.9 M407.6,15.6h6.2 M400.8,15.6h4.8 M393.2,15.6h4.1 M384.3,15.6
	h6.1 M377.4,15.6h4.8 M369.8,15.6h4.2 M360.9,15.6h6.2 M354,15.6h4.8 M346.5,15.6h4.1 M337.6,15.6h6.1 M330.7,15.6h4.8 M323.2,15.6
	h4.1 M314.2,15.6h6.2 M307.4,15.6h4.8 M299.8,15.6h4.2 M290.9,15.6h6.2 M284,15.6h4.8 M276.5,15.6h4.1 M267.5,15.6h6.1 M260.7,15.6
	h4.8 M253.1,15.6h4.2 M244.2,15.6h6.2 M237.3,15.6h4.8 M229.7,15.6h4.1 M220.8,15.6h6.1 M214,15.6h4.8 M206.4,15.6h4.1 M197.4,15.6
	h6.2 M190.6,15.6h4.8 M183,15.6h4.2 M174.1,15.6h6.2 M167.2,15.6h4.8 M159.7,15.6h4.1 M150.8,15.6h6.1 M143.9,15.6h4.8 M136.3,15.6
	h4.2 M127.4,15.6h6.2 M120.5,15.6h4.8 M113,15.6h4.1 M110.2,15.6L110.2,15.6 M410.7,7.4h4.2 M401.8,7.4h6.2 M394.9,7.4h4.8
	 M387.4,7.4h4.1 M378.4,7.4h6.1 M371.6,7.4h4.8 M364,7.4h4.1 M355.1,7.4h6.2 M348.2,7.4h4.8 M340.7,7.4h4.2 M331.7,7.4h6.2
	 M324.9,7.4h4.8 M317.3,7.4h4.1 M308.4,7.4h6.1 M301.5,7.4h4.8 M293.9,7.4h4.2 M285,7.4h6.2 M278.1,7.4h4.8 M270.6,7.4h4.1
	 M261.7,7.4h6.1 M254.8,7.4h4.8 M247.3,7.4h4.1 M238.3,7.4h6.2 M231.4,7.4h4.8 M223.9,7.4h4.2 M215,7.4h6.2 M208.1,7.4h4.8
	 M200.6,7.4h4.1 M191.7,7.4h6.1 M184.8,7.4h4.8 M177.2,7.4h4.2 M168.3,7.4h6.2 M161.4,7.4h4.8 M153.9,7.4h4.1 M144.9,7.4h6.1
	 M138.1,7.4h4.8 M130.5,7.4h4.1 M121.5,7.4h6.2 M114.7,7.4h4.8 M110.2,7.4h1.1"/>
<path class="st4" d="M110.2,131h3.5 M413.5,122.8h2.8 M406.6,122.8h4.8 M399.1,122.8h4.1 M390.1,122.8h6.1 M383.3,122.8h4.8
	 M375.7,122.8h4.2 M366.8,122.8h6.2 M359.9,122.8h4.8 M352.3,122.8h4.1 M343.4,122.8h6.1 M336.6,122.8h4.8 M329,122.8h4.2
	 M320,122.8h6.2 M313.2,122.8h4.8 M305.6,122.8h4.1 M296.7,122.8h6.1 M289.8,122.8h4.8 M282.3,122.8h4.1 M273.4,122.8h6.1
	 M266.5,122.8h4.8 M258.9,122.8h4.2 M250,122.8h6.2 M243.1,122.8h4.8 M235.6,122.8h4.1 M226.7,122.8h6.1 M219.8,122.8h4.8
	 M212.2,122.8h4.2 M203.3,122.8h6.2 M196.4,122.8h4.8 M188.9,122.8h4.1 M180,122.8h6.1 M173.1,122.8h4.8 M165.6,122.8h4.1
	 M156.6,122.8h6.1 M149.8,122.8h4.8 M142.2,122.8h4.2 M133.2,122.8h6.2 M126.4,122.8h4.8 M118.8,122.8h4.1 M110.2,122.8h5.9
	 M407.6,114.5h6.2 M400.8,114.5h4.8 M393.2,114.5h4.1 M384.3,114.5h6.1 M377.4,114.5h4.8 M372.1,114.5h1.9 M167.2,114.5h4.8
	 M159.7,114.5h4.1 M150.8,114.5h6.1 M143.9,114.5h4.8 M136.3,114.5h4.2 M127.4,114.5h6.2 M120.5,114.5h4.8 M113,114.5h4.1
	 M110.2,114.5L110.2,114.5 M410.7,106.3h4.2 M401.8,106.3h6.2 M394.9,106.3h4.8 M387.4,106.3h4.1 M378.4,106.3h6.1 M372.1,106.3h4.3
	 M168.3,106.3h4 M161.4,106.3h4.8 M153.9,106.3h4.1 M144.9,106.3h6.1 M138.1,106.3h4.8 M130.5,106.3h4.1 M121.5,106.3h6.2
	 M114.7,106.3h4.8 M110.2,106.3h1.1 M412.4,98.1h3.8 M404.8,98.1h4.2 M395.9,98.1h6.2 M389.1,98.1h4.8 M381.5,98.1h4.1 M372.6,98.1
	h6.2 M171.3,98.1h1 M162.4,98.1h6.2 M155.5,98.1h4.8 M148,98.1h4.1 M139.1,98.1h6.2 M132.2,98.1h4.8 M124.7,98.1h4.1 M115.8,98.1
	h6.1 M110.2,98.1h3.5 M413.5,89.8h2.8 M406.6,89.8h4.8 M399.1,89.8h4.1 M390.1,89.8h6.1 M383.3,89.8h4.8 M375.7,89.8h4.2
	 M372.4,89.8h0.6 M165.6,89.8h4.1 M156.6,89.8h6.1 M149.8,89.8h4.8 M142.2,89.8h4.2 M133.2,89.8h6.2 M126.4,89.8h4.8 M118.8,89.8
	h4.1 M110.2,89.8h5.9 M407.6,81.6h6.2 M400.8,81.6h4.8 M393.2,81.6h4.1 M384.3,81.6h6.1 M377.4,81.6h4.8 M372.7,81.6h1.3
	 M167.2,81.6h4.8 M159.7,81.6h4.1 M150.8,81.6h6.1 M143.9,81.6h4.8 M136.3,81.6h4.2 M127.4,81.6h6.2 M120.5,81.6h4.8 M113,81.6h4.1
	 M110.2,81.6L110.2,81.6 M410.7,73.3h4.2 M401.8,73.3h6.2 M394.9,73.3h4.8 M387.4,73.3h4.1 M378.4,73.3h6.1 M372.9,73.3h3.5
	 M168.3,73.3h4.2 M161.4,73.3h4.8 M153.9,73.3h4.1 M144.9,73.3h6.1 M138.1,73.3h4.8 M130.5,73.3h4.1 M121.5,73.3h6.2 M114.7,73.3
	h4.8 M110.2,73.3h1.1 M412.4,65.1h3.8 M404.8,65.1h4.2 M395.9,65.1h6.2 M389.1,65.1h4.8 M381.5,65.1h4.1 M373.2,65.1h5.6
	 M171.3,65.1h1.2 M162.4,65.1h6.2 M155.5,65.1h4.8 M148,65.1h4.1 M139.1,65.1h6.2 M132.2,65.1h4.8 M124.7,65.1h4.1 M115.8,65.1h6.1
	 M110.2,65.1h3.5 M413.5,56.8h2.8 M406.6,56.8h4.8 M399.1,56.8h4.1 M390.1,56.8h6.1 M383.3,56.8h4.8 M375.7,56.8h4.2 M165.6,56.8
	h4.1 M156.6,56.8h6.1 M149.8,56.8h4.8 M142.2,56.8h4.2 M133.2,56.8h6.2 M126.4,56.8h4.8 M118.8,56.8h4.1 M110.2,56.8h5.9
	 M407.6,48.6h6.2 M400.8,48.6h4.8 M393.2,48.6h4.1 M384.3,48.6h6.1 M377.4,48.6h4.8 M369.8,48.6h4.2 M360.9,48.6h6.2 M354,48.6h4.8
	 M346.5,48.6h4.1 M337.6,48.6h6.1 M330.7,48.6h4.8 M323.2,48.6h4.1 M314.2,48.6h6.2 M307.4,48.6h4.8 M299.8,48.6h4.2 M290.9,48.6
	h6.2 M284,48.6h4.8 M276.5,48.6h4.1 M267.5,48.6h6.1 M260.7,48.6h4.8 M253.1,48.6h4.2 M244.2,48.6h6.2 M237.3,48.6h4.8 M229.7,48.6
	h4.1 M220.8,48.6h6.1 M214,48.6h4.8 M206.4,48.6h4.1 M197.4,48.6h6.2 M190.6,48.6h4.8 M183,48.6h4.2 M174.1,48.6h6.2 M167.2,48.6
	h4.8 M159.7,48.6h4.1 M150.8,48.6h6.1 M143.9,48.6h4.8 M136.3,48.6h4.2 M127.4,48.6h6.2 M120.5,48.6h4.8 M113,48.6h4.1 M110.2,48.6
	L110.2,48.6"/>
<path class="st4" d="M116.1,56.5h2.8 M413.8,48.3h2.4 M397.3,48.3h3.4 M390.4,48.3h2.8 M374,48.3h3.4 M367.1,48.3h2.7 M350.6,48.3
	h3.4 M343.7,48.3h2.8 M327.3,48.3h3.4 M320.4,48.3h2.8 M303.9,48.3h3.4 M297.1,48.3h2.7 M280.6,48.3h3.4 M273.7,48.3h2.8
	 M257.2,48.3h3.4 M250.4,48.3h2.7 M233.8,48.3h3.4 M227,48.3h2.8 M210.5,48.3h3.4 M203.6,48.3h2.8 M187.2,48.3h3.4 M180.3,48.3h2.7
	 M163.8,48.3h3.4 M156.9,48.3h2.8 M140.5,48.3h3.4 M133.6,48.3h2.7 M117.1,48.3h3.4 M110.2,48.3h2.8 M414.9,40h1.4 M408,40h2.7
	 M391.5,40h3.4 M384.6,40h2.8 M368.1,40h3.4 M361.3,40h2.8 M344.8,40h3.4 M337.9,40h2.7 M321.4,40h3.4 M314.6,40h2.8 M298.1,40h3.4
	 M291.2,40h2.7 M274.7,40h3.4 M267.8,40h2.8 M251.4,40h3.4 M244.5,40h2.8 M228.1,40h3.4 M221.2,40h2.7 M204.7,40h3.4 M197.8,40h2.8
	 M181.3,40h3.4 M174.5,40h2.7 M158,40h3.4 M151.1,40h2.8 M134.6,40h3.4 M127.8,40h2.8 M111.2,40h3.4 M409,31.8h3.4 M402.1,31.8h2.7
	 M385.6,31.8h3.4 M378.8,31.8h2.7 M362.3,31.8h3.4 M355.4,31.8h2.8 M339,31.8h3.4 M332.1,31.8h2.7 M315.6,31.8h3.4 M308.7,31.8h2.8
	 M292.3,31.8h3.4 M285.4,31.8h2.7 M268.9,31.8h3.4 M262.1,31.8h2.7 M245.5,31.8h3.4 M238.7,31.8h2.8 M222.2,31.8h3.4 M215.3,31.8
	h2.7 M198.8,31.8h3.4 M192,31.8h2.8 M175.5,31.8h3.4 M168.6,31.8h2.7 M152.1,31.8h3.4 M145.3,31.8h2.7 M128.8,31.8h3.4 M121.9,31.8
	h2.8 M403.2,23.5h3.4 M396.3,23.5h2.8 M379.8,23.5h3.4 M373,23.5h2.7 M356.4,23.5h3.4 M349.6,23.5h2.8 M333.1,23.5h3.4 M326.2,23.5
	h2.7 M309.7,23.5h3.4 M302.9,23.5h2.8 M286.4,23.5h3.4 M279.5,23.5h2.8 M263.1,23.5h3.4 M256.2,23.5h2.7 M239.7,23.5h3.4
	 M232.8,23.5h2.8 M216.4,23.5h3.4 M209.5,23.5h2.7 M193,23.5h3.4 M186.1,23.5h2.8 M169.6,23.5h3.4 M162.8,23.5h2.8 M146.3,23.5h3.4
	 M139.5,23.5h2.7 M122.9,23.5h3.4 M116.1,23.5h2.8 M413.8,15.3h2.4 M397.3,15.3h3.4 M390.4,15.3h2.8 M374,15.3h3.4 M367.1,15.3h2.7
	 M350.6,15.3h3.4 M343.7,15.3h2.8 M327.3,15.3h3.4 M320.4,15.3h2.8 M303.9,15.3h3.4 M297.1,15.3h2.7 M280.6,15.3h3.4 M273.7,15.3
	h2.8 M257.2,15.3h3.4 M250.4,15.3h2.7 M233.8,15.3h3.4 M227,15.3h2.8 M210.5,15.3h3.4 M203.6,15.3h2.8 M187.2,15.3h3.4 M180.3,15.3
	h2.7 M163.8,15.3h3.4 M156.9,15.3h2.8 M140.5,15.3h3.4 M133.6,15.3h2.7 M117.1,15.3h3.4 M110.2,15.3h2.8 M414.9,7.1h1.4 M408,7.1
	h2.7 M391.5,7.1h3.4 M384.6,7.1h2.8 M368.1,7.1h3.4 M361.3,7.1h2.8 M344.8,7.1h3.4 M337.9,7.1h2.7 M321.4,7.1h3.4 M314.6,7.1h2.8
	 M298.1,7.1h3.4 M291.2,7.1h2.7 M274.7,7.1h3.4 M267.8,7.1h2.8 M251.4,7.1h3.4 M244.5,7.1h2.8 M228.1,7.1h3.4 M221.2,7.1h2.7
	 M204.7,7.1h3.4 M197.8,7.1h2.8 M181.3,7.1h3.4 M174.5,7.1h2.7 M158,7.1h3.4 M151.1,7.1h2.8 M134.6,7.1h3.4 M127.8,7.1h2.8
	 M111.2,7.1h3.4 M412.4,131h3.8 M404.8,131h4.2 M395.9,131h6.2 M389.1,131h4.8 M381.5,131h4.1 M372.6,131h6.2 M365.7,131h4.8
	 M358.2,131h4.1 M349.3,131h6.1 M342.4,131h4.8 M334.8,131h4.2 M325.9,131h6.2 M319,131h4.8 M311.5,131h4.1 M302.6,131h6.1
	 M295.7,131h4.8 M288.1,131h4.2 M279.2,131h6.2 M272.3,131h4.8 M264.8,131h4.1 M255.8,131h6.2 M249,131h4.8 M241.4,131h4.1
	 M232.5,131h6.1 M225.6,131h4.8 M218.1,131h4.2 M209.1,131h6.2 M202.3,131h4.8 M194.7,131h4.1 M185.8,131h6.1 M178.9,131h4.8
	 M171.3,131h4.2 M162.4,131h6.2 M155.5,131h4.8 M148,131h4.1 M139.1,131h6.2 M132.2,131h4.8 M124.7,131h4.1 M115.8,131h6.1"/>
<path class="st4" d="M137,65.6h2 M113.7,65.6h2.1 M411.4,57.4h2 M388,57.4h2.1 M154.5,57.4h2.1 M131.2,57.4h2 M405.6,49.1h2
	 M382.2,49.1h2.1 M358.9,49.1h2.1 M335.5,49.1h2.1 M312.1,49.1h2 M288.8,49.1h2 M265.4,49.1h2.1 M242.1,49.1h2.1 M218.8,49.1h2.1
	 M195.4,49.1h2 M172.1,49.1h2 M148.7,49.1h2.1 M125.3,49.1h2.1 M399.7,40.9h2 M376.4,40.9h2 M353,40.9h2 M329.7,40.9h2 M306.3,40.9
	h2.1 M283,40.9h2 M259.6,40.9h2 M236.3,40.9h2.1 M212.9,40.9h2 M189.5,40.9h2.1 M166.2,40.9h2 M142.9,40.9h2 M119.5,40.9h2
	 M393.9,32.6h2 M370.6,32.6h2 M347.2,32.6h2.1 M323.8,32.6h2.1 M300.5,32.6h2.1 M277.1,32.6h2 M253.8,32.6h2 M230.4,32.6h2.1
	 M207.1,32.6h2.1 M183.8,32.6h2 M160.4,32.6h2 M137,32.6h2 M113.7,32.6h2.1 M411.4,24.4h2 M388,24.4h2.1 M364.7,24.4h2.1
	 M341.4,24.4h2 M318,24.4h2 M294.7,24.4h2 M271.3,24.4h2.1 M247.9,24.4h2 M224.6,24.4h2 M201.2,24.4h2 M177.9,24.4h2 M154.5,24.4
	h2.1 M131.2,24.4h2 M405.6,16.2h2 M382.2,16.2h2.1 M358.9,16.2h2.1 M335.5,16.2h2.1 M312.1,16.2h2 M288.8,16.2h2 M265.4,16.2h2.1
	 M242.1,16.2h2.1 M218.8,16.2h2.1 M195.4,16.2h2 M172.1,16.2h2 M148.7,16.2h2.1 M125.3,16.2h2.1 M399.7,7.9h2 M376.4,7.9h2 M353,7.9
	h2 M329.7,7.9h2 M306.3,7.9h2.1 M283,7.9h2 M259.6,7.9h2 M236.3,7.9h2.1 M212.9,7.9h2 M189.5,7.9h2.1 M166.2,7.9h2 M142.9,7.9h2
	 M119.5,7.9h2 M207.1-0.4h2.1 M183.8-0.4h2 M160.4-0.4h2 M137-0.4h2 M113.7-0.4h2.1 M409,130.7h3.4 M402.1,130.7h2.7 M385.6,130.7
	h3.4 M378.8,130.7h2.7 M362.3,130.7h3.4 M355.4,130.7h2.8 M339,130.7h3.4 M332.1,130.7h2.7 M315.6,130.7h3.4 M308.7,130.7h2.8
	 M292.3,130.7h3.4 M285.4,130.7h2.7 M268.9,130.7h3.4 M262.1,130.7h2.7 M245.5,130.7h3.4 M238.7,130.7h2.8 M222.2,130.7h3.4
	 M215.3,130.7h2.7 M198.8,130.7h3.4 M192,130.7h2.8 M175.5,130.7h3.4 M168.6,130.7h2.7 M152.1,130.7h3.4 M145.3,130.7h2.7
	 M128.8,130.7h3.4 M121.9,130.7h2.8 M403.2,122.4h3.4 M396.3,122.4h2.8 M379.8,122.4h3.4 M373,122.4h2.7 M169.6,122.4h2.7
	 M162.8,122.4h2.8 M146.3,122.4h3.4 M139.5,122.4h2.7 M122.9,122.4h3.4 M116.1,122.4h2.8 M413.8,114.2h2.4 M397.3,114.2h3.4
	 M390.4,114.2h2.8 M374,114.2h3.4 M163.8,114.2h3.4 M156.9,114.2h2.8 M140.5,114.2h3.4 M133.6,114.2h2.7 M117.1,114.2h3.4
	 M110.2,114.2h2.8 M414.9,106h1.4 M408,106h2.7 M391.5,106h3.4 M384.6,106h2.8 M158,106h3.4 M151.1,106h2.8 M134.6,106h3.4
	 M127.8,106h2.8 M111.2,106h3.4 M409,97.7h3.4 M402.1,97.7h2.7 M385.6,97.7h3.4 M378.8,97.7h2.7 M168.6,97.7h2.7 M152.1,97.7h3.4
	 M145.3,97.7h2.7 M128.8,97.7h3.4 M121.9,97.7h2.8 M403.2,89.5h3.4 M396.3,89.5h2.8 M379.8,89.5h3.4 M373,89.5h2.7 M169.6,89.5h2.7
	 M162.8,89.5h2.8 M146.3,89.5h3.4 M139.5,89.5h2.7 M122.9,89.5h3.4 M116.1,89.5h2.8 M413.8,81.2h2.4 M397.3,81.2h3.4 M390.4,81.2
	h2.8 M374,81.2h3.4 M163.8,81.2h3.4 M156.9,81.2h2.8 M140.5,81.2h3.4 M133.6,81.2h2.7 M117.1,81.2h3.4 M110.2,81.2h2.8 M414.9,73
	h1.4 M408,73h2.7 M391.5,73h3.4 M384.6,73h2.8 M158,73h3.4 M151.1,73h2.8 M134.6,73h3.4 M127.8,73h2.8 M111.2,73h3.4 M409,64.7h3.4
	 M402.1,64.7h2.7 M385.6,64.7h3.4 M378.8,64.7h2.7 M168.6,64.7h2.7 M152.1,64.7h3.4 M145.3,64.7h2.7 M128.8,64.7h3.4 M121.9,64.7
	h2.8 M403.2,56.5h3.4 M396.3,56.5h2.8 M379.8,56.5h3.4 M373.5,56.5h2.2 M169.6,56.5h3 M162.8,56.5h2.8 M146.3,56.5h3.4 M139.5,56.5
	h2.7 M122.9,56.5h3.4"/>
<path class="st4" d="M387.4,40.4v-7.9 M387.4,73.3v-7.9 M387.4,106.3v-7.9 M387.4,138.3v-7 M381.5,32.1v-7.9 M381.5,65.1v-7.9
	 M381.5,98.1v-7.9 M381.5,131v-7.9 M375.7,23.9V16 M375.7,56.8v-7.9 M375.7,89.8v-7.9 M375.7,122.8v-7.9 M369.8,15.6V7.7
	 M369.8,48.6v-7.9 M364,7.4V0.1 M364,40.4v-7.9 M364,138.3v-6.9 M358.2,32.1v-7.9 M358.2,131v-7.9 M352.3,23.9V16 M352.3,52.6v-3.7
	 M352.3,122.8v-0.2 M346.5,15.6V7.7 M346.5,48.6v-7.9 M340.7,7.4V0.1 M340.7,40.4v-7.9 M340.7,138.2v-6.9 M334.8,32.1v-7.9
	 M334.8,131v-7.9 M329,23.9V16 M329,52.6v-3.7 M329,122.8v-0.2 M323.2,15.6V7.7 M323.2,48.6v-7.9 M317.3,7.4v-7.5 M317.3,40.4v-7.9
	 M317.3,138.2v-6.8 M311.5,32.1v-7.9 M311.5,131v-7.9 M305.6,23.9V16 M305.6,52.6v-3.7 M305.6,122.8v-0.2 M299.8,15.6V7.7
	 M299.8,48.6v-7.9 M293.9,7.4v-7.5 M293.9,40.4v-7.9 M293.9,138.1v-6.8 M288.1,32.1v-7.9 M288.1,131v-7.9 M282.3,23.9V16
	 M282.3,52.6V49 M282.3,122.8v-0.2 M276.5,15.6V7.7 M276.5,48.6v-7.9 M270.6,7.4v-7.6 M270.6,40.4v-7.9 M270.6,138v-6.7 M264.8,32.1
	v-7.9 M264.8,131v-7.9 M258.9,23.9V16 M258.9,52.6V49 M258.9,122.8v-0.2 M253.1,15.6V7.7 M253.1,48.6v-7.9 M247.3,7.4v-7.7
	 M247.3,40.4v-7.9 M247.3,138v-6.6 M241.4,32.1v-7.9 M241.4,131v-7.9 M235.6,23.9V16 M235.6,52.5v-3.6 M235.6,122.8v-0.2
	 M229.7,15.6V7.7 M229.7,48.6v-7.9 M223.9,7.4v-7.7 M223.9,40.4v-7.9 M223.9,137.9v-6.5 M218.1,32.1v-7.9 M218.1,131v-7.9
	 M212.2,23.9V16 M212.2,52.5v-3.6 M212.2,122.8v-0.2 M206.4,15.6V7.7 M206.4,48.6v-7.9 M200.6,7.4v-7.8 M200.6,40.4v-7.9
	 M200.6,137.8v-6.4 M194.7,32.1v-7.9 M194.7,131v-7.9 M188.9,23.9V16 M188.9,52.5v-3.6 M188.9,122.8v-0.2 M183,15.6V7.7 M183,48.6
	v-7.9 M177.2,7.4v-7.9 M177.2,40.4v-7.9 M177.2,137.7v-6.4 M171.3,32.1v-7.9 M171.3,65.1v-7.9 M171.3,98.1v-7.9 M171.3,131v-7.9
	 M165.6,23.9V16 M165.6,56.8v-7.9 M165.6,89.8v-7.9 M165.6,122.8v-7.9 M159.7,15.6V7.7 M159.7,48.6v-7.9 M159.7,81.6v-7.9
	 M159.7,114.5v-7.9 M153.9,7.4v-7.9 M153.9,40.4v-7.9 M153.9,73.3v-7.9 M153.9,106.3v-7.9 M153.9,137.7v-6.3 M148,32.1v-7.9
	 M148,65.1v-7.9 M148,98.1v-7.9 M148,131v-7.9 M142.2,23.9V16 M142.2,56.8v-7.9 M142.2,89.8v-7.9 M142.2,122.8v-7.9 M136.3,15.6V7.7
	 M136.3,48.6v-7.9 M136.3,81.6v-7.9 M136.3,114.5v-7.9 M130.5,7.4v-7.9 M130.5,40.4v-7.9 M130.5,73.3v-7.9 M130.5,106.3v-7.9
	 M130.5,137.6v-6.3 M124.7,32.1v-7.9 M124.7,65.1v-7.9 M124.7,98.1v-7.9 M124.7,131v-7.9 M118.8,23.9V16 M118.8,56.8v-7.9
	 M118.8,89.8v-7.9 M118.8,122.8v-7.9 M113,15.6V7.7 M113,48.6v-7.9 M113,81.6v-7.9 M113,114.5v-7.9 M393.9,131.5h2 M370.6,131.5h2
	 M347.2,131.5h2.1 M323.8,131.5h2.1 M300.5,131.5h2 M277.1,131.5h2 M253.8,131.5h2 M230.4,131.5h2.1 M207.1,131.5h2 M183.8,131.5h2
	 M160.4,131.5h2 M137,131.5h2 M113.7,131.5h2.1 M411.4,123.3h2 M388,123.3h2.1 M364.7,123.3h2.1 M341.4,123.3h2 M318,123.3h2
	 M294.7,123.3h2 M271.3,123.3h2.1 M247.9,123.3h2 M224.6,123.3h2 M201.2,123.3h2 M177.9,123.3h2 M154.5,123.3h2.1 M131.2,123.3h2
	 M405.6,115.1h2 M382.2,115.1h2.1 M172.1,115.1h0.2 M148.7,115.1h2.1 M125.3,115.1h2.1 M399.7,106.8h2 M376.4,106.8h2 M166.2,106.8
	h2 M142.9,106.8h2 M119.5,106.8h2 M393.9,98.6h2 M372.1,98.6h0.5 M160.4,98.6h2 M137,98.6h2 M113.7,98.6h2.1 M411.4,90.3h2
	 M388,90.3h2.1 M154.5,90.3h2.1 M131.2,90.3h2 M405.6,82.1h2 M382.2,82.1h2.1 M172.1,82.1h0.4 M148.7,82.1h2.1 M125.3,82.1h2.1
	 M399.7,73.8h2 M376.4,73.8h2 M166.2,73.8h2 M142.9,73.8h2 M119.5,73.8h2 M393.9,65.6h2 M160.4,65.6h2"/>
<path class="st4" d="M132.2,65.1v-7.2 M132.2,98.1v-7.2 M132.2,131v-7.2 M126.4,23.9v-7.2 M126.4,56.8v-7.2 M126.4,89.8v-7.2
	 M126.4,122.8v-7.2 M120.5,15.6V8.4 M120.5,48.6v-7.2 M120.5,81.6v-7.2 M120.5,114.5v-7.2 M114.7,7.4V0.2 M114.7,40.4v-7.2
	 M114.7,73.3v-7.2 M114.7,106.3v-7.2 M114.7,137.6v-5.5 M414.9,7.4V0.2 M414.9,40.4v-7.8 M414.9,73.3v-7.7 M414.9,106.3v-7.7
	 M414.9,138.5v-6.9 M409,32.1v-7.7 M409,65.1v-7.7 M409,98.1v-7.8 M409,131v-7.8 M403.2,23.9v-7.7 M403.2,56.8v-7.7 M403.2,89.8
	v-7.7 M403.2,122.8v-7.7 M397.3,15.6V7.9 M397.3,48.6v-7.7 M397.3,81.6v-7.7 M397.3,114.5v-7.7 M391.5,7.4V0.2 M391.5,40.4v-7.8
	 M391.5,73.3v-7.7 M391.5,106.3v-7.7 M391.5,138.4v-6.9 M385.6,32.1v-7.7 M385.6,65.1v-7.7 M385.6,98.1v-7.8 M385.6,131v-7.8
	 M379.8,23.9v-7.7 M379.8,56.8v-7.7 M379.8,89.8v-7.7 M379.8,122.8v-7.7 M374,15.6V7.9 M374,48.6v-7.7 M374,81.6v-7.7 M374,114.5
	v-7.7 M368.1,7.4V0.1 M368.1,40.4v-7.8 M368.1,138.3v-6.8 M362.3,32.1v-7.7 M362.3,131v-7.8 M356.4,23.9v-7.7 M356.4,52.6v-3.5
	 M356.4,122.8v-0.2 M350.6,15.6V7.9 M350.6,48.6v-7.7 M344.8,7.4V0.1 M344.8,40.4v-7.8 M344.8,138.2v-6.7 M339,32.1v-7.7 M339,131
	v-7.8 M333.1,23.9v-7.7 M333.1,52.6v-3.5 M333.1,122.8v-0.2 M327.3,15.6V7.9 M327.3,48.6v-7.7 M321.4,7.4V0 M321.4,40.4v-7.8
	 M321.4,138.2v-6.6 M315.6,32.1v-7.7 M315.6,131v-7.8 M309.7,23.9v-7.7 M309.7,52.6v-3.5 M309.7,122.8v-0.2 M303.9,15.6V7.9
	 M303.9,48.6v-7.7 M298.1,7.4v-7.5 M298.1,40.4v-7.8 M298.1,138.1v-6.6 M292.3,32.1v-7.7 M292.3,131v-7.8 M286.4,23.9v-7.7
	 M286.4,52.6v-3.4 M286.4,122.8v-0.2 M280.6,15.6V7.9 M280.6,48.6v-7.7 M274.7,7.4v-7.6 M274.7,40.4v-7.8 M274.7,138v-6.5
	 M268.9,32.1v-7.7 M268.9,131v-7.8 M263.1,23.9v-7.7 M263.1,52.6v-3.4 M263.1,122.8v-0.2 M257.2,15.6V7.9 M257.2,48.6v-7.7
	 M251.4,7.4v-7.7 M251.4,40.4v-7.8 M251.4,138v-6.4 M245.5,32.1v-7.7 M245.5,131v-7.8 M239.7,23.9v-7.7 M239.7,52.5v-3.4
	 M239.7,122.8v-0.2 M233.8,15.6V7.9 M233.8,48.6v-7.7 M228.1,7.4v-7.7 M228.1,40.4v-7.8 M228.1,137.9v-6.4 M222.2,32.1v-7.7
	 M222.2,131v-7.8 M216.4,23.9v-7.7 M216.4,52.5v-3.4 M216.4,122.8v-0.2 M210.5,15.6V7.9 M210.5,48.6v-7.7 M204.7,7.4v-7.8
	 M204.7,40.4v-7.8 M204.7,137.8v-6.3 M198.8,32.1v-7.7 M198.8,131v-7.8 M193,23.9v-7.7 M193,52.5v-3.4 M193,122.8v-0.2 M187.2,15.6
	V7.9 M187.2,48.6v-7.7 M181.3,7.4v-7.8 M181.3,40.4v-7.8 M181.3,137.7v-6.2 M175.5,32.1v-7.7 M175.5,131v-7.8 M169.6,23.9v-7.7
	 M169.6,56.8v-7.7 M169.6,89.8v-7.7 M169.6,122.8v-7.7 M163.8,15.6V7.9 M163.8,48.6v-7.7 M163.8,81.6v-7.7 M163.8,114.5v-7.7
	 M158,7.4v-7.8 M158,40.4v-7.8 M158,73.3v-7.7 M158,106.3v-7.7 M158,137.7v-6.1 M152.1,32.1v-7.7 M152.1,65.1v-7.7 M152.1,98.1v-7.8
	 M152.1,131v-7.8 M146.3,23.9v-7.7 M146.3,56.8v-7.7 M146.3,89.8v-7.7 M146.3,122.8v-7.7 M140.5,15.6V7.9 M140.5,48.6v-7.7
	 M140.5,81.6v-7.7 M140.5,114.5v-7.7 M134.6,7.4v-7.8 M134.6,40.4v-7.8 M134.6,73.3v-7.7 M134.6,106.3v-7.7 M134.6,137.6v-6.1
	 M128.8,32.1v-7.7 M128.8,65.1v-7.7 M128.8,98.1v-7.8 M128.8,131v-7.8 M122.9,23.9v-7.7 M122.9,56.8v-7.7 M122.9,89.8v-7.7
	 M122.9,122.8v-7.7 M117.1,15.6V7.9 M117.1,48.6v-7.7 M117.1,81.6v-7.7 M117.1,114.5v-7.7 M111.2,7.4v-7.8 M111.2,40.4v-7.8
	 M111.2,73.3v-7.7 M111.2,106.3v-7.7 M111.2,137.6v-6 M410.7,7.4V0.2 M410.7,40.4v-7.9 M410.7,73.3v-7.9 M410.7,106.3v-7.9
	 M410.7,138.5v-7.1 M404.8,32.1v-7.9 M404.8,65.1v-7.9 M404.8,98.1v-7.9 M404.8,131v-7.9 M399.1,23.9V16 M399.1,56.8v-7.9
	 M399.1,89.8v-7.9 M399.1,122.8v-7.9 M393.2,15.6V7.7 M393.2,48.6v-7.9 M393.2,81.6v-7.9 M393.2,114.5v-7.9 M387.4,7.4V0.2"/>
<g>
	<g>
		<g>
			<g>
				<defs>
					<rect id="SVGID_5_" x="-825.8" y="-0.8" width="1796.7" height="400.7"/>
				</defs>
				<clipPath id="SVGID_6_">
					<use xlink:href="#SVGID_5_"  style="overflow:visible;"/>
				</clipPath>
				<path class="st6" d="M183.8-0.4L183.8-0.4 M183.8,32.6v-7.9 M183.8,131.5v-7.9 M177.9,24.4v-7.9 M177.9,52.4v-3 M177.9,123.3
					v-0.7 M172.1,16.2V8.3 M172.1,49.1v-7.9 M172.1,82.1v-7.9 M172.1,115.1v-7.9 M166.2,7.9V0 M166.2,40.9V33 M166.2,73.8v-7.9
					 M166.2,106.8v-7.9 M166.2,137.7v-5.8 M160.4-0.4L160.4-0.4 M160.4,32.6v-7.9 M160.4,65.6v-7.9 M160.4,98.6v-7.9 M160.4,131.5
					v-7.9 M154.5,24.4v-7.9 M154.5,57.4v-7.9 M154.5,90.3v-7.9 M154.5,123.3v-7.9 M148.7,16.2V8.3 M148.7,49.1v-7.9 M148.7,82.1
					v-7.9 M148.7,115.1v-7.9 M142.9,7.9V0 M142.9,40.9V33 M142.9,73.8v-7.9 M142.9,106.8v-7.9 M142.9,137.6v-5.7 M137-0.4v-0.2
					 M137,32.6v-7.9 M137,65.6v-7.9 M137,98.6v-7.9 M137,131.5v-7.9 M131.2,24.4v-7.9 M131.2,57.4v-7.9 M131.2,90.3v-7.9
					 M131.2,123.3v-7.9 M125.3,16.2V8.3 M125.3,49.1v-7.9 M125.3,82.1v-7.9 M125.3,115.1v-7.9 M119.5,7.9V0 M119.5,40.9V33
					 M119.5,73.8v-7.9 M119.5,106.8v-7.9 M119.5,137.6v-5.7 M113.7-0.4v-0.3 M113.7,32.6v-7.9 M113.7,65.6v-7.9 M113.7,98.6v-7.9
					 M113.7,131.5v-7.9 M412.4,32.1v-7.2 M412.4,65.1v-7.2 M412.4,98.1v-7.2 M412.4,131v-7.2 M406.6,23.9v-7.2 M406.6,56.8v-7.2
					 M406.6,89.8v-7.2 M406.6,122.8v-7.2 M400.8,15.6V8.4 M400.8,48.6v-7.2 M400.8,81.6v-7.2 M400.8,114.5v-7.2 M394.9,7.4V0.2
					 M394.9,40.4v-7.2 M394.9,73.3v-7.2 M394.9,106.3v-7.2 M394.9,138.4v-6.3 M389.1,32.1v-7.2 M389.1,65.1v-7.2 M389.1,98.1v-7.2
					 M389.1,131v-7.2 M383.3,23.9v-7.2 M383.3,56.8v-7.2 M383.3,89.8v-7.2 M383.3,122.8v-7.2 M377.4,15.6V8.4 M377.4,48.6v-7.2
					 M377.4,81.6v-7.2 M377.4,114.5v-7.2 M371.6,7.4V0.2 M371.6,40.4v-7.2 M371.6,138.3V132 M365.7,32.1v-7.2 M365.7,131v-7.2
					 M359.9,23.9v-7.2 M359.9,52.7v-3.1 M359.9,122.8v-0.2 M354,15.6V8.4 M354,48.6v-7.2 M348.2,7.4V0.2 M348.2,40.4v-7.2
					 M348.2,138.3v-6.2 M342.4,32.1v-7.2 M342.4,131v-7.2 M336.6,23.9v-7.2 M336.6,52.6v-3 M336.6,122.8v-0.2 M330.7,15.6V8.4
					 M330.7,48.6v-7.2 M324.9,7.4V0.2 M324.9,40.4v-7.2 M324.9,138.2v-6.1 M319,32.1v-7.2 M319,131v-7.2 M313.2,23.9v-7.2
					 M313.2,52.6v-3 M313.2,122.8v-0.2 M307.4,15.6V8.4 M307.4,48.6v-7.2 M301.5,7.4V0.2 M301.5,40.4v-7.2 M301.5,138.1v-6
					 M295.7,32.1v-7.2 M295.7,131v-7.2 M289.8,23.9v-7.2 M289.8,52.6v-3 M289.8,122.8v-0.2 M284,15.6V8.4 M284,48.6v-7.2 M278.1,7.4
					V0.2 M278.1,40.4v-7.2 M278.1,138v-6 M272.3,32.1v-7.2 M272.3,131v-7.2 M266.5,23.9v-7.2 M266.5,52.6v-3 M266.5,122.8v-0.2
					 M260.7,15.6V8.4 M260.7,48.6v-7.2 M254.8,7.4V0.2 M254.8,40.4v-7.2 M254.8,138v-5.9 M249,32.1v-7.2 M249,131v-7.2 M243.1,23.9
					v-7.2 M243.1,52.6v-3 M243.1,122.8v-0.2 M237.3,15.6V8.4 M237.3,48.6v-7.2 M231.4,7.4V0.2 M231.4,40.4v-7.2 M231.4,137.9v-5.8
					 M225.6,32.1v-7.2 M225.6,131v-7.2 M219.8,23.9v-7.2 M219.8,52.5v-2.9 M219.8,122.8v-0.2 M214,15.6V8.4 M214,48.6v-7.2
					 M208.1,7.4V0.2 M208.1,40.4v-7.2 M208.1,137.9v-5.8 M202.3,32.1v-7.2 M202.3,131v-7.2 M196.4,23.9v-7.2 M196.4,52.5v-2.9
					 M196.4,122.8v-0.2 M190.6,15.6V8.4 M190.6,48.6v-7.2 M184.8,7.4V0.2 M184.8,40.4v-7.2 M184.8,137.7V132 M178.9,32.1v-7.2
					 M178.9,131v-7.2 M173.1,23.9v-7.2 M173.1,52.4v-2.8 M173.1,122.8v-0.2 M167.2,15.6V8.4 M167.2,48.6v-7.2 M167.2,81.6v-7.2
					 M167.2,114.5v-7.2 M161.4,7.4V0.2 M161.4,40.4v-7.2 M161.4,73.3v-7.2 M161.4,106.3v-7.2 M161.4,137.7v-5.6 M155.5,32.1v-7.2
					 M155.5,65.1v-7.2 M155.5,98.1v-7.2 M155.5,131v-7.2 M149.8,23.9v-7.2 M149.8,56.8v-7.2 M149.8,89.8v-7.2 M149.8,122.8v-7.2
					 M143.9,15.6V8.4 M143.9,48.6v-7.2 M143.9,81.6v-7.2 M143.9,114.5v-7.2 M138.1,7.4V0.2 M138.1,40.4v-7.2 M138.1,73.3v-7.2
					 M138.1,106.3v-7.2 M138.1,137.6v-5.5 M132.2,32.1v-7.2"/>
			</g>
		</g>
	</g>
	<g>
		<g>
			<g>
				<defs>
					<rect id="SVGID_7_" x="-825.8" y="-0.8" width="1796.7" height="400.7"/>
				</defs>
				<clipPath id="SVGID_8_">
					<use xlink:href="#SVGID_7_"  style="overflow:visible;"/>
				</clipPath>
				<path class="st7" d="M267.5,49.1v-7.9 M261.7,7.9V0 M261.7,40.9V33 M261.7,138v-6.1 M255.8,32.6v-7.9 M255.8,131.5v-7.9
					 M250,24.4v-7.9 M250,52.6v-3.1 M250,123.3v-0.7 M244.2,16.2V8.3 M244.2,49.1v-7.9 M238.3,7.9V0 M238.3,40.9V33 M238.3,137.9v-6
					 M232.5,32.6v-7.9 M232.5,131.5v-7.9 M226.7,24.4v-7.9 M226.7,52.5v-3 M226.7,123.3v-0.7 M220.8,16.2V8.3 M220.8,49.1v-7.9
					 M215,7.9V0 M215,40.9V33 M215,137.9v-6 M209.1,32.6v-7.9 M209.1,131.5v-7.9 M203.3,24.4v-7.9 M203.3,52.5v-3 M203.3,123.3v-0.7
					 M197.4,16.2V8.3 M197.4,49.1v-7.9 M191.7,7.9V0 M191.7,40.9V33 M191.7,137.8v-5.9 M185.8-0.4L185.8-0.4 M185.8,32.6v-7.9
					 M185.8,131.5v-7.9 M180,24.4v-7.9 M180,52.4v-3 M180,123.3v-0.7 M174.1,16.2V8.3 M174.1,49.1v-7.9 M168.3,7.9V0 M168.3,40.9V33
					 M168.3,73.8v-7.9 M168.3,106.8v-7.9 M168.3,137.7v-5.8 M162.4-0.4L162.4-0.4 M162.4,32.6v-7.9 M162.4,65.6v-7.9 M162.4,98.6
					v-7.9 M162.4,131.5v-7.9 M156.6,24.4v-7.9 M156.6,57.4v-7.9 M156.6,90.3v-7.9 M156.6,123.3v-7.9 M150.8,16.2V8.3 M150.8,49.1
					v-7.9 M150.8,82.1v-7.9 M150.8,115.1v-7.9 M144.9,7.9V0 M144.9,40.9V33 M144.9,73.8v-7.9 M144.9,106.8v-7.9 M144.9,137.6v-5.7
					 M139.1-0.4v-0.2 M139.1,32.6v-7.9 M139.1,65.6v-7.9 M139.1,98.6v-7.9 M139.1,131.5v-7.9 M133.2,24.4v-7.9 M133.2,57.4v-7.9
					 M133.2,90.3v-7.9 M133.2,123.3v-7.9 M127.4,16.2V8.3 M127.4,49.1v-7.9 M127.4,82.1v-7.9 M127.4,115.1v-7.9 M121.5,7.9V0
					 M121.5,40.9V33 M121.5,73.8v-7.9 M121.5,106.8v-7.9 M121.5,137.6v-5.7 M115.8-0.4v-0.3 M115.8,32.6v-7.9 M115.8,65.6v-7.9
					 M115.8,98.6v-7.9 M115.8,131.5v-7.9 M411.4,24.4v-7.9 M411.4,57.4v-7.9 M411.4,90.3v-7.9 M411.4,123.3v-7.9 M405.6,16.2V8.3
					 M405.6,49.1v-7.9 M405.6,82.1v-7.9 M405.6,115.1v-7.9 M399.7,7.9V0.2 M399.7,40.9V33 M399.7,73.8v-7.9 M399.7,106.8v-7.9
					 M399.7,138.4v-6.5 M393.9,32.6v-7.9 M393.9,65.6v-7.9 M393.9,98.6v-7.9 M393.9,131.5v-7.9 M388,24.4v-7.9 M388,57.4v-7.9
					 M388,90.3v-7.9 M388,123.3v-7.9 M382.2,16.2V8.3 M382.2,49.1v-7.9 M382.2,82.1v-7.9 M382.2,115.1v-7.9 M376.4,7.9V0.1
					 M376.4,40.9V33 M376.4,73.8v-7.9 M376.4,106.8v-7.9 M376.4,138.3v-6.5 M370.6,32.6v-7.9 M370.6,131.5v-7.9 M364.7,24.4v-7.9
					 M364.7,52.7v-3.2 M364.7,123.3v-0.7 M358.9,16.2V8.3 M358.9,49.1v-7.9 M353,7.9V0.1 M353,40.9V33 M353,138.3v-6.4 M347.2,32.6
					v-7.9 M347.2,131.5v-7.9 M341.4,24.4v-7.9 M341.4,52.6v-3.1 M341.4,123.3v-0.7 M335.5,16.2V8.3 M335.5,49.1v-7.9 M329.7,7.9V0
					 M329.7,40.9V33 M329.7,138.2v-6.3 M323.8,32.6v-7.9 M323.8,131.5v-7.9 M318,24.4v-7.9 M318,52.6v-3.1 M318,123.3v-0.7
					 M312.1,16.2V8.3 M312.1,49.1v-7.9 M306.3,7.9V0 M306.3,40.9V33 M306.3,138.1v-6.2 M300.5,32.6v-7.9 M300.5,131.5v-7.9
					 M294.7,24.4v-7.9 M294.7,52.6v-3.1 M294.7,123.3v-0.7 M288.8,16.2V8.3 M288.8,49.1v-7.9 M283,7.9V0 M283,40.9V33 M283,138v-6.1
					 M277.1,32.6v-7.9 M277.1,131.5v-7.9 M271.3,24.4v-7.9 M271.3,52.6v-3.1 M271.3,123.3v-0.7 M265.4,16.2V8.3 M265.4,49.1v-7.9
					 M259.6,7.9V0 M259.6,40.9V33 M259.6,138v-6.1 M253.8,32.6v-7.9 M253.8,131.5v-7.9 M247.9,24.4v-7.9 M247.9,52.6v-3.1
					 M247.9,123.3v-0.7 M242.1,16.2V8.3 M242.1,49.1v-7.9 M236.3,7.9V0 M236.3,40.9V33 M236.3,137.9v-6 M230.4,32.6v-7.9
					 M230.4,131.5v-7.9 M224.6,24.4v-7.9 M224.6,52.5v-3 M224.6,123.3v-0.7 M218.8,16.2V8.3 M218.8,49.1v-7.9 M212.9,7.9V0
					 M212.9,40.9V33 M212.9,137.9v-6 M207.1,32.6v-7.9 M207.1,131.5v-7.9 M201.2,24.4v-7.9 M201.2,52.5v-3 M201.2,123.3v-0.7
					 M195.4,16.2V8.3 M195.4,49.1v-7.9 M189.5,7.9V0 M189.5,40.9V33 M189.5,137.8v-5.9"/>
			</g>
		</g>
	</g>
</g>
<path class="st4" d="M349.6,52.6v-3.3 M349.6,122.8v-0.2 M343.7,15.6V8.1 M343.7,48.6V41 M337.9,7.4V0 M337.9,40.4v-7.6
	 M337.9,138.2v-6.5 M332.1,32.1v-7.6 M332.1,131v-7.6 M326.2,23.9v-7.5 M326.2,52.6v-3.3 M326.2,122.8v-0.2 M320.4,15.6V8.1
	 M320.4,48.6V41 M314.6,7.4v-7.5 M314.6,40.4v-7.6 M314.6,138.2v-6.4 M308.7,32.1v-7.6 M308.7,131v-7.6 M302.9,23.9v-7.5
	 M302.9,52.6v-3.3 M302.9,122.8v-0.2 M297.1,15.6V8.1 M297.1,48.6V41 M291.2,7.4v-7.5 M291.2,40.4v-7.6 M291.2,138.1v-6.4
	 M285.4,32.1v-7.6 M285.4,131v-7.6 M279.5,23.9v-7.5 M279.5,52.6v-3.3 M279.5,122.8v-0.2 M273.7,15.6V8.1 M273.7,48.6V41 M267.8,7.4
	v-7.6 M267.8,40.4v-7.6 M267.8,138v-6.3 M262.1,32.1v-7.6 M262.1,131v-7.6 M256.2,23.9v-7.5 M256.2,52.6v-3.3 M256.2,122.8v-0.2
	 M250.4,15.6V8.1 M250.4,48.6V41 M244.5,7.4v-7.6 M244.5,40.4v-7.6 M244.5,137.9v-6.2 M238.7,32.1v-7.6 M238.7,131v-7.6 M232.8,23.9
	v-7.5 M232.8,52.5v-3.2 M232.8,122.8v-0.2 M227,15.6V8.1 M227,48.6V41 M221.2,7.4v-7.6 M221.2,40.4v-7.6 M221.2,137.9v-6.1
	 M215.3,32.1v-7.6 M215.3,131v-7.6 M209.5,23.9v-7.5 M209.5,52.5v-3.2 M209.5,122.8v-0.2 M203.6,15.6V8.1 M203.6,48.6V41 M197.8,7.4
	v-7.6 M197.8,40.4v-7.6 M197.8,137.8v-6.1 M192,32.1v-7.6 M192,131v-7.6 M186.1,23.9v-7.5 M186.1,52.5v-3.2 M186.1,122.8v-0.2
	 M180.3,15.6V8.1 M180.3,48.6V41 M174.5,7.4v-7.6 M174.5,40.4v-7.6 M174.5,137.7v-6 M168.6,32.1v-7.6 M168.6,65.1v-7.6 M168.6,98.1
	v-7.6 M168.6,131v-7.6 M162.8,23.9v-7.5 M162.8,56.8v-7.5 M162.8,89.8v-7.5 M162.8,122.8v-7.6 M156.9,15.6V8.1 M156.9,48.6V41
	 M156.9,81.6V74 M156.9,114.5V107 M151.1,7.4v-7.6 M151.1,40.4v-7.6 M151.1,73.3v-7.5 M151.1,106.3v-7.5 M151.1,137.7v-6
	 M145.3,32.1v-7.6 M145.3,65.1v-7.6 M145.3,98.1v-7.6 M145.3,131v-7.6 M139.5,23.9v-7.5 M139.5,56.8v-7.5 M139.5,89.8v-7.5
	 M139.5,122.8v-7.6 M133.6,15.6V8.1 M133.6,48.6V41 M133.6,81.6V74 M133.6,114.5V107 M127.8,7.4v-7.6 M127.8,40.4v-7.6 M127.8,73.3
	v-7.5 M127.8,106.3v-7.5 M127.8,137.6v-5.9 M121.9,32.1v-7.6 M121.9,65.1v-7.6 M121.9,98.1v-7.6 M121.9,131v-7.6 M116.1,23.9v-7.5
	 M116.1,56.8v-7.5 M116.1,89.8v-7.5 M116.1,122.8v-7.6 M110.2,15.6V8.1 M110.2,48.6V41 M110.2,81.6V74 M110.2,114.5V107 M413.5,24.4
	v-7.9 M413.5,57.4v-7.9 M413.5,90.3v-7.9 M413.5,123.3v-7.9 M407.6,16.2V8.3 M407.6,49.1v-7.9 M407.6,82.1v-7.9 M407.6,115.1v-7.9
	 M401.8,7.9V0.2 M401.8,40.9V33 M401.8,73.8v-7.9 M401.8,106.8v-7.9 M401.8,138.4v-6.5 M395.9,32.6v-7.9 M395.9,65.6v-7.9
	 M395.9,98.6v-7.9 M395.9,131.5v-7.9 M390.1,24.4v-7.9 M390.1,57.4v-7.9 M390.1,90.3v-7.9 M390.1,123.3v-7.9 M384.3,16.2V8.3
	 M384.3,49.1v-7.9 M384.3,82.1v-7.9 M384.3,115.1v-7.9 M378.4,7.9V0.1 M378.4,40.9V33 M378.4,73.8v-7.9 M378.4,106.8v-7.9
	 M378.4,138.3v-6.4 M372.6,32.6v-7.9 M372.6,98.6v-7.9 M372.6,131.5v-7.9 M366.8,24.4v-7.9 M366.8,52.7v-3.2 M366.8,123.3v-0.7
	 M360.9,16.2V8.3 M360.9,49.1v-7.9 M355.1,7.9V0.1 M355.1,40.9V33 M355.1,138.3v-6.4 M349.3,32.6v-7.9 M349.3,131.5v-7.9
	 M343.4,24.4v-7.9 M343.4,52.6v-3.1 M343.4,123.3v-0.7 M337.6,16.2V8.3 M337.6,49.1v-7.9 M331.7,7.9V0 M331.7,40.9V33 M331.7,138.2
	v-6.3 M325.9,32.6v-7.9 M325.9,131.5v-7.9 M320,24.4v-7.9 M320,52.6v-3.1 M320,123.3v-0.7 M314.2,16.2V8.3 M314.2,49.1v-7.9
	 M308.4,7.9V0 M308.4,40.9V33 M308.4,138.2v-6.3 M302.6,32.6v-7.9 M302.6,131.5v-7.9 M296.7,24.4v-7.9 M296.7,52.6v-3.1
	 M296.7,123.3v-0.7 M290.9,16.2V8.3 M290.9,49.1v-7.9 M285,7.9V0 M285,40.9V33 M285,138v-6.1 M279.2,32.6v-7.9 M279.2,131.5v-7.9
	 M273.4,24.4v-7.9 M273.4,52.6v-3.1 M273.4,123.3v-0.7 M267.5,16.2V8.3"/>
<path class="st4" d="M413.8,15.6V8.1 M413.8,48.6V41 M413.8,81.6V74 M413.8,114.5V107 M408,7.4V0.2 M408,40.4v-7.6 M408,73.3v-7.5
	 M408,106.3v-7.5 M408,138.4v-6.7 M402.1,32.1v-7.6 M402.1,65.1v-7.6 M402.1,98.1v-7.6 M402.1,131v-7.6 M396.3,23.9v-7.5
	 M396.3,56.8v-7.5 M396.3,89.8v-7.5 M396.3,122.8v-7.6 M390.4,15.6V8.1 M390.4,48.6V41 M390.4,81.6V74 M390.4,114.5V107 M384.6,7.4
	V0.2 M384.6,40.4v-7.6 M384.6,73.3v-7.5 M384.6,106.3v-7.5 M384.6,138.3v-6.6 M378.8,32.1v-7.6 M378.8,65.1v-7.6 M378.8,98.1v-7.6
	 M378.8,131v-7.6 M373,23.9v-7.5 M373,52.7v-3.4 M373,89.8v-7.5 M373,122.8v-7.6 M367.1,15.6V8.1 M367.1,48.6V41 M361.3,7.4V0.1
	 M361.3,40.4v-7.6 M361.3,138.3v-6.6 M355.4,32.1v-7.6 M355.4,131v-7.6 M349.6,23.9v-7.5"/>
<line class="st0" x1="416.2" y1="137.6" x2="110.2" y2="137.6"/>
<polyline class="st1" points="326.1,230.5 326.1,177.3 360.7,177.3 360.7,230.5 "/>
<rect x="327.6" y="178.8" class="st4" width="31.6" height="50.2"/>
<path class="st1" d="M250.3,230.5v-53.2h32.5v53.2 M320,170.9h46.8 M320,171.2h46.8 M323.1,230.5v-56.2h40.7v56.2"/>
<rect x="251.8" y="178.8" class="st4" width="29.5" height="50.2"/>
<g>
	<g>
		<g>
			<g>
				<defs>
					<rect id="SVGID_9_" x="-825.8" y="-0.8" width="1796.7" height="400.7"/>
				</defs>
				<clipPath id="SVGID_10_">
					<use xlink:href="#SVGID_9_"  style="overflow:visible;"/>
				</clipPath>
				<path class="st8" d="M370,233.6v-3.1h-53.2v3.1 M370,233.6h-53.2 M293.2,233.6v-3.1H240v3.1 M293.2,233.6H240 M156.8,230.4v3
					 M209.9,230.4v3 M159.8,171.2v-0.3 M206.8,171.2v-0.3 M244.2,171.2v-0.3 M288.9,171.2v-0.3 M366.8,171.2v-0.3 M320,171.2v-0.3
					 M206.8,171.3c-1.3,0.6-2.4,1.7-3,3 M203.8,174.3c-1.3,0.6-2.4,1.7-3,3 M285.8,174.3c-1.3,0.6-2.4,1.7-3,3 M288.9,171.3
					c-1.3,0.6-2.4,1.7-3,3 M363.7,174.3c-1.3,0.6-2.4,1.7-3,3 M366.8,171.3c-1.3,0.6-2.4,1.7-3,3 M326,177.3c-0.6-1.3-1.7-2.4-3-3
					 M323,174.3c-0.6-1.3-1.7-2.4-3-3 M250.3,177.3c-0.6-1.3-1.7-2.4-3-3 M247.2,174.3c-0.6-1.3-1.7-2.4-3-3 M165.8,177.3
					c-0.6-1.3-1.7-2.4-3-3 M162.8,174.3c-0.6-1.3-1.7-2.4-3-3 M159.8,170.9h47.1 M159.8,171.2h47.1 M209.9,230.4h-53.2 M209.9,233.5
					h-53.2 M162.8,230.4v-56.1h41v56.1 M165.9,230.4v-53.1h34.9v53.1 M244.2,170.9h44.7 M244.2,171.2h44.7 M247.3,230.5v-56.2h38.6
					v56.2"/>
			</g>
		</g>
	</g>
	<g>
		<g>
			<g>
				<defs>
					<rect id="SVGID_11_" x="-825.8" y="-0.8" width="1796.7" height="400.7"/>
				</defs>
				<clipPath id="SVGID_12_">
					<use xlink:href="#SVGID_11_"  style="overflow:visible;"/>
				</clipPath>
				<path class="st9" d="M416.2,139.5V-0.1 M110.2,137.6V-0.1"/>
			</g>
		</g>
	</g>
</g>
<line class="st2" x1="110.2" y1="137.6" x2="110.2" y2="139.5"/>
<g>
	<g>
		<g>
			<g>
				<defs>
					<rect id="SVGID_13_" x="-825.8" y="-0.8" width="1796.7" height="400.7"/>
				</defs>
				<clipPath id="SVGID_14_">
					<use xlink:href="#SVGID_13_"  style="overflow:visible;"/>
				</clipPath>
				<path class="st10" d="M405.5,139.5h10.7 M110.2-0.1h306.1"/>
			</g>
		</g>
	</g>
</g>
<path class="st1" d="M283.1,88h54.7v33.2h-54.7V88z M281.6,86.5h57.7v36.3h-57.7V86.5z M215.6,88h54.7v33.2h-54.7L215.6,88L215.6,88
	z M214.1,86.5h57.7v36.3h-57.7L214.1,86.5L214.1,86.5z M172.3,84.8l-0.2-32.1 M372.3,52.4l-0.2,32.4v37.9 M172.3,84.8v37.9
	 M172.1,52.7l200.2-0.3 M172.3,84.8h199.8 M172.3,86.4h199.8 M172.3,122.7h199.8"/>
<rect x="182.1" y="333.4" class="st4" width="1" height="6"/>
<path class="st1" d="M219.8,295.8h6v0.3h-6V295.8z M126.5,268.5h-5.6l-18.6,16.2h18.6h5.6V268.5z"/>
<g>
	<g>
		<g>
			<g>
				<defs>
					<rect id="SVGID_15_" x="-825.8" y="-0.8" width="1796.7" height="400.7"/>
				</defs>
				<clipPath id="SVGID_16_">
					<use xlink:href="#SVGID_15_"  style="overflow:visible;"/>
				</clipPath>
				<path class="st11" d="M296.1,263v-0.6 M296,263c-1.3,0.6-2.4,1.7-3,3 M296.1,262.4h-56.2 M245.8,269.1v85.7 M239.8,263v-0.6
					 M242.8,266c-0.6-1.3-1.7-2.4-3-3 M239.8,263H296 M245.8,269.1h44.1 M251.4,269.1h15.2 M251.4,326.8v17.6 M251.4,269.1v80.8"/>
			</g>
		</g>
	</g>
	<g>
		<g>
			<g>
				<defs>
					<rect id="SVGID_17_" x="-825.8" y="-0.8" width="1796.7" height="400.7"/>
				</defs>
				<clipPath id="SVGID_18_">
					<use xlink:href="#SVGID_17_"  style="overflow:visible;"/>
				</clipPath>
				<path class="st12" d="M416.2,137.6h2.8v1.9h-2.8 M403.3,330.1h2.1v0.3h-2.1 M403.3,330.1v0.3 M403.3,297.6h2.1v0.3h-2.1
					 M403.3,297.6v0.3 M403.3,259.6h2.1v0.3h-2.1 M403.3,259.6v0.3 M403.3,224.4h2.1v0.3h-2.1 M403.3,224.4v0.3 M403.3,194.1h2.1
					v0.3h-2.1 M403.3,194.1v0.3 M408.8,155.5l0.8,2 M408.5,155.6l0.8,2 M403.3,160.3h2.1v0.3h-2.1 M405.1,330.4v48.9 M405.1,297.9
					v32.2 M405.1,259.9v37.8 M405.1,224.7v34.8 M405.1,194.4v30 M405.1,160.6v33.5 M405.1,157.8v2.5 M403.3,160.3v0.3 M403.6,330.4
					v48.8 M403.6,297.9v32.2 M403.6,259.9v37.8 M403.6,224.7v34.8 M403.6,194.4v30 M403.6,160.6v33.5 M405.5,156.3h-1.9v4
					 M414.9,150l2,0.7 M414.8,150.3l2,0.7 M416.8,151c0-0.1,0.1-0.2,0.1-0.3 M409.3,157.5c0.1,0,0.2-0.1,0.3-0.1 M416.5,150.6
					c0.7-3.7,1.1-7.4,1.1-11.1 M409.4,157.1c3.1-1.1,5.6-3.3,7-6.2 M405.1,157.7c1.4,0,2.7-0.1,4.1-0.6 M414.8,150.3
					c0-0.1,0.1-0.2,0.1-0.3 M415.2,150.1c0.7-3.5,1-7.1,1-10.6 M414.8,150.3C414.8,150.3,414.8,150.2,414.8,150.3 M408.5,155.5
					c0.1,0,0.2-0.1,0.3-0.1 M408.9,155.7c2.7-0.9,4.9-2.8,6.2-5.4 M405.5,156.3c1.1,0,2.1-0.2,3.1-0.5"/>
			</g>
		</g>
	</g>
</g>
<path class="st1" d="M325,323.8h36.9 M251.4,344.4h33.1"/>
<path class="st0" d="M381.8,349.9v-27.3 M381,349.9V378"/>
<line class="st1" x1="251.4" y1="344.4" x2="251.4" y2="349.9"/>
<path class="st0" d="M381.2,322.6H248 M383.4,349.8H248"/>
<line class="st4" x1="285.1" y1="344.4" x2="403.3" y2="344.4"/>
<rect x="137" y="266.7" class="st0" width="3" height="19.8"/>
<path class="st1" d="M361.9,178.5h17.5v51.6h-17.5V178.5z M324.9,178.5h-17.4v51.6h17.4V178.5z M285,178.8h17.5v51.6H285V178.8z
	 M248.1,178.8h-17.5v51.6h17.5V178.8z M201.8,178.8h17.5v51.6h-17.5V178.8z M164.8,178.8h-17.5v51.6h17.5V178.8z"/>
<rect x="226" y="245" class="st0" width="1.9" height="6.1"/>
<path class="st1" d="M359.8,270.6h17.5v49.5h-17.5V270.6z M327,270.6h-17.5v49.5H327V270.6z"/>
<path class="st0" d="M137.5,251.1h1.9V245h-1.9V251.1z M380.9,251.1h2V245h-2V251.1z M304,251.1h2V245h-2V251.1z"/>
<path class="st4" d="M183.8,214h15.5 M167.2,214h15.3 M183.8,215.2h15.5 M167.2,215.2h15.3 M183.8,195.6h15.5 M167.2,195.6h15.3
	 M183.8,196.8h15.5 M167.2,196.8h15.3 M183.8,215.2V229 M183.8,196.8V214 M183.8,194.3v1.3 M183.8,215.2V229 M183.8,196.8V214
	 M183.8,178.8v16.8 M182.5,215.2V229 M182.5,196.8V214 M182.5,194.3v1.3 M182.5,215.2V229 M182.5,196.8V214 M182.5,178.8v16.8
	 M167.2,178.8h32V229h-32V178.8z"/>
<path class="st0" d="M218.4,366.7h6.9 M228.3,364.5V339l19.7-16.4"/>
<path class="st1" d="M220.6,370.6h9.1v-1.2h-9.1V370.6z M227.3,365.7h9.2v-1.2h-9.2V365.7z M234,360.9h9.1v-1.3H234V360.9z
	 M240.7,356h9.7v-1.2h-9.7V356z M250.4,351.1v3.7 M249.2,351.1v3.7 M248,351.1h8.5v-1.2H248V351.1z M218.4,366.8v5.4 M225.2,326.8
	v17.6"/>
<g>
	<g>
		<g>
			<g>
				<defs>
					<rect id="SVGID_19_" x="-825.8" y="-0.8" width="1796.7" height="400.7"/>
				</defs>
				<clipPath id="SVGID_20_">
					<use xlink:href="#SVGID_19_"  style="overflow:visible;"/>
				</clipPath>
				<line class="st13" x1="53" y1="367.6" x2="970.2" y2="399.2"/>
			</g>
		</g>
	</g>
</g>
<rect x="256.5" y="349.9" class="st1" width="126.9" height="1.2"/>
<polyline class="st1" points="222.4,372.2 218.4,372.2 218.4,367 218.4,366.8 "/>
<line class="st14" x1="219.7" y1="364.3" x2="157.4" y2="364.3"/>
<path class="st1" d="M290,269.1v80.8 M284.5,269.1v80.8"/>
<line class="st14" x1="242.8" y1="266.1" x2="293" y2="266.1"/>
<g>
	<g>
		<g>
			<g>
				<defs>
					<rect id="SVGID_21_" x="-825.8" y="-0.8" width="1796.7" height="400.7"/>
				</defs>
				<clipPath id="SVGID_22_">
					<use xlink:href="#SVGID_21_"  style="overflow:visible;"/>
				</clipPath>
				<path class="st15" d="M223,370.6v3.6 M221.8,370.6v3.6 M229.7,365.7v3.7 M228.5,365.7v3.7 M236.4,360.9v3.6 M235.2,360.9v3.6
					 M243.1,356v3.6 M241.9,356v3.6 M293,266c-1.3,0.6-2.4,1.7-3,3 M245.8,269.1c-0.6-1.3-1.7-2.4-3-3"/>
			</g>
		</g>
	</g>
</g>
<line class="st0" x1="120.9" y1="139.5" x2="120.9" y2="268.5"/>
<line class="st1" x1="120.9" y1="284.7" x2="120.9" y2="368.8"/>
<path class="st0" d="M405.5,157.8l-0.4,221.5 M405.5,139.5v16.8 M114.9,284.7v84.1"/>
<path class="st1" d="M218.4,366.7v2.8 M219.7,301v65.7 M225.8,295.8v0.3"/>
<line class="st2" x1="120.9" y1="368.8" x2="114.9" y2="368.8"/>
<g>
	<g>
		<g>
			<g>
				<defs>
					<rect id="SVGID_23_" x="-825.8" y="-0.8" width="1796.7" height="400.7"/>
				</defs>
				<clipPath id="SVGID_24_">
					<use xlink:href="#SVGID_23_"  style="overflow:visible;"/>
				</clipPath>
				<path class="st16" d="M328,269.1h30.8v51.1H328V269.1z M190.5,297.5v73 M190.5,294.5L190.5,294.5 M184.4,297.5v73 M184.4,294.5
					L184.4,294.5 M187.4,294.5v76.1 M184.9,294.5v-8.3 M191,294.5v-8.3 M149.5,296.1v74.4 M153.6,296.1v74.4 M149.4,296.1
					c-0.9-1.5-2-2.9-3.3-4.1 M156.7,292c-1.2,1.2-2.3,2.6-3.3,4.1 M154.5,296.1h-6.1 M154.5,295.8h-6.1 M191,286.3h-6.1
					 M184.9,290.4l-6,0.2l-6,0.5l-6,0.7l-5.9,0.9l-5.9,1.2 M218.8,293.5l-5.5-1l-5.5-0.8l-5.6-0.6l-5.6-0.4l-5.6-0.2 M149,295.4
					l-0.5,0.1 M184.4,297.5l-5.4,0.2l-5.4,0.4l-5.4,0.7l-5.3,0.8l-5.3,1 M219.7,301l-5.8-1.1l-5.8-0.9l-5.8-0.7l-5.9-0.4l-5.8-0.2
					 M220.6,298.1l-6-1.2l-6-1l-6.1-0.7l-6.1-0.5l-6.1-0.2h-6.1l-6.1,0.3l-6.1,0.5l-6.1,0.8l-6,1l-6,1.3 M156.8,292h-10.6
					 M157.6,300.7v69.9 M154.5,298.2v72.3 M154.5,295.8v0.3 M148.4,295.5v75 M148.4,295.8v0.3 M225.2,296.1v70.5 M220.6,296.1v70.5
					 M228.1,292c-1.2,1.2-2.3,2.6-3.3,4.1 M220.8,296.1c-0.9-1.5-2-2.9-3.3-4.1 M217.5,292h10.6"/>
			</g>
		</g>
	</g>
</g>
<rect x="329.5" y="270.6" class="st4" width="27.8" height="48"/>
<path class="st1" d="M321.9,263h43 M325,323.8v-57.7h36.9v57.7"/>
<path class="st4" d="M342.8,303.1v15.5 M342.8,301.9v-14.5V301.9z M342.8,270.6v15.6 M344,303.1v15.5 M344,301.9v-14.5V301.9z
	 M344,270.6v15.6h13.3 M329.5,286.3h13.3 M344,287.5h13.3 M329.5,287.5h13.3"/>
<g>
	<g>
		<g>
			<g>
				<defs>
					<rect id="SVGID_25_" x="-825.8" y="-0.8" width="1796.7" height="400.7"/>
				</defs>
				<clipPath id="SVGID_26_">
					<use xlink:href="#SVGID_25_"  style="overflow:visible;"/>
				</clipPath>
				<path class="st17" d="M361.9,266c-1.3,0.6-2.4,1.7-3,3 M364.9,263c-1.3,0.6-2.4,1.7-3,3 M328,269.1c-0.6-1.3-1.7-2.4-3-3
					 M325,266c-0.6-1.3-1.7-2.4-3-3 M321.9,263v-0.6h43v0.6"/>
			</g>
		</g>
	</g>
</g>
<line class="st0" x1="405.5" y1="139.5" x2="110.2" y2="139.5"/>
<path class="st4" d="M410.7,40.4h4.2 M401.8,40.4h6.2 M394.9,40.4h4.8 M387.4,40.4h4.1 M378.4,40.4h6.1 M371.6,40.4h4.8 M364,40.4
	h4.1 M355.1,40.4h6.2 M348.2,40.4h4.8 M340.7,40.4h4.2 M331.7,40.4h6.2 M324.9,40.4h4.8 M317.3,40.4h4.1 M308.4,40.4h6.1
	 M301.5,40.4h4.8 M293.9,40.4h4.2 M285,40.4h6.2 M278.1,40.4h4.8 M270.6,40.4h4.1 M261.7,40.4h6.1 M254.8,40.4h4.8 M247.3,40.4h4.1
	 M238.3,40.4h6.2 M231.4,40.4h4.8 M223.9,40.4h4.2 M215,40.4h6.2 M208.1,40.4h4.8 M200.6,40.4h4.1 M191.7,40.4h6.1 M184.8,40.4h4.8
	 M177.2,40.4h4.2 M168.3,40.4h6.2 M161.4,40.4h4.8 M153.9,40.4h4.1 M144.9,40.4h6.1 M138.1,40.4h4.8 M130.5,40.4h4.1 M121.5,40.4
	h6.2 M114.7,40.4h4.8 M110.2,40.4h1.1 M412.4,32.1h3.8 M404.8,32.1h4.2 M395.9,32.1h6.2 M389.1,32.1h4.8 M381.5,32.1h4.1
	 M372.6,32.1h6.2 M365.7,32.1h4.8 M358.2,32.1h4.1 M349.3,32.1h6.1 M342.4,32.1h4.8 M334.8,32.1h4.2 M325.9,32.1h6.2 M319,32.1h4.8
	 M311.5,32.1h4.1 M302.6,32.1h6.1 M295.7,32.1h4.8 M288.1,32.1h4.2 M279.2,32.1h6.2 M272.3,32.1h4.8 M264.8,32.1h4.1 M255.8,32.1
	h6.2 M249,32.1h4.8 M241.4,32.1h4.1 M232.5,32.1h6.1 M225.6,32.1h4.8 M218.1,32.1h4.2 M209.1,32.1h6.2 M202.3,32.1h4.8 M194.7,32.1
	h4.1 M185.8,32.1h6.1 M178.9,32.1h4.8 M171.3,32.1h4.2 M162.4,32.1h6.2 M155.5,32.1h4.8 M148,32.1h4.1 M139.1,32.1h6.2 M132.2,32.1
	h4.8 M124.7,32.1h4.1 M115.8,32.1h6.1 M110.2,32.1h3.5 M413.5,23.9h2.8 M406.6,23.9h4.8 M399.1,23.9h4.1 M390.1,23.9h6.1
	 M383.3,23.9h4.8 M375.7,23.9h4.2 M366.8,23.9h6.2 M359.9,23.9h4.8 M352.3,23.9h4.1 M343.4,23.9h6.1 M336.6,23.9h4.8 M329,23.9h4.2
	 M320,23.9h6.2 M313.2,23.9h4.8 M305.6,23.9h4.1 M296.7,23.9h6.1 M289.8,23.9h4.8 M282.3,23.9h4.1 M273.4,23.9h6.1 M266.5,23.9h4.8
	 M258.9,23.9h4.2 M250,23.9h6.2 M243.1,23.9h4.8 M235.6,23.9h4.1 M226.7,23.9h6.1 M219.8,23.9h4.8 M212.2,23.9h4.2 M203.3,23.9h6.2
	 M196.4,23.9h4.8 M188.9,23.9h4.1 M180,23.9h6.1 M173.1,23.9h4.8 M165.6,23.9h4.1 M156.6,23.9h6.1 M149.8,23.9h4.8 M142.2,23.9h4.2
	 M133.2,23.9h6.2 M126.4,23.9h4.8 M118.8,23.9h4.1 M110.2,23.9h5.9 M407.6,15.6h6.2 M400.8,15.6h4.8 M393.2,15.6h4.1 M384.3,15.6
	h6.1 M377.4,15.6h4.8 M369.8,15.6h4.2 M360.9,15.6h6.2 M354,15.6h4.8 M346.5,15.6h4.1 M337.6,15.6h6.1 M330.7,15.6h4.8 M323.2,15.6
	h4.1 M314.2,15.6h6.2 M307.4,15.6h4.8 M299.8,15.6h4.2 M290.9,15.6h6.2 M284,15.6h4.8 M276.5,15.6h4.1 M267.5,15.6h6.1 M260.7,15.6
	h4.8 M253.1,15.6h4.2 M244.2,15.6h6.2 M237.3,15.6h4.8 M229.7,15.6h4.1 M220.8,15.6h6.1 M214,15.6h4.8 M206.4,15.6h4.1 M197.4,15.6
	h6.2 M190.6,15.6h4.8 M183,15.6h4.2 M174.1,15.6h6.2 M167.2,15.6h4.8 M159.7,15.6h4.1 M150.8,15.6h6.1 M143.9,15.6h4.8 M136.3,15.6
	h4.2 M127.4,15.6h6.2 M120.5,15.6h4.8 M113,15.6h4.1 M110.2,15.6L110.2,15.6 M410.7,7.4h4.2 M401.8,7.4h6.2 M394.9,7.4h4.8
	 M387.4,7.4h4.1 M378.4,7.4h6.1 M371.6,7.4h4.8 M364,7.4h4.1 M355.1,7.4h6.2 M348.2,7.4h4.8 M340.7,7.4h4.2 M331.7,7.4h6.2
	 M324.9,7.4h4.8 M317.3,7.4h4.1 M308.4,7.4h6.1 M301.5,7.4h4.8 M293.9,7.4h4.2 M285,7.4h6.2 M278.1,7.4h4.8 M270.6,7.4h4.1
	 M261.7,7.4h6.1 M254.8,7.4h4.8 M247.3,7.4h4.1 M238.3,7.4h6.2 M231.4,7.4h4.8 M223.9,7.4h4.2 M215,7.4h6.2 M208.1,7.4h4.8
	 M200.6,7.4h4.1 M191.7,7.4h6.1 M184.8,7.4h4.8 M177.2,7.4h4.2 M168.3,7.4h6.2 M161.4,7.4h4.8 M153.9,7.4h4.1 M144.9,7.4h6.1
	 M138.1,7.4h4.8 M130.5,7.4h4.1 M121.5,7.4h6.2 M114.7,7.4h4.8 M110.2,7.4h1.1"/>
<path class="st4" d="M110.2,131h3.5 M413.5,122.8h2.8 M406.6,122.8h4.8 M399.1,122.8h4.1 M390.1,122.8h6.1 M383.3,122.8h4.8
	 M375.7,122.8h4.2 M366.8,122.8h6.2 M359.9,122.8h4.8 M352.3,122.8h4.1 M343.4,122.8h6.1 M336.6,122.8h4.8 M329,122.8h4.2
	 M320,122.8h6.2 M313.2,122.8h4.8 M305.6,122.8h4.1 M296.7,122.8h6.1 M289.8,122.8h4.8 M282.3,122.8h4.1 M273.4,122.8h6.1
	 M266.5,122.8h4.8 M258.9,122.8h4.2 M250,122.8h6.2 M243.1,122.8h4.8 M235.6,122.8h4.1 M226.7,122.8h6.1 M219.8,122.8h4.8
	 M212.2,122.8h4.2 M203.3,122.8h6.2 M196.4,122.8h4.8 M188.9,122.8h4.1 M180,122.8h6.1 M173.1,122.8h4.8 M165.6,122.8h4.1
	 M156.6,122.8h6.1 M149.8,122.8h4.8 M142.2,122.8h4.2 M133.2,122.8h6.2 M126.4,122.8h4.8 M118.8,122.8h4.1 M110.2,122.8h5.9
	 M407.6,114.5h6.2 M400.8,114.5h4.8 M393.2,114.5h4.1 M384.3,114.5h6.1 M377.4,114.5h4.8 M372.1,114.5h1.9 M167.2,114.5h4.8
	 M159.7,114.5h4.1 M150.8,114.5h6.1 M143.9,114.5h4.8 M136.3,114.5h4.2 M127.4,114.5h6.2 M120.5,114.5h4.8 M113,114.5h4.1
	 M110.2,114.5L110.2,114.5 M410.7,106.3h4.2 M401.8,106.3h6.2 M394.9,106.3h4.8 M387.4,106.3h4.1 M378.4,106.3h6.1 M372.1,106.3h4.3
	 M168.3,106.3h4 M161.4,106.3h4.8 M153.9,106.3h4.1 M144.9,106.3h6.1 M138.1,106.3h4.8 M130.5,106.3h4.1 M121.5,106.3h6.2
	 M114.7,106.3h4.8 M110.2,106.3h1.1 M412.4,98.1h3.8 M404.8,98.1h4.2 M395.9,98.1h6.2 M389.1,98.1h4.8 M381.5,98.1h4.1 M372.6,98.1
	h6.2 M171.3,98.1h1 M162.4,98.1h6.2 M155.5,98.1h4.8 M148,98.1h4.1 M139.1,98.1h6.2 M132.2,98.1h4.8 M124.7,98.1h4.1 M115.8,98.1
	h6.1 M110.2,98.1h3.5 M413.5,89.8h2.8 M406.6,89.8h4.8 M399.1,89.8h4.1 M390.1,89.8h6.1 M383.3,89.8h4.8 M375.7,89.8h4.2
	 M372.4,89.8h0.6 M165.6,89.8h4.1 M156.6,89.8h6.1 M149.8,89.8h4.8 M142.2,89.8h4.2 M133.2,89.8h6.2 M126.4,89.8h4.8 M118.8,89.8
	h4.1 M110.2,89.8h5.9 M407.6,81.6h6.2 M400.8,81.6h4.8 M393.2,81.6h4.1 M384.3,81.6h6.1 M377.4,81.6h4.8 M372.7,81.6h1.3
	 M167.2,81.6h4.8 M159.7,81.6h4.1 M150.8,81.6h6.1 M143.9,81.6h4.8 M136.3,81.6h4.2 M127.4,81.6h6.2 M120.5,81.6h4.8 M113,81.6h4.1
	 M110.2,81.6L110.2,81.6 M410.7,73.3h4.2 M401.8,73.3h6.2 M394.9,73.3h4.8 M387.4,73.3h4.1 M378.4,73.3h6.1 M372.9,73.3h3.5
	 M168.3,73.3h4.2 M161.4,73.3h4.8 M153.9,73.3h4.1 M144.9,73.3h6.1 M138.1,73.3h4.8 M130.5,73.3h4.1 M121.5,73.3h6.2 M114.7,73.3
	h4.8 M110.2,73.3h1.1 M412.4,65.1h3.8 M404.8,65.1h4.2 M395.9,65.1h6.2 M389.1,65.1h4.8 M381.5,65.1h4.1 M373.2,65.1h5.6
	 M171.3,65.1h1.2 M162.4,65.1h6.2 M155.5,65.1h4.8 M148,65.1h4.1 M139.1,65.1h6.2 M132.2,65.1h4.8 M124.7,65.1h4.1 M115.8,65.1h6.1
	 M110.2,65.1h3.5 M413.5,56.8h2.8 M406.6,56.8h4.8 M399.1,56.8h4.1 M390.1,56.8h6.1 M383.3,56.8h4.8 M375.7,56.8h4.2 M165.6,56.8
	h4.1 M156.6,56.8h6.1 M149.8,56.8h4.8 M142.2,56.8h4.2 M133.2,56.8h6.2 M126.4,56.8h4.8 M118.8,56.8h4.1 M110.2,56.8h5.9
	 M407.6,48.6h6.2 M400.8,48.6h4.8 M393.2,48.6h4.1 M384.3,48.6h6.1 M377.4,48.6h4.8 M369.8,48.6h4.2 M360.9,48.6h6.2 M354,48.6h4.8
	 M346.5,48.6h4.1 M337.6,48.6h6.1 M330.7,48.6h4.8 M323.2,48.6h4.1 M314.2,48.6h6.2 M307.4,48.6h4.8 M299.8,48.6h4.2 M290.9,48.6
	h6.2 M284,48.6h4.8 M276.5,48.6h4.1 M267.5,48.6h6.1 M260.7,48.6h4.8 M253.1,48.6h4.2 M244.2,48.6h6.2 M237.3,48.6h4.8 M229.7,48.6
	h4.1 M220.8,48.6h6.1 M214,48.6h4.8 M206.4,48.6h4.1 M197.4,48.6h6.2 M190.6,48.6h4.8 M183,48.6h4.2 M174.1,48.6h6.2 M167.2,48.6
	h4.8 M159.7,48.6h4.1 M150.8,48.6h6.1 M143.9,48.6h4.8 M136.3,48.6h4.2 M127.4,48.6h6.2 M120.5,48.6h4.8 M113,48.6h4.1 M110.2,48.6
	L110.2,48.6"/>
<path class="st4" d="M116.1,56.5h2.8 M413.8,48.3h2.4 M397.3,48.3h3.4 M390.4,48.3h2.8 M374,48.3h3.4 M367.1,48.3h2.7 M350.6,48.3
	h3.4 M343.7,48.3h2.8 M327.3,48.3h3.4 M320.4,48.3h2.8 M303.9,48.3h3.4 M297.1,48.3h2.7 M280.6,48.3h3.4 M273.7,48.3h2.8
	 M257.2,48.3h3.4 M250.4,48.3h2.7 M233.8,48.3h3.4 M227,48.3h2.8 M210.5,48.3h3.4 M203.6,48.3h2.8 M187.2,48.3h3.4 M180.3,48.3h2.7
	 M163.8,48.3h3.4 M156.9,48.3h2.8 M140.5,48.3h3.4 M133.6,48.3h2.7 M117.1,48.3h3.4 M110.2,48.3h2.8 M414.9,40h1.4 M408,40h2.7
	 M391.5,40h3.4 M384.6,40h2.8 M368.1,40h3.4 M361.3,40h2.8 M344.8,40h3.4 M337.9,40h2.7 M321.4,40h3.4 M314.6,40h2.8 M298.1,40h3.4
	 M291.2,40h2.7 M274.7,40h3.4 M267.8,40h2.8 M251.4,40h3.4 M244.5,40h2.8 M228.1,40h3.4 M221.2,40h2.7 M204.7,40h3.4 M197.8,40h2.8
	 M181.3,40h3.4 M174.5,40h2.7 M158,40h3.4 M151.1,40h2.8 M134.6,40h3.4 M127.8,40h2.8 M111.2,40h3.4 M409,31.8h3.4 M402.1,31.8h2.7
	 M385.6,31.8h3.4 M378.8,31.8h2.7 M362.3,31.8h3.4 M355.4,31.8h2.8 M339,31.8h3.4 M332.1,31.8h2.7 M315.6,31.8h3.4 M308.7,31.8h2.8
	 M292.3,31.8h3.4 M285.4,31.8h2.7 M268.9,31.8h3.4 M262.1,31.8h2.7 M245.5,31.8h3.4 M238.7,31.8h2.8 M222.2,31.8h3.4 M215.3,31.8
	h2.7 M198.8,31.8h3.4 M192,31.8h2.8 M175.5,31.8h3.4 M168.6,31.8h2.7 M152.1,31.8h3.4 M145.3,31.8h2.7 M128.8,31.8h3.4 M121.9,31.8
	h2.8 M403.2,23.5h3.4 M396.3,23.5h2.8 M379.8,23.5h3.4 M373,23.5h2.7 M356.4,23.5h3.4 M349.6,23.5h2.8 M333.1,23.5h3.4 M326.2,23.5
	h2.7 M309.7,23.5h3.4 M302.9,23.5h2.8 M286.4,23.5h3.4 M279.5,23.5h2.8 M263.1,23.5h3.4 M256.2,23.5h2.7 M239.7,23.5h3.4
	 M232.8,23.5h2.8 M216.4,23.5h3.4 M209.5,23.5h2.7 M193,23.5h3.4 M186.1,23.5h2.8 M169.6,23.5h3.4 M162.8,23.5h2.8 M146.3,23.5h3.4
	 M139.5,23.5h2.7 M122.9,23.5h3.4 M116.1,23.5h2.8 M413.8,15.3h2.4 M397.3,15.3h3.4 M390.4,15.3h2.8 M374,15.3h3.4 M367.1,15.3h2.7
	 M350.6,15.3h3.4 M343.7,15.3h2.8 M327.3,15.3h3.4 M320.4,15.3h2.8 M303.9,15.3h3.4 M297.1,15.3h2.7 M280.6,15.3h3.4 M273.7,15.3
	h2.8 M257.2,15.3h3.4 M250.4,15.3h2.7 M233.8,15.3h3.4 M227,15.3h2.8 M210.5,15.3h3.4 M203.6,15.3h2.8 M187.2,15.3h3.4 M180.3,15.3
	h2.7 M163.8,15.3h3.4 M156.9,15.3h2.8 M140.5,15.3h3.4 M133.6,15.3h2.7 M117.1,15.3h3.4 M110.2,15.3h2.8 M414.9,7.1h1.4 M408,7.1
	h2.7 M391.5,7.1h3.4 M384.6,7.1h2.8 M368.1,7.1h3.4 M361.3,7.1h2.8 M344.8,7.1h3.4 M337.9,7.1h2.7 M321.4,7.1h3.4 M314.6,7.1h2.8
	 M298.1,7.1h3.4 M291.2,7.1h2.7 M274.7,7.1h3.4 M267.8,7.1h2.8 M251.4,7.1h3.4 M244.5,7.1h2.8 M228.1,7.1h3.4 M221.2,7.1h2.7
	 M204.7,7.1h3.4 M197.8,7.1h2.8 M181.3,7.1h3.4 M174.5,7.1h2.7 M158,7.1h3.4 M151.1,7.1h2.8 M134.6,7.1h3.4 M127.8,7.1h2.8
	 M111.2,7.1h3.4 M412.4,131h3.8 M404.8,131h4.2 M395.9,131h6.2 M389.1,131h4.8 M381.5,131h4.1 M372.6,131h6.2 M365.7,131h4.8
	 M358.2,131h4.1 M349.3,131h6.1 M342.4,131h4.8 M334.8,131h4.2 M325.9,131h6.2 M319,131h4.8 M311.5,131h4.1 M302.6,131h6.1
	 M295.7,131h4.8 M288.1,131h4.2 M279.2,131h6.2 M272.3,131h4.8 M264.8,131h4.1 M255.8,131h6.2 M249,131h4.8 M241.4,131h4.1
	 M232.5,131h6.1 M225.6,131h4.8 M218.1,131h4.2 M209.1,131h6.2 M202.3,131h4.8 M194.7,131h4.1 M185.8,131h6.1 M178.9,131h4.8
	 M171.3,131h4.2 M162.4,131h6.2 M155.5,131h4.8 M148,131h4.1 M139.1,131h6.2 M132.2,131h4.8 M124.7,131h4.1 M115.8,131h6.1"/>
<path class="st4" d="M137,65.6h2 M113.7,65.6h2.1 M411.4,57.4h2 M388,57.4h2.1 M154.5,57.4h2.1 M131.2,57.4h2 M405.6,49.1h2
	 M382.2,49.1h2.1 M358.9,49.1h2.1 M335.5,49.1h2.1 M312.1,49.1h2 M288.8,49.1h2 M265.4,49.1h2.1 M242.1,49.1h2.1 M218.8,49.1h2.1
	 M195.4,49.1h2 M172.1,49.1h2 M148.7,49.1h2.1 M125.3,49.1h2.1 M399.7,40.9h2 M376.4,40.9h2 M353,40.9h2 M329.7,40.9h2 M306.3,40.9
	h2.1 M283,40.9h2 M259.6,40.9h2 M236.3,40.9h2.1 M212.9,40.9h2 M189.5,40.9h2.1 M166.2,40.9h2 M142.9,40.9h2 M119.5,40.9h2
	 M393.9,32.6h2 M370.6,32.6h2 M347.2,32.6h2.1 M323.8,32.6h2.1 M300.5,32.6h2.1 M277.1,32.6h2 M253.8,32.6h2 M230.4,32.6h2.1
	 M207.1,32.6h2.1 M183.8,32.6h2 M160.4,32.6h2 M137,32.6h2 M113.7,32.6h2.1 M411.4,24.4h2 M388,24.4h2.1 M364.7,24.4h2.1
	 M341.4,24.4h2 M318,24.4h2 M294.7,24.4h2 M271.3,24.4h2.1 M247.9,24.4h2 M224.6,24.4h2 M201.2,24.4h2 M177.9,24.4h2 M154.5,24.4
	h2.1 M131.2,24.4h2 M405.6,16.2h2 M382.2,16.2h2.1 M358.9,16.2h2.1 M335.5,16.2h2.1 M312.1,16.2h2 M288.8,16.2h2 M265.4,16.2h2.1
	 M242.1,16.2h2.1 M218.8,16.2h2.1 M195.4,16.2h2 M172.1,16.2h2 M148.7,16.2h2.1 M125.3,16.2h2.1 M399.7,7.9h2 M376.4,7.9h2 M353,7.9
	h2 M329.7,7.9h2 M306.3,7.9h2.1 M283,7.9h2 M259.6,7.9h2 M236.3,7.9h2.1 M212.9,7.9h2 M189.5,7.9h2.1 M166.2,7.9h2 M142.9,7.9h2
	 M119.5,7.9h2 M207.1-0.4h2.1 M183.8-0.4h2 M160.4-0.4h2 M137-0.4h2 M113.7-0.4h2.1 M409,130.7h3.4 M402.1,130.7h2.7 M385.6,130.7
	h3.4 M378.8,130.7h2.7 M362.3,130.7h3.4 M355.4,130.7h2.8 M339,130.7h3.4 M332.1,130.7h2.7 M315.6,130.7h3.4 M308.7,130.7h2.8
	 M292.3,130.7h3.4 M285.4,130.7h2.7 M268.9,130.7h3.4 M262.1,130.7h2.7 M245.5,130.7h3.4 M238.7,130.7h2.8 M222.2,130.7h3.4
	 M215.3,130.7h2.7 M198.8,130.7h3.4 M192,130.7h2.8 M175.5,130.7h3.4 M168.6,130.7h2.7 M152.1,130.7h3.4 M145.3,130.7h2.7
	 M128.8,130.7h3.4 M121.9,130.7h2.8 M403.2,122.4h3.4 M396.3,122.4h2.8 M379.8,122.4h3.4 M373,122.4h2.7 M169.6,122.4h2.7
	 M162.8,122.4h2.8 M146.3,122.4h3.4 M139.5,122.4h2.7 M122.9,122.4h3.4 M116.1,122.4h2.8 M413.8,114.2h2.4 M397.3,114.2h3.4
	 M390.4,114.2h2.8 M374,114.2h3.4 M163.8,114.2h3.4 M156.9,114.2h2.8 M140.5,114.2h3.4 M133.6,114.2h2.7 M117.1,114.2h3.4
	 M110.2,114.2h2.8 M414.9,106h1.4 M408,106h2.7 M391.5,106h3.4 M384.6,106h2.8 M158,106h3.4 M151.1,106h2.8 M134.6,106h3.4
	 M127.8,106h2.8 M111.2,106h3.4 M409,97.7h3.4 M402.1,97.7h2.7 M385.6,97.7h3.4 M378.8,97.7h2.7 M168.6,97.7h2.7 M152.1,97.7h3.4
	 M145.3,97.7h2.7 M128.8,97.7h3.4 M121.9,97.7h2.8 M403.2,89.5h3.4 M396.3,89.5h2.8 M379.8,89.5h3.4 M373,89.5h2.7 M169.6,89.5h2.7
	 M162.8,89.5h2.8 M146.3,89.5h3.4 M139.5,89.5h2.7 M122.9,89.5h3.4 M116.1,89.5h2.8 M413.8,81.2h2.4 M397.3,81.2h3.4 M390.4,81.2
	h2.8 M374,81.2h3.4 M163.8,81.2h3.4 M156.9,81.2h2.8 M140.5,81.2h3.4 M133.6,81.2h2.7 M117.1,81.2h3.4 M110.2,81.2h2.8 M414.9,73
	h1.4 M408,73h2.7 M391.5,73h3.4 M384.6,73h2.8 M158,73h3.4 M151.1,73h2.8 M134.6,73h3.4 M127.8,73h2.8 M111.2,73h3.4 M409,64.7h3.4
	 M402.1,64.7h2.7 M385.6,64.7h3.4 M378.8,64.7h2.7 M168.6,64.7h2.7 M152.1,64.7h3.4 M145.3,64.7h2.7 M128.8,64.7h3.4 M121.9,64.7
	h2.8 M403.2,56.5h3.4 M396.3,56.5h2.8 M379.8,56.5h3.4 M373.5,56.5h2.2 M169.6,56.5h3 M162.8,56.5h2.8 M146.3,56.5h3.4 M139.5,56.5
	h2.7 M122.9,56.5h3.4"/>
<path class="st4" d="M387.4,40.4v-7.9 M387.4,73.3v-7.9 M387.4,106.3v-7.9 M387.4,138.3v-7 M381.5,32.1v-7.9 M381.5,65.1v-7.9
	 M381.5,98.1v-7.9 M381.5,131v-7.9 M375.7,23.9V16 M375.7,56.8v-7.9 M375.7,89.8v-7.9 M375.7,122.8v-7.9 M369.8,15.6V7.7
	 M369.8,48.6v-7.9 M364,7.4V0.1 M364,40.4v-7.9 M364,138.3v-6.9 M358.2,32.1v-7.9 M358.2,131v-7.9 M352.3,23.9V16 M352.3,52.6v-3.7
	 M352.3,122.8v-0.2 M346.5,15.6V7.7 M346.5,48.6v-7.9 M340.7,7.4V0.1 M340.7,40.4v-7.9 M340.7,138.2v-6.9 M334.8,32.1v-7.9
	 M334.8,131v-7.9 M329,23.9V16 M329,52.6v-3.7 M329,122.8v-0.2 M323.2,15.6V7.7 M323.2,48.6v-7.9 M317.3,7.4v-7.5 M317.3,40.4v-7.9
	 M317.3,138.2v-6.8 M311.5,32.1v-7.9 M311.5,131v-7.9 M305.6,23.9V16 M305.6,52.6v-3.7 M305.6,122.8v-0.2 M299.8,15.6V7.7
	 M299.8,48.6v-7.9 M293.9,7.4v-7.5 M293.9,40.4v-7.9 M293.9,138.1v-6.8 M288.1,32.1v-7.9 M288.1,131v-7.9 M282.3,23.9V16
	 M282.3,52.6V49 M282.3,122.8v-0.2 M276.5,15.6V7.7 M276.5,48.6v-7.9 M270.6,7.4v-7.6 M270.6,40.4v-7.9 M270.6,138v-6.7 M264.8,32.1
	v-7.9 M264.8,131v-7.9 M258.9,23.9V16 M258.9,52.6V49 M258.9,122.8v-0.2 M253.1,15.6V7.7 M253.1,48.6v-7.9 M247.3,7.4v-7.7
	 M247.3,40.4v-7.9 M247.3,138v-6.6 M241.4,32.1v-7.9 M241.4,131v-7.9 M235.6,23.9V16 M235.6,52.5v-3.6 M235.6,122.8v-0.2
	 M229.7,15.6V7.7 M229.7,48.6v-7.9 M223.9,7.4v-7.7 M223.9,40.4v-7.9 M223.9,137.9v-6.5 M218.1,32.1v-7.9 M218.1,131v-7.9
	 M212.2,23.9V16 M212.2,52.5v-3.6 M212.2,122.8v-0.2 M206.4,15.6V7.7 M206.4,48.6v-7.9 M200.6,7.4v-7.8 M200.6,40.4v-7.9
	 M200.6,137.8v-6.4 M194.7,32.1v-7.9 M194.7,131v-7.9 M188.9,23.9V16 M188.9,52.5v-3.6 M188.9,122.8v-0.2 M183,15.6V7.7 M183,48.6
	v-7.9 M177.2,7.4v-7.9 M177.2,40.4v-7.9 M177.2,137.7v-6.4 M171.3,32.1v-7.9 M171.3,65.1v-7.9 M171.3,98.1v-7.9 M171.3,131v-7.9
	 M165.6,23.9V16 M165.6,56.8v-7.9 M165.6,89.8v-7.9 M165.6,122.8v-7.9 M159.7,15.6V7.7 M159.7,48.6v-7.9 M159.7,81.6v-7.9
	 M159.7,114.5v-7.9 M153.9,7.4v-7.9 M153.9,40.4v-7.9 M153.9,73.3v-7.9 M153.9,106.3v-7.9 M153.9,137.7v-6.3 M148,32.1v-7.9
	 M148,65.1v-7.9 M148,98.1v-7.9 M148,131v-7.9 M142.2,23.9V16 M142.2,56.8v-7.9 M142.2,89.8v-7.9 M142.2,122.8v-7.9 M136.3,15.6V7.7
	 M136.3,48.6v-7.9 M136.3,81.6v-7.9 M136.3,114.5v-7.9 M130.5,7.4v-7.9 M130.5,40.4v-7.9 M130.5,73.3v-7.9 M130.5,106.3v-7.9
	 M130.5,137.6v-6.3 M124.7,32.1v-7.9 M124.7,65.1v-7.9 M124.7,98.1v-7.9 M124.7,131v-7.9 M118.8,23.9V16 M118.8,56.8v-7.9
	 M118.8,89.8v-7.9 M118.8,122.8v-7.9 M113,15.6V7.7 M113,48.6v-7.9 M113,81.6v-7.9 M113,114.5v-7.9 M393.9,131.5h2 M370.6,131.5h2
	 M347.2,131.5h2.1 M323.8,131.5h2.1 M300.5,131.5h2 M277.1,131.5h2 M253.8,131.5h2 M230.4,131.5h2.1 M207.1,131.5h2 M183.8,131.5h2
	 M160.4,131.5h2 M137,131.5h2 M113.7,131.5h2.1 M411.4,123.3h2 M388,123.3h2.1 M364.7,123.3h2.1 M341.4,123.3h2 M318,123.3h2
	 M294.7,123.3h2 M271.3,123.3h2.1 M247.9,123.3h2 M224.6,123.3h2 M201.2,123.3h2 M177.9,123.3h2 M154.5,123.3h2.1 M131.2,123.3h2
	 M405.6,115.1h2 M382.2,115.1h2.1 M172.1,115.1h0.2 M148.7,115.1h2.1 M125.3,115.1h2.1 M399.7,106.8h2 M376.4,106.8h2 M166.2,106.8
	h2 M142.9,106.8h2 M119.5,106.8h2 M393.9,98.6h2 M372.1,98.6h0.5 M160.4,98.6h2 M137,98.6h2 M113.7,98.6h2.1 M411.4,90.3h2
	 M388,90.3h2.1 M154.5,90.3h2.1 M131.2,90.3h2 M405.6,82.1h2 M382.2,82.1h2.1 M172.1,82.1h0.4 M148.7,82.1h2.1 M125.3,82.1h2.1
	 M399.7,73.8h2 M376.4,73.8h2 M166.2,73.8h2 M142.9,73.8h2 M119.5,73.8h2 M393.9,65.6h2 M160.4,65.6h2"/>
<path class="st4" d="M132.2,65.1v-7.2 M132.2,98.1v-7.2 M132.2,131v-7.2 M126.4,23.9v-7.2 M126.4,56.8v-7.2 M126.4,89.8v-7.2
	 M126.4,122.8v-7.2 M120.5,15.6V8.4 M120.5,48.6v-7.2 M120.5,81.6v-7.2 M120.5,114.5v-7.2 M114.7,7.4V0.2 M114.7,40.4v-7.2
	 M114.7,73.3v-7.2 M114.7,106.3v-7.2 M114.7,137.6v-5.5 M414.9,7.4V0.2 M414.9,40.4v-7.8 M414.9,73.3v-7.7 M414.9,106.3v-7.7
	 M414.9,138.5v-6.9 M409,32.1v-7.7 M409,65.1v-7.7 M409,98.1v-7.8 M409,131v-7.8 M403.2,23.9v-7.7 M403.2,56.8v-7.7 M403.2,89.8
	v-7.7 M403.2,122.8v-7.7 M397.3,15.6V7.9 M397.3,48.6v-7.7 M397.3,81.6v-7.7 M397.3,114.5v-7.7 M391.5,7.4V0.2 M391.5,40.4v-7.8
	 M391.5,73.3v-7.7 M391.5,106.3v-7.7 M391.5,138.4v-6.9 M385.6,32.1v-7.7 M385.6,65.1v-7.7 M385.6,98.1v-7.8 M385.6,131v-7.8
	 M379.8,23.9v-7.7 M379.8,56.8v-7.7 M379.8,89.8v-7.7 M379.8,122.8v-7.7 M374,15.6V7.9 M374,48.6v-7.7 M374,81.6v-7.7 M374,114.5
	v-7.7 M368.1,7.4V0.1 M368.1,40.4v-7.8 M368.1,138.3v-6.8 M362.3,32.1v-7.7 M362.3,131v-7.8 M356.4,23.9v-7.7 M356.4,52.6v-3.5
	 M356.4,122.8v-0.2 M350.6,15.6V7.9 M350.6,48.6v-7.7 M344.8,7.4V0.1 M344.8,40.4v-7.8 M344.8,138.2v-6.7 M339,32.1v-7.7 M339,131
	v-7.8 M333.1,23.9v-7.7 M333.1,52.6v-3.5 M333.1,122.8v-0.2 M327.3,15.6V7.9 M327.3,48.6v-7.7 M321.4,7.4V0 M321.4,40.4v-7.8
	 M321.4,138.2v-6.6 M315.6,32.1v-7.7 M315.6,131v-7.8 M309.7,23.9v-7.7 M309.7,52.6v-3.5 M309.7,122.8v-0.2 M303.9,15.6V7.9
	 M303.9,48.6v-7.7 M298.1,7.4v-7.5 M298.1,40.4v-7.8 M298.1,138.1v-6.6 M292.3,32.1v-7.7 M292.3,131v-7.8 M286.4,23.9v-7.7
	 M286.4,52.6v-3.4 M286.4,122.8v-0.2 M280.6,15.6V7.9 M280.6,48.6v-7.7 M274.7,7.4v-7.6 M274.7,40.4v-7.8 M274.7,138v-6.5
	 M268.9,32.1v-7.7 M268.9,131v-7.8 M263.1,23.9v-7.7 M263.1,52.6v-3.4 M263.1,122.8v-0.2 M257.2,15.6V7.9 M257.2,48.6v-7.7
	 M251.4,7.4v-7.7 M251.4,40.4v-7.8 M251.4,138v-6.4 M245.5,32.1v-7.7 M245.5,131v-7.8 M239.7,23.9v-7.7 M239.7,52.5v-3.4
	 M239.7,122.8v-0.2 M233.8,15.6V7.9 M233.8,48.6v-7.7 M228.1,7.4v-7.7 M228.1,40.4v-7.8 M228.1,137.9v-6.4 M222.2,32.1v-7.7
	 M222.2,131v-7.8 M216.4,23.9v-7.7 M216.4,52.5v-3.4 M216.4,122.8v-0.2 M210.5,15.6V7.9 M210.5,48.6v-7.7 M204.7,7.4v-7.8
	 M204.7,40.4v-7.8 M204.7,137.8v-6.3 M198.8,32.1v-7.7 M198.8,131v-7.8 M193,23.9v-7.7 M193,52.5v-3.4 M193,122.8v-0.2 M187.2,15.6
	V7.9 M187.2,48.6v-7.7 M181.3,7.4v-7.8 M181.3,40.4v-7.8 M181.3,137.7v-6.2 M175.5,32.1v-7.7 M175.5,131v-7.8 M169.6,23.9v-7.7
	 M169.6,56.8v-7.7 M169.6,89.8v-7.7 M169.6,122.8v-7.7 M163.8,15.6V7.9 M163.8,48.6v-7.7 M163.8,81.6v-7.7 M163.8,114.5v-7.7
	 M158,7.4v-7.8 M158,40.4v-7.8 M158,73.3v-7.7 M158,106.3v-7.7 M158,137.7v-6.1 M152.1,32.1v-7.7 M152.1,65.1v-7.7 M152.1,98.1v-7.8
	 M152.1,131v-7.8 M146.3,23.9v-7.7 M146.3,56.8v-7.7 M146.3,89.8v-7.7 M146.3,122.8v-7.7 M140.5,15.6V7.9 M140.5,48.6v-7.7
	 M140.5,81.6v-7.7 M140.5,114.5v-7.7 M134.6,7.4v-7.8 M134.6,40.4v-7.8 M134.6,73.3v-7.7 M134.6,106.3v-7.7 M134.6,137.6v-6.1
	 M128.8,32.1v-7.7 M128.8,65.1v-7.7 M128.8,98.1v-7.8 M128.8,131v-7.8 M122.9,23.9v-7.7 M122.9,56.8v-7.7 M122.9,89.8v-7.7
	 M122.9,122.8v-7.7 M117.1,15.6V7.9 M117.1,48.6v-7.7 M117.1,81.6v-7.7 M117.1,114.5v-7.7 M111.2,7.4v-7.8 M111.2,40.4v-7.8
	 M111.2,73.3v-7.7 M111.2,106.3v-7.7 M111.2,137.6v-6 M410.7,7.4V0.2 M410.7,40.4v-7.9 M410.7,73.3v-7.9 M410.7,106.3v-7.9
	 M410.7,138.5v-7.1 M404.8,32.1v-7.9 M404.8,65.1v-7.9 M404.8,98.1v-7.9 M404.8,131v-7.9 M399.1,23.9V16 M399.1,56.8v-7.9
	 M399.1,89.8v-7.9 M399.1,122.8v-7.9 M393.2,15.6V7.7 M393.2,48.6v-7.9 M393.2,81.6v-7.9 M393.2,114.5v-7.9 M387.4,7.4V0.2"/>
<g>
	<g>
		<g>
			<g>
				<defs>
					<rect id="SVGID_27_" x="-825.8" y="-0.8" width="1796.7" height="400.7"/>
				</defs>
				<clipPath id="SVGID_28_">
					<use xlink:href="#SVGID_27_"  style="overflow:visible;"/>
				</clipPath>
				<path class="st18" d="M183.8-0.4L183.8-0.4 M183.8,32.6v-7.9 M183.8,131.5v-7.9 M177.9,24.4v-7.9 M177.9,52.4v-3 M177.9,123.3
					v-0.7 M172.1,16.2V8.3 M172.1,49.1v-7.9 M172.1,82.1v-7.9 M172.1,115.1v-7.9 M166.2,7.9V0 M166.2,40.9V33 M166.2,73.8v-7.9
					 M166.2,106.8v-7.9 M166.2,137.7v-5.8 M160.4-0.4L160.4-0.4 M160.4,32.6v-7.9 M160.4,65.6v-7.9 M160.4,98.6v-7.9 M160.4,131.5
					v-7.9 M154.5,24.4v-7.9 M154.5,57.4v-7.9 M154.5,90.3v-7.9 M154.5,123.3v-7.9 M148.7,16.2V8.3 M148.7,49.1v-7.9 M148.7,82.1
					v-7.9 M148.7,115.1v-7.9 M142.9,7.9V0 M142.9,40.9V33 M142.9,73.8v-7.9 M142.9,106.8v-7.9 M142.9,137.6v-5.7 M137-0.4v-0.2
					 M137,32.6v-7.9 M137,65.6v-7.9 M137,98.6v-7.9 M137,131.5v-7.9 M131.2,24.4v-7.9 M131.2,57.4v-7.9 M131.2,90.3v-7.9
					 M131.2,123.3v-7.9 M125.3,16.2V8.3 M125.3,49.1v-7.9 M125.3,82.1v-7.9 M125.3,115.1v-7.9 M119.5,7.9V0 M119.5,40.9V33
					 M119.5,73.8v-7.9 M119.5,106.8v-7.9 M119.5,137.6v-5.7 M113.7-0.4v-0.3 M113.7,32.6v-7.9 M113.7,65.6v-7.9 M113.7,98.6v-7.9
					 M113.7,131.5v-7.9 M412.4,32.1v-7.2 M412.4,65.1v-7.2 M412.4,98.1v-7.2 M412.4,131v-7.2 M406.6,23.9v-7.2 M406.6,56.8v-7.2
					 M406.6,89.8v-7.2 M406.6,122.8v-7.2 M400.8,15.6V8.4 M400.8,48.6v-7.2 M400.8,81.6v-7.2 M400.8,114.5v-7.2 M394.9,7.4V0.2
					 M394.9,40.4v-7.2 M394.9,73.3v-7.2 M394.9,106.3v-7.2 M394.9,138.4v-6.3 M389.1,32.1v-7.2 M389.1,65.1v-7.2 M389.1,98.1v-7.2
					 M389.1,131v-7.2 M383.3,23.9v-7.2 M383.3,56.8v-7.2 M383.3,89.8v-7.2 M383.3,122.8v-7.2 M377.4,15.6V8.4 M377.4,48.6v-7.2
					 M377.4,81.6v-7.2 M377.4,114.5v-7.2 M371.6,7.4V0.2 M371.6,40.4v-7.2 M371.6,138.3V132 M365.7,32.1v-7.2 M365.7,131v-7.2
					 M359.9,23.9v-7.2 M359.9,52.7v-3.1 M359.9,122.8v-0.2 M354,15.6V8.4 M354,48.6v-7.2 M348.2,7.4V0.2 M348.2,40.4v-7.2
					 M348.2,138.3v-6.2 M342.4,32.1v-7.2 M342.4,131v-7.2 M336.6,23.9v-7.2 M336.6,52.6v-3 M336.6,122.8v-0.2 M330.7,15.6V8.4
					 M330.7,48.6v-7.2 M324.9,7.4V0.2 M324.9,40.4v-7.2 M324.9,138.2v-6.1 M319,32.1v-7.2 M319,131v-7.2 M313.2,23.9v-7.2
					 M313.2,52.6v-3 M313.2,122.8v-0.2 M307.4,15.6V8.4 M307.4,48.6v-7.2 M301.5,7.4V0.2 M301.5,40.4v-7.2 M301.5,138.1v-6
					 M295.7,32.1v-7.2 M295.7,131v-7.2 M289.8,23.9v-7.2 M289.8,52.6v-3 M289.8,122.8v-0.2 M284,15.6V8.4 M284,48.6v-7.2 M278.1,7.4
					V0.2 M278.1,40.4v-7.2 M278.1,138v-6 M272.3,32.1v-7.2 M272.3,131v-7.2 M266.5,23.9v-7.2 M266.5,52.6v-3 M266.5,122.8v-0.2
					 M260.7,15.6V8.4 M260.7,48.6v-7.2 M254.8,7.4V0.2 M254.8,40.4v-7.2 M254.8,138v-5.9 M249,32.1v-7.2 M249,131v-7.2 M243.1,23.9
					v-7.2 M243.1,52.6v-3 M243.1,122.8v-0.2 M237.3,15.6V8.4 M237.3,48.6v-7.2 M231.4,7.4V0.2 M231.4,40.4v-7.2 M231.4,137.9v-5.8
					 M225.6,32.1v-7.2 M225.6,131v-7.2 M219.8,23.9v-7.2 M219.8,52.5v-2.9 M219.8,122.8v-0.2 M214,15.6V8.4 M214,48.6v-7.2
					 M208.1,7.4V0.2 M208.1,40.4v-7.2 M208.1,137.9v-5.8 M202.3,32.1v-7.2 M202.3,131v-7.2 M196.4,23.9v-7.2 M196.4,52.5v-2.9
					 M196.4,122.8v-0.2 M190.6,15.6V8.4 M190.6,48.6v-7.2 M184.8,7.4V0.2 M184.8,40.4v-7.2 M184.8,137.7V132 M178.9,32.1v-7.2
					 M178.9,131v-7.2 M173.1,23.9v-7.2 M173.1,52.4v-2.8 M173.1,122.8v-0.2 M167.2,15.6V8.4 M167.2,48.6v-7.2 M167.2,81.6v-7.2
					 M167.2,114.5v-7.2 M161.4,7.4V0.2 M161.4,40.4v-7.2 M161.4,73.3v-7.2 M161.4,106.3v-7.2 M161.4,137.7v-5.6 M155.5,32.1v-7.2
					 M155.5,65.1v-7.2 M155.5,98.1v-7.2 M155.5,131v-7.2 M149.8,23.9v-7.2 M149.8,56.8v-7.2 M149.8,89.8v-7.2 M149.8,122.8v-7.2
					 M143.9,15.6V8.4 M143.9,48.6v-7.2 M143.9,81.6v-7.2 M143.9,114.5v-7.2 M138.1,7.4V0.2 M138.1,40.4v-7.2 M138.1,73.3v-7.2
					 M138.1,106.3v-7.2 M138.1,137.6v-5.5 M132.2,32.1v-7.2"/>
			</g>
		</g>
	</g>
	<g>
		<g>
			<g>
				<defs>
					<rect id="SVGID_29_" x="-825.8" y="-0.8" width="1796.7" height="400.7"/>
				</defs>
				<clipPath id="SVGID_30_">
					<use xlink:href="#SVGID_29_"  style="overflow:visible;"/>
				</clipPath>
				<path class="st19" d="M267.5,49.1v-7.9 M261.7,7.9V0 M261.7,40.9V33 M261.7,138v-6.1 M255.8,32.6v-7.9 M255.8,131.5v-7.9
					 M250,24.4v-7.9 M250,52.6v-3.1 M250,123.3v-0.7 M244.2,16.2V8.3 M244.2,49.1v-7.9 M238.3,7.9V0 M238.3,40.9V33 M238.3,137.9v-6
					 M232.5,32.6v-7.9 M232.5,131.5v-7.9 M226.7,24.4v-7.9 M226.7,52.5v-3 M226.7,123.3v-0.7 M220.8,16.2V8.3 M220.8,49.1v-7.9
					 M215,7.9V0 M215,40.9V33 M215,137.9v-6 M209.1,32.6v-7.9 M209.1,131.5v-7.9 M203.3,24.4v-7.9 M203.3,52.5v-3 M203.3,123.3v-0.7
					 M197.4,16.2V8.3 M197.4,49.1v-7.9 M191.7,7.9V0 M191.7,40.9V33 M191.7,137.8v-5.9 M185.8-0.4L185.8-0.4 M185.8,32.6v-7.9
					 M185.8,131.5v-7.9 M180,24.4v-7.9 M180,52.4v-3 M180,123.3v-0.7 M174.1,16.2V8.3 M174.1,49.1v-7.9 M168.3,7.9V0 M168.3,40.9V33
					 M168.3,73.8v-7.9 M168.3,106.8v-7.9 M168.3,137.7v-5.8 M162.4-0.4L162.4-0.4 M162.4,32.6v-7.9 M162.4,65.6v-7.9 M162.4,98.6
					v-7.9 M162.4,131.5v-7.9 M156.6,24.4v-7.9 M156.6,57.4v-7.9 M156.6,90.3v-7.9 M156.6,123.3v-7.9 M150.8,16.2V8.3 M150.8,49.1
					v-7.9 M150.8,82.1v-7.9 M150.8,115.1v-7.9 M144.9,7.9V0 M144.9,40.9V33 M144.9,73.8v-7.9 M144.9,106.8v-7.9 M144.9,137.6v-5.7
					 M139.1-0.4v-0.2 M139.1,32.6v-7.9 M139.1,65.6v-7.9 M139.1,98.6v-7.9 M139.1,131.5v-7.9 M133.2,24.4v-7.9 M133.2,57.4v-7.9
					 M133.2,90.3v-7.9 M133.2,123.3v-7.9 M127.4,16.2V8.3 M127.4,49.1v-7.9 M127.4,82.1v-7.9 M127.4,115.1v-7.9 M121.5,7.9V0
					 M121.5,40.9V33 M121.5,73.8v-7.9 M121.5,106.8v-7.9 M121.5,137.6v-5.7 M115.8-0.4v-0.3 M115.8,32.6v-7.9 M115.8,65.6v-7.9
					 M115.8,98.6v-7.9 M115.8,131.5v-7.9 M411.4,24.4v-7.9 M411.4,57.4v-7.9 M411.4,90.3v-7.9 M411.4,123.3v-7.9 M405.6,16.2V8.3
					 M405.6,49.1v-7.9 M405.6,82.1v-7.9 M405.6,115.1v-7.9 M399.7,7.9V0.2 M399.7,40.9V33 M399.7,73.8v-7.9 M399.7,106.8v-7.9
					 M399.7,138.4v-6.5 M393.9,32.6v-7.9 M393.9,65.6v-7.9 M393.9,98.6v-7.9 M393.9,131.5v-7.9 M388,24.4v-7.9 M388,57.4v-7.9
					 M388,90.3v-7.9 M388,123.3v-7.9 M382.2,16.2V8.3 M382.2,49.1v-7.9 M382.2,82.1v-7.9 M382.2,115.1v-7.9 M376.4,7.9V0.1
					 M376.4,40.9V33 M376.4,73.8v-7.9 M376.4,106.8v-7.9 M376.4,138.3v-6.5 M370.6,32.6v-7.9 M370.6,131.5v-7.9 M364.7,24.4v-7.9
					 M364.7,52.7v-3.2 M364.7,123.3v-0.7 M358.9,16.2V8.3 M358.9,49.1v-7.9 M353,7.9V0.1 M353,40.9V33 M353,138.3v-6.4 M347.2,32.6
					v-7.9 M347.2,131.5v-7.9 M341.4,24.4v-7.9 M341.4,52.6v-3.1 M341.4,123.3v-0.7 M335.5,16.2V8.3 M335.5,49.1v-7.9 M329.7,7.9V0
					 M329.7,40.9V33 M329.7,138.2v-6.3 M323.8,32.6v-7.9 M323.8,131.5v-7.9 M318,24.4v-7.9 M318,52.6v-3.1 M318,123.3v-0.7
					 M312.1,16.2V8.3 M312.1,49.1v-7.9 M306.3,7.9V0 M306.3,40.9V33 M306.3,138.1v-6.2 M300.5,32.6v-7.9 M300.5,131.5v-7.9
					 M294.7,24.4v-7.9 M294.7,52.6v-3.1 M294.7,123.3v-0.7 M288.8,16.2V8.3 M288.8,49.1v-7.9 M283,7.9V0 M283,40.9V33 M283,138v-6.1
					 M277.1,32.6v-7.9 M277.1,131.5v-7.9 M271.3,24.4v-7.9 M271.3,52.6v-3.1 M271.3,123.3v-0.7 M265.4,16.2V8.3 M265.4,49.1v-7.9
					 M259.6,7.9V0 M259.6,40.9V33 M259.6,138v-6.1 M253.8,32.6v-7.9 M253.8,131.5v-7.9 M247.9,24.4v-7.9 M247.9,52.6v-3.1
					 M247.9,123.3v-0.7 M242.1,16.2V8.3 M242.1,49.1v-7.9 M236.3,7.9V0 M236.3,40.9V33 M236.3,137.9v-6 M230.4,32.6v-7.9
					 M230.4,131.5v-7.9 M224.6,24.4v-7.9 M224.6,52.5v-3 M224.6,123.3v-0.7 M218.8,16.2V8.3 M218.8,49.1v-7.9 M212.9,7.9V0
					 M212.9,40.9V33 M212.9,137.9v-6 M207.1,32.6v-7.9 M207.1,131.5v-7.9 M201.2,24.4v-7.9 M201.2,52.5v-3 M201.2,123.3v-0.7
					 M195.4,16.2V8.3 M195.4,49.1v-7.9 M189.5,7.9V0 M189.5,40.9V33 M189.5,137.8v-5.9"/>
			</g>
		</g>
	</g>
</g>
<path class="st4" d="M349.6,52.6v-3.3 M349.6,122.8v-0.2 M343.7,15.6V8.1 M343.7,48.6V41 M337.9,7.4V0 M337.9,40.4v-7.6
	 M337.9,138.2v-6.5 M332.1,32.1v-7.6 M332.1,131v-7.6 M326.2,23.9v-7.5 M326.2,52.6v-3.3 M326.2,122.8v-0.2 M320.4,15.6V8.1
	 M320.4,48.6V41 M314.6,7.4v-7.5 M314.6,40.4v-7.6 M314.6,138.2v-6.4 M308.7,32.1v-7.6 M308.7,131v-7.6 M302.9,23.9v-7.5
	 M302.9,52.6v-3.3 M302.9,122.8v-0.2 M297.1,15.6V8.1 M297.1,48.6V41 M291.2,7.4v-7.5 M291.2,40.4v-7.6 M291.2,138.1v-6.4
	 M285.4,32.1v-7.6 M285.4,131v-7.6 M279.5,23.9v-7.5 M279.5,52.6v-3.3 M279.5,122.8v-0.2 M273.7,15.6V8.1 M273.7,48.6V41 M267.8,7.4
	v-7.6 M267.8,40.4v-7.6 M267.8,138v-6.3 M262.1,32.1v-7.6 M262.1,131v-7.6 M256.2,23.9v-7.5 M256.2,52.6v-3.3 M256.2,122.8v-0.2
	 M250.4,15.6V8.1 M250.4,48.6V41 M244.5,7.4v-7.6 M244.5,40.4v-7.6 M244.5,137.9v-6.2 M238.7,32.1v-7.6 M238.7,131v-7.6 M232.8,23.9
	v-7.5 M232.8,52.5v-3.2 M232.8,122.8v-0.2 M227,15.6V8.1 M227,48.6V41 M221.2,7.4v-7.6 M221.2,40.4v-7.6 M221.2,137.9v-6.1
	 M215.3,32.1v-7.6 M215.3,131v-7.6 M209.5,23.9v-7.5 M209.5,52.5v-3.2 M209.5,122.8v-0.2 M203.6,15.6V8.1 M203.6,48.6V41 M197.8,7.4
	v-7.6 M197.8,40.4v-7.6 M197.8,137.8v-6.1 M192,32.1v-7.6 M192,131v-7.6 M186.1,23.9v-7.5 M186.1,52.5v-3.2 M186.1,122.8v-0.2
	 M180.3,15.6V8.1 M180.3,48.6V41 M174.5,7.4v-7.6 M174.5,40.4v-7.6 M174.5,137.7v-6 M168.6,32.1v-7.6 M168.6,65.1v-7.6 M168.6,98.1
	v-7.6 M168.6,131v-7.6 M162.8,23.9v-7.5 M162.8,56.8v-7.5 M162.8,89.8v-7.5 M162.8,122.8v-7.6 M156.9,15.6V8.1 M156.9,48.6V41
	 M156.9,81.6V74 M156.9,114.5V107 M151.1,7.4v-7.6 M151.1,40.4v-7.6 M151.1,73.3v-7.5 M151.1,106.3v-7.5 M151.1,137.7v-6
	 M145.3,32.1v-7.6 M145.3,65.1v-7.6 M145.3,98.1v-7.6 M145.3,131v-7.6 M139.5,23.9v-7.5 M139.5,56.8v-7.5 M139.5,89.8v-7.5
	 M139.5,122.8v-7.6 M133.6,15.6V8.1 M133.6,48.6V41 M133.6,81.6V74 M133.6,114.5V107 M127.8,7.4v-7.6 M127.8,40.4v-7.6 M127.8,73.3
	v-7.5 M127.8,106.3v-7.5 M127.8,137.6v-5.9 M121.9,32.1v-7.6 M121.9,65.1v-7.6 M121.9,98.1v-7.6 M121.9,131v-7.6 M116.1,23.9v-7.5
	 M116.1,56.8v-7.5 M116.1,89.8v-7.5 M116.1,122.8v-7.6 M110.2,15.6V8.1 M110.2,48.6V41 M110.2,81.6V74 M110.2,114.5V107 M413.5,24.4
	v-7.9 M413.5,57.4v-7.9 M413.5,90.3v-7.9 M413.5,123.3v-7.9 M407.6,16.2V8.3 M407.6,49.1v-7.9 M407.6,82.1v-7.9 M407.6,115.1v-7.9
	 M401.8,7.9V0.2 M401.8,40.9V33 M401.8,73.8v-7.9 M401.8,106.8v-7.9 M401.8,138.4v-6.5 M395.9,32.6v-7.9 M395.9,65.6v-7.9
	 M395.9,98.6v-7.9 M395.9,131.5v-7.9 M390.1,24.4v-7.9 M390.1,57.4v-7.9 M390.1,90.3v-7.9 M390.1,123.3v-7.9 M384.3,16.2V8.3
	 M384.3,49.1v-7.9 M384.3,82.1v-7.9 M384.3,115.1v-7.9 M378.4,7.9V0.1 M378.4,40.9V33 M378.4,73.8v-7.9 M378.4,106.8v-7.9
	 M378.4,138.3v-6.4 M372.6,32.6v-7.9 M372.6,98.6v-7.9 M372.6,131.5v-7.9 M366.8,24.4v-7.9 M366.8,52.7v-3.2 M366.8,123.3v-0.7
	 M360.9,16.2V8.3 M360.9,49.1v-7.9 M355.1,7.9V0.1 M355.1,40.9V33 M355.1,138.3v-6.4 M349.3,32.6v-7.9 M349.3,131.5v-7.9
	 M343.4,24.4v-7.9 M343.4,52.6v-3.1 M343.4,123.3v-0.7 M337.6,16.2V8.3 M337.6,49.1v-7.9 M331.7,7.9V0 M331.7,40.9V33 M331.7,138.2
	v-6.3 M325.9,32.6v-7.9 M325.9,131.5v-7.9 M320,24.4v-7.9 M320,52.6v-3.1 M320,123.3v-0.7 M314.2,16.2V8.3 M314.2,49.1v-7.9
	 M308.4,7.9V0 M308.4,40.9V33 M308.4,138.2v-6.3 M302.6,32.6v-7.9 M302.6,131.5v-7.9 M296.7,24.4v-7.9 M296.7,52.6v-3.1
	 M296.7,123.3v-0.7 M290.9,16.2V8.3 M290.9,49.1v-7.9 M285,7.9V0 M285,40.9V33 M285,138v-6.1 M279.2,32.6v-7.9 M279.2,131.5v-7.9
	 M273.4,24.4v-7.9 M273.4,52.6v-3.1 M273.4,123.3v-0.7 M267.5,16.2V8.3"/>
<path class="st4" d="M413.8,15.6V8.1 M413.8,48.6V41 M413.8,81.6V74 M413.8,114.5V107 M408,7.4V0.2 M408,40.4v-7.6 M408,73.3v-7.5
	 M408,106.3v-7.5 M408,138.4v-6.7 M402.1,32.1v-7.6 M402.1,65.1v-7.6 M402.1,98.1v-7.6 M402.1,131v-7.6 M396.3,23.9v-7.5
	 M396.3,56.8v-7.5 M396.3,89.8v-7.5 M396.3,122.8v-7.6 M390.4,15.6V8.1 M390.4,48.6V41 M390.4,81.6V74 M390.4,114.5V107 M384.6,7.4
	V0.2 M384.6,40.4v-7.6 M384.6,73.3v-7.5 M384.6,106.3v-7.5 M384.6,138.3v-6.6 M378.8,32.1v-7.6 M378.8,65.1v-7.6 M378.8,98.1v-7.6
	 M378.8,131v-7.6 M373,23.9v-7.5 M373,52.7v-3.4 M373,89.8v-7.5 M373,122.8v-7.6 M367.1,15.6V8.1 M367.1,48.6V41 M361.3,7.4V0.1
	 M361.3,40.4v-7.6 M361.3,138.3v-6.6 M355.4,32.1v-7.6 M355.4,131v-7.6 M349.6,23.9v-7.5"/>
<line class="st0" x1="416.2" y1="137.6" x2="110.2" y2="137.6"/>
<polyline class="st1" points="326.1,230.5 326.1,177.3 360.7,177.3 360.7,230.5 "/>
<rect x="327.6" y="178.8" class="st4" width="31.6" height="50.2"/>
<path class="st1" d="M250.3,230.5v-53.2h32.5v53.2 M320,170.9h46.8 M320,171.2h46.8 M323.1,230.5v-56.2h40.7v56.2"/>
<rect x="251.8" y="178.8" class="st4" width="29.5" height="50.2"/>
<g>
	<g>
		<g>
			<g>
				<defs>
					<rect id="SVGID_31_" x="-825.8" y="-0.8" width="1796.7" height="400.7"/>
				</defs>
				<clipPath id="SVGID_32_">
					<use xlink:href="#SVGID_31_"  style="overflow:visible;"/>
				</clipPath>
				<path class="st20" d="M370,233.6v-3.1h-53.2v3.1 M370,233.6h-53.2 M293.2,233.6v-3.1H240v3.1 M293.2,233.6H240 M156.8,230.4v3
					 M209.9,230.4v3 M159.8,171.2v-0.3 M206.8,171.2v-0.3 M244.2,171.2v-0.3 M288.9,171.2v-0.3 M366.8,171.2v-0.3 M320,171.2v-0.3
					 M206.8,171.3c-1.3,0.6-2.4,1.7-3,3 M203.8,174.3c-1.3,0.6-2.4,1.7-3,3 M285.8,174.3c-1.3,0.6-2.4,1.7-3,3 M288.9,171.3
					c-1.3,0.6-2.4,1.7-3,3 M363.7,174.3c-1.3,0.6-2.4,1.7-3,3 M366.8,171.3c-1.3,0.6-2.4,1.7-3,3 M326,177.3c-0.6-1.3-1.7-2.4-3-3
					 M323,174.3c-0.6-1.3-1.7-2.4-3-3 M250.3,177.3c-0.6-1.3-1.7-2.4-3-3 M247.2,174.3c-0.6-1.3-1.7-2.4-3-3 M165.8,177.3
					c-0.6-1.3-1.7-2.4-3-3 M162.8,174.3c-0.6-1.3-1.7-2.4-3-3 M159.8,170.9h47.1 M159.8,171.2h47.1 M209.9,230.4h-53.2 M209.9,233.5
					h-53.2 M162.8,230.4v-56.1h41v56.1 M165.9,230.4v-53.1h34.9v53.1 M244.2,170.9h44.7 M244.2,171.2h44.7 M247.3,230.5v-56.2h38.6
					v56.2"/>
			</g>
		</g>
	</g>
	<g>
		<g>
			<g>
				<defs>
					<rect id="SVGID_33_" x="-825.8" y="-0.8" width="1796.7" height="400.7"/>
				</defs>
				<clipPath id="SVGID_34_">
					<use xlink:href="#SVGID_33_"  style="overflow:visible;"/>
				</clipPath>
				<path class="st21" d="M416.2,139.5V-0.1 M110.2,137.6V-0.1"/>
			</g>
		</g>
	</g>
</g>
<line class="st2" x1="110.2" y1="137.6" x2="110.2" y2="139.5"/>
<g>
	<g>
		<g>
			<g>
				<defs>
					<rect id="SVGID_35_" x="-825.8" y="-0.8" width="1796.7" height="400.7"/>
				</defs>
				<clipPath id="SVGID_36_">
					<use xlink:href="#SVGID_35_"  style="overflow:visible;"/>
				</clipPath>
				<path class="st22" d="M405.5,139.5h10.7 M110.2-0.1h306.1"/>
			</g>
		</g>
	</g>
</g>
<path class="st1" d="M283.1,88h54.7v33.2h-54.7V88z M281.6,86.5h57.7v36.3h-57.7V86.5z M215.6,88h54.7v33.2h-54.7L215.6,88L215.6,88
	z M214.1,86.5h57.7v36.3h-57.7L214.1,86.5L214.1,86.5z M172.3,84.8l-0.2-32.1 M372.3,52.4l-0.2,32.4v37.9 M172.3,84.8v37.9
	 M172.1,52.7l200.2-0.3 M172.3,84.8h199.8 M172.3,86.4h199.8 M172.3,122.7h199.8"/>
<rect x="182.1" y="333.4" class="st4" width="1" height="6"/>
<path class="st1" d="M219.8,295.8h6v0.3h-6V295.8z M126.5,268.5h-5.6l-18.6,16.2h18.6h5.6V268.5z"/>
<path class="st4" d="M344,301.9h13.3 M329.5,301.9h13.3 M344,303.1h13.3 M329.5,303.1h13.3 M344.4,214h14.8 M327.6,214h15.6
	 M344.4,215.2h14.8 M327.6,215.2h15.6 M344.4,195.6h14.8 M327.9,195.6h15.3 M344.4,196.8h14.8 M327.9,196.8h15.3 M344.4,215.2V229
	 M344.4,196.8V214 M344.4,215.2V229 M344.4,196.8V214 M344.4,178.8v16.8 M343.2,215.2V229 M343.2,196.8V214 M343.2,215.2V229
	 M343.2,196.8V214 M343.2,178.8v16.8 M267,214h14.3 M251.8,214h14 M267,215.2h14.3 M251.8,215.2h14 M267,195.6h14.3 M251.8,195.6h14
	 M267,196.8h14.3 M251.8,196.8h14 M267,215.2V229 M267,196.8V214 M267,194.3v1.3 M267,215.2V229 M267,196.8V214 M267,178.8v16.8
	 M265.8,215.2V229 M265.8,196.8V214 M265.8,194.3v1.3 M265.8,215.2V229 M265.8,196.8V214 M265.8,178.8v16.8"/>
<g>
	<g>
		<g>
			<g>
				<defs>
					<rect id="SVGID_37_" x="-825.8" y="-0.8" width="1796.7" height="400.7"/>
				</defs>
				<clipPath id="SVGID_38_">
					<use xlink:href="#SVGID_37_"  style="overflow:visible;"/>
				</clipPath>
				<path class="st23" d="M296.1,263v-0.6 M296,263c-1.3,0.6-2.4,1.7-3,3 M296.1,262.4h-56.2 M245.8,269.1v85.7 M239.8,263v-0.6
					 M242.8,266c-0.6-1.3-1.7-2.4-3-3 M239.8,263H296 M245.8,269.1h44.1 M251.4,269.1h15.2 M251.4,326.8v17.6 M251.4,269.1v80.8"/>
			</g>
		</g>
	</g>
	<g>
		<g>
			<g>
				<defs>
					<rect id="SVGID_39_" x="-825.8" y="-0.8" width="1796.7" height="400.7"/>
				</defs>
				<clipPath id="SVGID_40_">
					<use xlink:href="#SVGID_39_"  style="overflow:visible;"/>
				</clipPath>
				<path class="st24" d="M416.2,137.6h2.8v1.9h-2.8 M403.3,330.1h2.1v0.3h-2.1 M403.3,330.1v0.3 M403.3,297.6h2.1v0.3h-2.1
					 M403.3,297.6v0.3 M403.3,259.6h2.1v0.3h-2.1 M403.3,259.6v0.3 M403.3,224.4h2.1v0.3h-2.1 M403.3,224.4v0.3 M403.3,194.1h2.1
					v0.3h-2.1 M403.3,194.1v0.3 M408.8,155.5l0.8,2 M408.5,155.6l0.8,2 M403.3,160.3h2.1v0.3h-2.1 M405.1,330.4v48.9 M405.1,297.9
					v32.2 M405.1,259.9v37.8 M405.1,224.7v34.8 M405.1,194.4v30 M405.1,160.6v33.5 M405.1,157.8v2.5 M403.3,160.3v0.3 M403.6,330.4
					v48.8 M403.6,297.9v32.2 M403.6,259.9v37.8 M403.6,224.7v34.8 M403.6,194.4v30 M403.6,160.6v33.5 M405.5,156.3h-1.9v4
					 M414.9,150l2,0.7 M414.8,150.3l2,0.7 M416.8,151c0-0.1,0.1-0.2,0.1-0.3 M409.3,157.5c0.1,0,0.2-0.1,0.3-0.1 M416.5,150.6
					c0.7-3.7,1.1-7.4,1.1-11.1 M409.4,157.1c3.1-1.1,5.6-3.3,7-6.2 M405.1,157.7c1.4,0,2.7-0.1,4.1-0.6 M414.8,150.3
					c0-0.1,0.1-0.2,0.1-0.3 M415.2,150.1c0.7-3.5,1-7.1,1-10.6 M414.8,150.3C414.8,150.3,414.8,150.2,414.8,150.3 M408.5,155.5
					c0.1,0,0.2-0.1,0.3-0.1 M408.9,155.7c2.7-0.9,4.9-2.8,6.2-5.4 M405.5,156.3c1.1,0,2.1-0.2,3.1-0.5"/>
			</g>
		</g>
	</g>
</g>
<path class="st1" d="M325,323.8h36.9 M251.4,344.4h33.1"/>
<path class="st0" d="M381.8,349.9v-27.3 M381,349.9V378"/>
<line class="st1" x1="251.4" y1="344.4" x2="251.4" y2="349.9"/>
<path class="st0" d="M381.2,322.6H248 M383.4,349.8H248"/>
<line class="st4" x1="285.1" y1="344.4" x2="403.3" y2="344.4"/>
<rect x="137" y="266.7" class="st0" width="3" height="19.8"/>
<path class="st1" d="M361.9,178.5h17.5v51.6h-17.5V178.5z M324.9,178.5h-17.4v51.6h17.4V178.5z M285,178.8h17.5v51.6H285V178.8z
	 M248.1,178.8h-17.5v51.6h17.5V178.8z M201.8,178.8h17.5v51.6h-17.5V178.8z M164.8,178.8h-17.5v51.6h17.5V178.8z"/>
<rect x="226" y="245" class="st0" width="1.9" height="6.1"/>
<path class="st1" d="M359.8,270.6h17.5v49.5h-17.5V270.6z M327,270.6h-17.5v49.5H327V270.6z"/>
<path class="st0" d="M137.5,251.1h1.9V245h-1.9V251.1z M380.9,251.1h2V245h-2V251.1z M304,251.1h2V245h-2V251.1z"/>
<path class="st4" d="M183.8,214h15.5 M167.2,214h15.3 M183.8,215.2h15.5 M167.2,215.2h15.3 M183.8,195.6h15.5 M167.2,195.6h15.3
	 M183.8,196.8h15.5 M167.2,196.8h15.3 M183.8,215.2V229 M183.8,196.8V214 M183.8,194.3v1.3 M183.8,215.2V229 M183.8,196.8V214
	 M183.8,178.8v16.8 M182.5,215.2V229 M182.5,196.8V214 M182.5,194.3v1.3 M182.5,215.2V229 M182.5,196.8V214 M182.5,178.8v16.8
	 M167.2,178.8h32V229h-32V178.8z"/>
<path class="st0" d="M218.4,366.7h6.9 M228.3,364.5V339l19.7-16.4"/>
<path class="st1" d="M220.6,370.6h9.1v-1.2h-9.1V370.6z M227.3,365.7h9.2v-1.2h-9.2V365.7z M234,360.9h9.1v-1.3H234V360.9z
	 M240.7,356h9.7v-1.2h-9.7V356z M250.4,351.1v3.7 M249.2,351.1v3.7 M248,351.1h8.5v-1.2H248V351.1z M218.4,366.8v5.4 M225.2,326.8
	v17.6"/>
<rect x="256.5" y="349.9" class="st1" width="126.9" height="1.2"/>
<polyline class="st1" points="222.4,372.2 218.4,372.2 218.4,367 218.4,366.8 "/>
<line class="st14" x1="219.7" y1="364.3" x2="157.4" y2="364.3"/>
<path class="st1" d="M290,269.1v80.8 M284.5,269.1v80.8"/>
<line class="st14" x1="242.8" y1="266.1" x2="293" y2="266.1"/>
<g>
	<g>
		<g>
			<g>
				<defs>
					<rect id="SVGID_41_" x="-825.8" y="-0.8" width="1796.7" height="400.7"/>
				</defs>
				<clipPath id="SVGID_42_">
					<use xlink:href="#SVGID_41_"  style="overflow:visible;"/>
				</clipPath>
				<path class="st25" d="M223,370.6v3.6 M221.8,370.6v3.6 M229.7,365.7v3.7 M228.5,365.7v3.7 M236.4,360.9v3.6 M235.2,360.9v3.6
					 M243.1,356v3.6 M241.9,356v3.6 M293,266c-1.3,0.6-2.4,1.7-3,3 M245.8,269.1c-0.6-1.3-1.7-2.4-3-3"/>
			</g>
		</g>
	</g>
</g>
<path class="st4" d="M203,363.3l0.4,1 M202,360.8l0.7,1.6 M200.9,358.3l0.7,1.7 M199.8,355.8l0.7,1.7 M198.8,353.3l0.7,1.6
	 M197.7,350.8l0.7,1.7 M196.6,348.3l0.7,1.7 M195.6,345.9l0.7,1.6 M194.5,343.3l0.7,1.7 M193.4,340.9l0.7,1.6 M192.3,338.4l0.7,1.6
	 M191.3,335.9l0.7,1.7 M190.8,333.1l-0.3,0.9l0.4,1 M191.8,330.6l-0.7,1.7 M192.7,328.1l-0.7,1.7 M193.7,325.6l-0.7,1.7 M194.7,323
	l-0.7,1.7 M195.6,320.5l-0.7,1.7 M196.6,318l-0.7,1.7 M197.6,315.4l-0.7,1.7 M198.5,312.9l-0.7,1.7 M199.5,310.4l-0.7,1.7
	 M200.5,307.8l-0.7,1.7 M201.4,305.3l-0.7,1.7 M202.4,302.8l-0.7,1.7 M203.3,300.2l-0.7,1.7 M203.9,298.5l-0.3,0.9 M203.5,313.7h-13
	 M204.7,313.7h15H204.7z M204.7,314.9v0.8 M204.7,298.6v15.1 M203.5,314.9v0.8 M203.5,298.4v15.2 M203.5,331.3h-13 M204.7,316.9
	v14.4h15h-15 M203.5,316.9v14.4 M203.5,314.9h-13 M204.7,314.9h15H204.7z M203.5,347h-13 M204.7,347h15H204.7z M203.5,348.2h-13
	 M204.7,348.2h15H204.7v16.2 M204.7,347v-14.4V347z M204.7,315.7v15.6 M203.5,348.2v16.2 M203.5,347v-14.4V347z M203.5,315.7v15.6
	h-13 M204.7,331.3h15H204.7z M203.5,332.5h-13 M204.7,332.5h15H204.7z M191.8,333.4h1v6h-1V333.4z M171.9,363.3l-0.4,1 M172.9,360.8
	l-0.7,1.6 M174,358.3l-0.7,1.7 M175.1,355.8l-0.7,1.7 M176.2,353.3l-0.7,1.6 M177.2,350.8l-0.7,1.7 M178.3,348.3l-0.7,1.7
	 M179.4,345.9l-0.7,1.6 M180.4,343.3l-0.7,1.7 M181.5,340.9l-0.7,1.6 M182.5,338.4l-0.7,1.6 M183.6,335.9l-0.7,1.7 M184.1,333.1
	l0.4,0.9l-0.4,1 M183.1,330.6l0.7,1.7 M182.1,328.1l0.7,1.7 M181.2,325.6l0.7,1.7 M180.2,323l0.7,1.7 M179.3,320.5l0.6,1.7
	 M178.3,318l0.6,1.7 M177.4,315.4l0.6,1.7 M176.4,312.9l0.6,1.7 M175.4,310.4l0.6,1.7 M174.5,307.8l0.6,1.7 M173.5,305.3l0.6,1.7
	 M172.5,302.8l0.6,1.7 M171.6,300.2l0.6,1.7 M170.9,298.5l0.3,0.9 M171.5,313.7h13 M170.2,313.7h-12.6H170.2z M170.2,314.9v0.8
	 M170.2,298.6v15.1 M171.5,314.9v0.8 M171.5,298.4v15.2 M171.5,331.3h13 M170.2,316.9v14.4h-12.6h12.6 M171.5,316.9v14.4
	 M171.5,314.9h13 M170.2,314.9h-12.6H170.2z M171.5,347h13 M170.2,347h-12.6H170.2z M171.5,348.2h13 M170.2,348.2h-12.6H170.2v16.2
	 M170.2,347v-14.4V347z M170.2,315.7v15.6 M171.5,348.2v16.2 M171.5,347v-14.4V347z M171.5,315.7v15.6h13 M170.2,331.3h-12.6H170.2z
	 M171.5,332.5h13 M170.2,332.5h-12.6H170.2z"/>
<g>
	<g>
		<g>
			<g>
				<defs>
					<rect id="SVGID_43_" x="-825.8" y="-0.8" width="1796.7" height="400.7"/>
				</defs>
				<clipPath id="SVGID_44_">
					<use xlink:href="#SVGID_43_"  style="overflow:visible;"/>
				</clipPath>
				<line class="st26" x1="53.2" y1="367.6" x2="-825.8" y2="367.6"/>
			</g>
		</g>
	</g>
</g>
<path class="st27" d="M525,27.7c0-1.9,0-3.7,0-5.5c0.7,0,1.3,0,1.9,0c0.5,0,0.8,0.3,0.8,0.8c0,1.3,0,2.5,0,3.8
	c0,0.4-0.3,0.7-0.7,0.8C526.4,27.6,525.7,27.6,525,27.7z"/>
<path class="st27" d="M500.8,3.8c0-0.6,0-1.2,0-1.7c0.6,0,1.1,0,1.7,0c0.2,0,0.3,0.3,0.4,0.4c0,0.1,0,0.2,0,0.3c0,0.9-0.1,1-1,1
	C501.6,3.8,501.2,3.8,500.8,3.8z"/>
<g>
	<g>
		<path class="st28" d="M445.59,104.35h-2.06v-2.06h4.65v5.89c-1.44,0.7-3.06,1.05-5.21,1.05c-1.86,0-3.64-0.62-3.64-3.32v-4.43
			c0-2.68,1.06-3.91,4.03-3.91c1.27,0,2.87,0.16,4.51,0.44l-0.46,2c-1.76-0.27-2.86-0.36-3.76-0.36c-1.56,0-1.73,0.6-1.73,1.95v4.27
			c0,1.11,0.43,1.3,1.59,1.3c0.56,0,1.48-0.14,2.08-0.32V104.35z"/>
		<path class="st28" d="M450.69,109.08V97.71h7.84l-0.33,2.13h-4.92v2.27h4.86l-0.33,2.13h-4.52v2.71h5.19v2.13H450.69z"/>
		<path class="st28" d="M467.04,109.08l-2.1-4.56h-1.51v4.56h-2.59V97.71h4.38c2.33,0,4.13,0.36,4.13,3.32v0.48
			c0,1.43-0.6,2.32-1.87,2.78l2.48,4.79H467.04z M466.77,100.81c0-0.7-0.33-1.02-1.38-1.02h-1.95v2.78h2.19
			c0.81,0,1.14-0.33,1.14-1.03V100.81z"/>
		<path class="st28" d="M481.47,109.08v-7.49l-2.75,5.75h-1.67l-2.75-5.75v7.49h-2.51V97.71h3.14l2.94,6.33l2.95-6.33h3.14v11.37
			H481.47z"/>
		<path class="st28" d="M493.72,109.08l-0.67-2.06h-3.83l-0.67,2.06h-2.87l4-11.37h2.91l3.98,11.37H493.72z M491.13,100.22
			l-1.43,4.73h2.87L491.13,100.22z"/>
		<path class="st28" d="M504.92,109.08l-4.14-7.14v7.14h-2.51V97.71h2.49l4.24,7.05v-7.05h2.52v11.37H504.92z"/>
	</g>
	<g>
		<path class="st28" d="M439.62,125.34v-13.56h5.05c3.69,0,5.41,1,5.41,4.64v4.28c0,3.03-0.95,4.64-5.06,4.64H439.62z M447,116.58
			c0-1.5-0.08-2.31-2.01-2.31h-2.29v8.61h2.14c1.82,0,2.16-0.51,2.16-1.8V116.58z"/>
		<path class="st28" d="M452.74,125.34v-13.56h9.35l-0.4,2.54h-5.87v2.71h5.79l-0.4,2.54h-5.4v3.24h6.19v2.54H452.74z"/>
		<path class="st28" d="M474.7,121.54c0,2.44-1.7,3.98-5.24,3.98c-2.03,0-3.98-0.36-5.15-0.68l0.83-2.46
			c0.85,0.23,2.58,0.61,4.3,0.61c1.53,0,2.12-0.61,2.12-1.59v-0.32c0-1.1-0.51-1.42-1.8-1.42h-1.67c-2.54,0-3.77-1.44-3.77-3.71
			v-0.36c0.06-2.59,1.59-3.96,4.24-3.96h0.45c1.72,0,4.41,0.3,5.64,0.49l-0.91,2.4c-1.4-0.17-3.41-0.34-4.45-0.36h-0.51
			c-1,0-1.34,0.55-1.34,1.34v0.38c0,0.68,0.28,1.16,1.23,1.16h1.95c2.5,0,4.07,1.02,4.07,3.82V121.54z"/>
		<path class="st28" d="M477.33,125.34v-13.56h3.08v13.56H477.33z"/>
		<path class="st28" d="M490.66,119.7h-2.46v-2.46h5.55v7.02c-1.72,0.83-3.65,1.25-6.21,1.25c-2.21,0-4.34-0.74-4.34-3.96v-5.28
			c0-3.2,1.27-4.66,4.81-4.66c1.51,0,3.43,0.19,5.38,0.53l-0.55,2.39c-2.1-0.32-3.41-0.44-4.49-0.44c-1.86,0-2.06,0.72-2.06,2.33
			v5.09c0,1.33,0.51,1.55,1.89,1.55c0.66,0,1.76-0.17,2.48-0.38V119.7z"/>
		<path class="st28" d="M504.42,125.34l-4.94-8.52v8.52h-2.99v-13.56h2.97l5.05,8.41v-8.41h3.01v13.56H504.42z"/>
	</g>
	<g>
		<path class="st28" d="M447.74,141.54l-0.78-2.43h-4.5l-0.78,2.43h-3.38l4.7-13.36h3.41l4.68,13.36H447.74z M444.7,131.13
			l-1.68,5.56h3.38L444.7,131.13z"/>
		<path class="st28" d="M462.89,141.54l-2.43-9.22l-2.41,9.22h-4.03l-2.95-13.36h3.32l1.75,10.11l2.59-9.7h3.45l2.59,9.7l1.75-10.11
			h3.3l-2.95,13.36H462.89z"/>
		<path class="st28" d="M479.27,141.54l-0.78-2.43h-4.5l-0.78,2.43h-3.38l4.7-13.36h3.41l4.68,13.36H479.27z M476.23,131.13
			l-1.68,5.56h3.38L476.23,131.13z"/>
		<path class="st28" d="M491.81,141.54l-2.46-5.35h-1.77v5.35h-3.04v-13.36h5.15c2.74,0,4.85,0.43,4.85,3.9v0.56
			c0,1.68-0.71,2.72-2.2,3.26l2.91,5.63H491.81z M491.49,131.82c0-0.82-0.39-1.19-1.62-1.19h-2.29v3.26h2.57
			c0.95,0,1.34-0.39,1.34-1.21V131.82z"/>
		<path class="st28" d="M497.49,141.54v-13.36h4.98c3.64,0,5.34,0.99,5.34,4.57v4.22c0,2.98-0.93,4.57-4.98,4.57H497.49z
			 M504.76,132.9c0-1.47-0.07-2.28-1.98-2.28h-2.26v8.49h2.11c1.79,0,2.13-0.5,2.13-1.77V132.9z"/>
	</g>
	<g>
		<path class="st28" d="M448.35,153.07c0,2.14-1.49,3.49-4.6,3.49c-1.78,0-3.49-0.32-4.52-0.6l0.73-2.16
			c0.75,0.2,2.26,0.53,3.77,0.53c1.34,0,1.86-0.53,1.86-1.39v-0.28c0-0.96-0.45-1.25-1.58-1.25h-1.46c-2.22,0-3.3-1.26-3.3-3.25
			v-0.32c0.05-2.27,1.39-3.47,3.72-3.47h0.4c1.51,0,3.87,0.27,4.95,0.43l-0.8,2.11c-1.23-0.15-2.99-0.3-3.9-0.32h-0.45
			c-0.88,0-1.18,0.48-1.18,1.18v0.33c0,0.6,0.25,1.01,1.08,1.01h1.71c2.19,0,3.57,0.9,3.57,3.35V153.07z"/>
		<path class="st28" d="M450.65,156.41v-11.88h4.58c3.15,0,4.12,0.76,4.12,3.37v0.85c0,2.26-1.16,3.15-3.95,3.15h-2.04v4.52H450.65z
			 M456.65,147.84c0-0.88-0.2-1.14-1.48-1.14h-1.81v3.02h1.81c1.26,0,1.48-0.23,1.48-1.05V147.84z"/>
		<path class="st28" d="M461.33,156.41v-11.88h8.2l-0.35,2.22h-5.15v2.37h5.08l-0.35,2.22h-4.73v2.84h5.43v2.22H461.33z"/>
		<path class="st28" d="M480.03,155.86c-0.73,0.23-2.69,0.7-4.47,0.7c-2.94,0-4.08-0.91-4.08-3.73v-4.4c0-2.8,0.95-4.05,4.08-4.05
			c1.31,0,2.89,0.15,4.33,0.43l-0.48,2.11c-1.76-0.28-2.57-0.37-3.49-0.37c-1.59,0-1.74,0.66-1.74,2.07v4.15
			c0,1.23,0.27,1.61,1.66,1.61c1.1,0,2.22-0.17,3.5-0.56L480.03,155.86z"/>
		<path class="st28" d="M482.15,156.41v-11.88h2.71v11.88H482.15z"/>
		<path class="st28" d="M495.03,156.41l-0.7-2.16h-4l-0.7,2.16h-3l4.18-11.88h3.04l4.17,11.88H495.03z M492.32,147.15l-1.49,4.95h3
			L492.32,147.15z"/>
		<path class="st28" d="M499.71,156.41v-11.88h2.71v9.66h5.43v2.22H499.71z"/>
	</g>
	<g>
		<path class="st28" d="M439.18,181.47v-4.37c0-4.37,0.74-5.61,4.47-7.58c0.95-0.52,3.45-1.79,4.31-2.28
			c0.62-0.34,1.23-0.77,1.23-1.76v-0.65c0-1.26-0.99-1.6-2.37-1.6c-1.85,0-4.77,0.49-6.5,0.83l-1.36-3.85
			c2.59-0.59,5.64-1.08,8.35-1.08c4.41,0,6.9,1.39,6.9,5.42v1.08c0,2.56-1.39,3.88-3.51,5.05c-1.02,0.55-3.88,2.03-4.9,2.65
			c-1.26,0.74-1.6,1.79-1.6,3.11v0.92h10.17v4.1H439.18z"/>
		<path class="st28" d="M465.92,181.75c-6.07,0-8.19-2.43-8.19-7.61v-7.39c0-5.18,2.13-7.61,8.19-7.61h0.49
			c6.07,0,8.19,2.43,8.19,7.61v7.39c0,5.18-2.13,7.61-8.19,7.61H465.92z M469.58,166.78c0-2.74-0.46-3.64-3.02-3.64h-0.8
			c-2.56,0-3.02,0.89-3.02,3.64v7.33c0,2.74,0.46,3.64,3.02,3.64h0.8c2.56,0,3.02-0.89,3.02-3.64V166.78z"/>
		<path class="st28" d="M478.36,181.47v-4.37c0-4.37,0.74-5.61,4.47-7.58c0.95-0.52,3.45-1.79,4.31-2.28
			c0.62-0.34,1.23-0.77,1.23-1.76v-0.65c0-1.26-0.99-1.6-2.37-1.6c-1.85,0-4.77,0.49-6.5,0.83l-1.36-3.85
			c2.59-0.59,5.64-1.08,8.35-1.08c4.4,0,6.9,1.39,6.9,5.42v1.08c0,2.56-1.39,3.88-3.51,5.05c-1.02,0.55-3.88,2.03-4.9,2.65
			c-1.26,0.74-1.6,1.79-1.6,3.11v0.92h10.17v4.1H478.36z"/>
		<path class="st28" d="M502.45,181.47v-16.76l-3.97,2.62l-2.19-3.08l6.87-4.84h4.28v22.06H502.45z"/>
	</g>
	<path class="st28" d="M478.56,22.26v-8.19c6.65-2.24,11-7.56,11.14-14.07h-9.91c-0.16,3.29-2.89,5.85-6.22,5.85
		c-3.33,0-6.06-2.56-6.22-5.85h-9.9c0.13,6.5,4.48,11.83,11.14,14.07v8.19c-16.9,2.37-29.66,16.85-29.66,34.29
		c0,19.14,15.51,34.65,34.65,34.65s34.65-15.51,34.65-34.65C508.22,39.11,495.51,24.63,478.56,22.26z M473.57,81.98
		c-12.36,0-22.65-8.84-24.95-20.52h10.24c2.22,6.64,7.97,11.03,14.57,11.09v-9.91c-3.37-0.07-6.16-2.77-6.16-6.15
		c0-3.39,2.79-6.08,6.16-6.16v-9.91c-6.6,0.06-12.34,4.45-14.57,11.09h-10.22c2.35-11.62,12.62-20.39,24.93-20.39
		c14.05,0,25.43,11.39,25.43,25.43C499.01,70.59,487.62,81.98,473.57,81.98z"/>
</g>
</svg>
