<?xml version="1.0" encoding="utf-8"?>
<!-- Generator: Adobe Illustrator 23.0.2, SVG Export Plug-In . SVG Version: 6.00 Build 0)  -->
<svg version="1.1" id="Ebene_1" xmlns="http://www.w3.org/2000/svg" xmlns:xlink="http://www.w3.org/1999/xlink" x="0px" y="0px"
	 viewBox="0 0 882.1 399.9" style="enable-background:new 0 0 882.1 399.9;" xml:space="preserve">
<style type="text/css">
	.st0{fill:none;stroke:#000000;stroke-width:0.72;stroke-linecap:round;stroke-linejoin:round;stroke-miterlimit:10;}
	.st1{fill:none;stroke:#000000;stroke-width:0.54;stroke-linecap:round;stroke-linejoin:round;stroke-miterlimit:10;}
	.st2{fill:none;stroke:#000000;stroke-width:1.44;stroke-linecap:round;stroke-linejoin:round;stroke-miterlimit:10;}
	
		.st3{clip-path:url(#SVGID_2_);fill:none;stroke:#000000;stroke-width:0.54;stroke-linecap:round;stroke-linejoin:round;stroke-miterlimit:10;}
	.st4{fill:none;stroke:#000000;stroke-width:0.24;stroke-linecap:round;stroke-linejoin:round;stroke-miterlimit:10;}
	
		.st5{clip-path:url(#SVGID_4_);fill:none;stroke:#000000;stroke-width:0.54;stroke-linecap:round;stroke-linejoin:round;stroke-miterlimit:10;}
	
		.st6{clip-path:url(#SVGID_6_);fill:none;stroke:#000000;stroke-width:0.24;stroke-linecap:round;stroke-linejoin:round;stroke-miterlimit:10;}
	
		.st7{clip-path:url(#SVGID_8_);fill:none;stroke:#000000;stroke-width:0.54;stroke-linecap:round;stroke-linejoin:round;stroke-miterlimit:10;}
	
		.st8{clip-path:url(#SVGID_8_);fill:none;stroke:#000000;stroke-width:0.72;stroke-linecap:round;stroke-linejoin:round;stroke-miterlimit:10;}
	
		.st9{clip-path:url(#SVGID_10_);fill:none;stroke:#000000;stroke-width:0.72;stroke-linecap:round;stroke-linejoin:round;stroke-miterlimit:10;}
	
		.st10{clip-path:url(#SVGID_12_);fill:none;stroke:#000000;stroke-width:0.54;stroke-linecap:round;stroke-linejoin:round;stroke-miterlimit:10;}
	
		.st11{clip-path:url(#SVGID_12_);fill:none;stroke:#000000;stroke-width:0.24;stroke-linecap:round;stroke-linejoin:round;stroke-miterlimit:10;}
	
		.st12{clip-path:url(#SVGID_14_);fill:none;stroke:#000000;stroke-width:1.44;stroke-linecap:round;stroke-linejoin:round;stroke-miterlimit:10;}
	.st13{fill:none;stroke:#000000;stroke-width:0.36;stroke-linecap:round;stroke-linejoin:round;stroke-miterlimit:10;}
	
		.st14{clip-path:url(#SVGID_16_);fill:none;stroke:#000000;stroke-width:0.54;stroke-linecap:round;stroke-linejoin:round;stroke-miterlimit:10;}
	
		.st15{clip-path:url(#SVGID_18_);fill:none;stroke:#000000;stroke-width:0.54;stroke-linecap:round;stroke-linejoin:round;stroke-miterlimit:10;}
	
		.st16{clip-path:url(#SVGID_20_);fill:none;stroke:#000000;stroke-width:0.54;stroke-linecap:round;stroke-linejoin:round;stroke-miterlimit:10;}
	
		.st17{clip-path:url(#SVGID_22_);fill:none;stroke:#000000;stroke-width:0.24;stroke-linecap:round;stroke-linejoin:round;stroke-miterlimit:10;}
	
		.st18{clip-path:url(#SVGID_24_);fill:none;stroke:#000000;stroke-width:0.54;stroke-linecap:round;stroke-linejoin:round;stroke-miterlimit:10;}
	
		.st19{clip-path:url(#SVGID_24_);fill:none;stroke:#000000;stroke-width:0.72;stroke-linecap:round;stroke-linejoin:round;stroke-miterlimit:10;}
	
		.st20{clip-path:url(#SVGID_26_);fill:none;stroke:#000000;stroke-width:0.72;stroke-linecap:round;stroke-linejoin:round;stroke-miterlimit:10;}
	
		.st21{clip-path:url(#SVGID_28_);fill:none;stroke:#000000;stroke-width:0.54;stroke-linecap:round;stroke-linejoin:round;stroke-miterlimit:10;}
	
		.st22{clip-path:url(#SVGID_28_);fill:none;stroke:#000000;stroke-width:0.24;stroke-linecap:round;stroke-linejoin:round;stroke-miterlimit:10;}
	
		.st23{clip-path:url(#SVGID_30_);fill:none;stroke:#000000;stroke-width:0.54;stroke-linecap:round;stroke-linejoin:round;stroke-miterlimit:10;}
	.st24{clip-path:url(#SVGID_32_);fill:none;stroke:#000000;stroke-width:1.5;}
</style>
<line class="st0" x1="295.6" y1="139.5" x2="295.6" y2="268.5"/>
<line class="st1" x1="295.6" y1="284.7" x2="295.6" y2="368.8"/>
<path class="st0" d="M580.2,157.8l-0.4,221.5 M580.2,139.5v16.8 M289.6,284.7v84.1"/>
<path class="st1" d="M393.1,366.7v2.8 M394.4,301v65.7 M400.5,295.8v0.3"/>
<line class="st2" x1="295.6" y1="368.8" x2="289.6" y2="368.8"/>
<g>
	<defs>
		<rect id="SVGID_1_" x="-651.1" y="-0.8" width="1796.7" height="400.7"/>
	</defs>
	<clipPath id="SVGID_2_">
		<use xlink:href="#SVGID_1_"  style="overflow:visible;"/>
	</clipPath>
	<path class="st3" d="M502.7,269.1h30.8v51.1h-30.8V269.1z M365.2,297.5v73 M365.2,294.5L365.2,294.5 M359.1,297.5v73 M359.1,294.5
		L359.1,294.5 M362.1,294.5v76.1 M359.6,294.5v-8.3 M365.7,294.5v-8.3 M324.2,296.1v74.4 M328.3,296.1v74.4 M324.1,296.1
		c-0.9-1.5-2-2.9-3.3-4.1 M331.4,292c-1.2,1.2-2.3,2.6-3.3,4.1 M329.2,296.1h-6.1 M329.2,295.8h-6.1 M365.7,286.3h-6.1 M359.6,290.4
		l-6,0.2l-6,0.5l-6,0.7l-5.9,0.9l-5.9,1.2 M393.5,293.5l-5.5-1l-5.5-0.8l-5.6-0.6l-5.6-0.4l-5.6-0.2 M323.7,295.4l-0.5,0.1
		 M359.1,297.5l-5.4,0.2l-5.4,0.4l-5.4,0.7l-5.3,0.8l-5.3,1 M394.4,301l-5.8-1.1l-5.8-0.9l-5.8-0.7l-5.9-0.4l-5.8-0.2 M395.3,298.1
		l-6-1.2l-6-1l-6.1-0.7l-6.1-0.5l-6.1-0.2h-6.1l-6.1,0.3l-6.1,0.5l-6.1,0.8l-6,1l-6,1.3 M331.5,292h-10.6 M332.3,300.7v69.9
		 M329.2,298.2v72.3 M329.2,295.8v0.3 M323.1,295.5v75 M323.1,295.8v0.3 M399.9,296.1v70.5 M395.3,296.1v70.5 M402.8,292
		c-1.2,1.2-2.3,2.6-3.3,4.1 M395.5,296.1c-0.9-1.5-2-2.9-3.3-4.1 M392.2,292h10.6"/>
</g>
<rect x="504.2" y="270.6" class="st4" width="27.8" height="48"/>
<path class="st1" d="M496.6,263h43 M499.7,323.8v-57.7h36.9v57.7"/>
<path class="st4" d="M517.5,303.1v15.5 M517.5,301.9v-14.5V301.9z M517.5,270.6v15.6 M518.7,303.1v15.5 M518.7,301.9v-14.5V301.9z
	 M518.7,270.6v15.6H532 M504.2,286.3h13.3 M518.7,287.5H532 M504.2,287.5h13.3"/>
<g>
	<defs>
		<rect id="SVGID_3_" x="-651.1" y="-0.8" width="1796.7" height="400.7"/>
	</defs>
	<clipPath id="SVGID_4_">
		<use xlink:href="#SVGID_3_"  style="overflow:visible;"/>
	</clipPath>
	<path class="st5" d="M536.6,266c-1.3,0.6-2.4,1.7-3,3 M539.6,263c-1.3,0.6-2.4,1.7-3,3 M502.7,269.1c-0.6-1.3-1.7-2.4-3-3
		 M499.7,266c-0.6-1.3-1.7-2.4-3-3 M496.6,263v-0.6h43v0.6"/>
</g>
<line class="st0" x1="580.2" y1="139.5" x2="284.9" y2="139.5"/>
<path class="st4" d="M585.4,40.4h4.2 M576.5,40.4h6.2 M569.6,40.4h4.8 M562.1,40.4h4.1 M553.1,40.4h6.1 M546.3,40.4h4.8 M538.7,40.4
	h4.1 M529.8,40.4h6.2 M522.9,40.4h4.8 M515.4,40.4h4.2 M506.4,40.4h6.2 M499.6,40.4h4.8 M492,40.4h4.1 M483.1,40.4h6.1 M476.2,40.4
	h4.8 M468.6,40.4h4.2 M459.7,40.4h6.2 M452.8,40.4h4.8 M445.3,40.4h4.1 M436.4,40.4h6.1 M429.5,40.4h4.8 M422,40.4h4.1 M413,40.4
	h6.2 M406.1,40.4h4.8 M398.6,40.4h4.2 M389.7,40.4h6.2 M382.8,40.4h4.8 M375.3,40.4h4.1 M366.4,40.4h6.1 M359.5,40.4h4.8
	 M351.9,40.4h4.2 M343,40.4h6.2 M336.1,40.4h4.8 M328.6,40.4h4.1 M319.6,40.4h6.1 M312.8,40.4h4.8 M305.2,40.4h4.1 M296.2,40.4h6.2
	 M289.4,40.4h4.8 M284.9,40.4h1.1 M587.1,32.1h3.8 M579.5,32.1h4.2 M570.6,32.1h6.2 M563.8,32.1h4.8 M556.2,32.1h4.1 M547.3,32.1
	h6.2 M540.4,32.1h4.8 M532.9,32.1h4.1 M524,32.1h6.1 M517.1,32.1h4.8 M509.5,32.1h4.2 M500.6,32.1h6.2 M493.7,32.1h4.8 M486.2,32.1
	h4.1 M477.3,32.1h6.1 M470.4,32.1h4.8 M462.8,32.1h4.2 M453.9,32.1h6.2 M447,32.1h4.8 M439.5,32.1h4.1 M430.5,32.1h6.2 M423.7,32.1
	h4.8 M416.1,32.1h4.1 M407.2,32.1h6.1 M400.3,32.1h4.8 M392.8,32.1h4.2 M383.8,32.1h6.2 M377,32.1h4.8 M369.4,32.1h4.1 M360.5,32.1
	h6.1 M353.6,32.1h4.8 M346,32.1h4.2 M337.1,32.1h6.2 M330.2,32.1h4.8 M322.7,32.1h4.1 M313.8,32.1h6.2 M306.9,32.1h4.8 M299.4,32.1
	h4.1 M290.5,32.1h6.1 M284.9,32.1h3.5 M588.2,23.9h2.8 M581.3,23.9h4.8 M573.8,23.9h4.1 M564.8,23.9h6.1 M558,23.9h4.8 M550.4,23.9
	h4.2 M541.5,23.9h6.2 M534.6,23.9h4.8 M527,23.9h4.1 M518.1,23.9h6.1 M511.3,23.9h4.8 M503.7,23.9h4.2 M494.7,23.9h6.2 M487.9,23.9
	h4.8 M480.3,23.9h4.1 M471.4,23.9h6.1 M464.5,23.9h4.8 M457,23.9h4.1 M448.1,23.9h6.1 M441.2,23.9h4.8 M433.6,23.9h4.2 M424.7,23.9
	h6.2 M417.8,23.9h4.8 M410.3,23.9h4.1 M401.4,23.9h6.1 M394.5,23.9h4.8 M386.9,23.9h4.2 M378,23.9h6.2 M371.1,23.9h4.8 M363.6,23.9
	h4.1 M354.7,23.9h6.1 M347.8,23.9h4.8 M340.3,23.9h4.1 M331.3,23.9h6.1 M324.5,23.9h4.8 M316.9,23.9h4.2 M307.9,23.9h6.2
	 M301.1,23.9h4.8 M293.5,23.9h4.1 M284.9,23.9h5.9 M582.3,15.6h6.2 M575.5,15.6h4.8 M567.9,15.6h4.1 M559,15.6h6.1 M552.1,15.6h4.8
	 M544.5,15.6h4.2 M535.6,15.6h6.2 M528.7,15.6h4.8 M521.2,15.6h4.1 M512.3,15.6h6.1 M505.4,15.6h4.8 M497.9,15.6h4.1 M488.9,15.6
	h6.2 M482.1,15.6h4.8 M474.5,15.6h4.2 M465.6,15.6h6.2 M458.7,15.6h4.8 M451.2,15.6h4.1 M442.2,15.6h6.1 M435.4,15.6h4.8
	 M427.8,15.6h4.2 M418.9,15.6h6.2 M412,15.6h4.8 M404.4,15.6h4.1 M395.5,15.6h6.1 M388.7,15.6h4.8 M381.1,15.6h4.1 M372.1,15.6h6.2
	 M365.3,15.6h4.8 M357.7,15.6h4.2 M348.8,15.6h6.2 M341.9,15.6h4.8 M334.4,15.6h4.1 M325.5,15.6h6.1 M318.6,15.6h4.8 M311,15.6h4.2
	 M302.1,15.6h6.2 M295.2,15.6h4.8 M287.7,15.6h4.1 M284.9,15.6L284.9,15.6 M585.4,7.4h4.2 M576.5,7.4h6.2 M569.6,7.4h4.8 M562.1,7.4
	h4.1 M553.1,7.4h6.1 M546.3,7.4h4.8 M538.7,7.4h4.1 M529.8,7.4h6.2 M522.9,7.4h4.8 M515.4,7.4h4.2 M506.4,7.4h6.2 M499.6,7.4h4.8
	 M492,7.4h4.1 M483.1,7.4h6.1 M476.2,7.4h4.8 M468.6,7.4h4.2 M459.7,7.4h6.2 M452.8,7.4h4.8 M445.3,7.4h4.1 M436.4,7.4h6.1
	 M429.5,7.4h4.8 M422,7.4h4.1 M413,7.4h6.2 M406.1,7.4h4.8 M398.6,7.4h4.2 M389.7,7.4h6.2 M382.8,7.4h4.8 M375.3,7.4h4.1 M366.4,7.4
	h6.1 M359.5,7.4h4.8 M351.9,7.4h4.2 M343,7.4h6.2 M336.1,7.4h4.8 M328.6,7.4h4.1 M319.6,7.4h6.1 M312.8,7.4h4.8 M305.2,7.4h4.1
	 M296.2,7.4h6.2 M289.4,7.4h4.8 M284.9,7.4h1.1"/>
<path class="st4" d="M284.9,131h3.5 M588.2,122.8h2.8 M581.3,122.8h4.8 M573.8,122.8h4.1 M564.8,122.8h6.1 M558,122.8h4.8
	 M550.4,122.8h4.2 M541.5,122.8h6.2 M534.6,122.8h4.8 M527,122.8h4.1 M518.1,122.8h6.1 M511.3,122.8h4.8 M503.7,122.8h4.2
	 M494.7,122.8h6.2 M487.9,122.8h4.8 M480.3,122.8h4.1 M471.4,122.8h6.1 M464.5,122.8h4.8 M457,122.8h4.1 M448.1,122.8h6.1
	 M441.2,122.8h4.8 M433.6,122.8h4.2 M424.7,122.8h6.2 M417.8,122.8h4.8 M410.3,122.8h4.1 M401.4,122.8h6.1 M394.5,122.8h4.8
	 M386.9,122.8h4.2 M378,122.8h6.2 M371.1,122.8h4.8 M363.6,122.8h4.1 M354.7,122.8h6.1 M347.8,122.8h4.8 M340.3,122.8h4.1
	 M331.3,122.8h6.1 M324.5,122.8h4.8 M316.9,122.8h4.2 M307.9,122.8h6.2 M301.1,122.8h4.8 M293.5,122.8h4.1 M284.9,122.8h5.9
	 M582.3,114.5h6.2 M575.5,114.5h4.8 M567.9,114.5h4.1 M559,114.5h6.1 M552.1,114.5h4.8 M546.8,114.5h1.9 M341.9,114.5h4.8
	 M334.4,114.5h4.1 M325.5,114.5h6.1 M318.6,114.5h4.8 M311,114.5h4.2 M302.1,114.5h6.2 M295.2,114.5h4.8 M287.7,114.5h4.1
	 M284.9,114.5L284.9,114.5 M585.4,106.3h4.2 M576.5,106.3h6.2 M569.6,106.3h4.8 M562.1,106.3h4.1 M553.1,106.3h6.1 M546.8,106.3h4.3
	 M343,106.3h4 M336.1,106.3h4.8 M328.6,106.3h4.1 M319.6,106.3h6.1 M312.8,106.3h4.8 M305.2,106.3h4.1 M296.2,106.3h6.2
	 M289.4,106.3h4.8 M284.9,106.3h1.1 M587.1,98.1h3.8 M579.5,98.1h4.2 M570.6,98.1h6.2 M563.8,98.1h4.8 M556.2,98.1h4.1 M547.3,98.1
	h6.2 M346,98.1h1 M337.1,98.1h6.2 M330.2,98.1h4.8 M322.7,98.1h4.1 M313.8,98.1h6.2 M306.9,98.1h4.8 M299.4,98.1h4.1 M290.5,98.1
	h6.1 M284.9,98.1h3.5 M588.2,89.8h2.8 M581.3,89.8h4.8 M573.8,89.8h4.1 M564.8,89.8h6.1 M558,89.8h4.8 M550.4,89.8h4.2 M547.1,89.8
	h0.6 M340.3,89.8h4.1 M331.3,89.8h6.1 M324.5,89.8h4.8 M316.9,89.8h4.2 M307.9,89.8h6.2 M301.1,89.8h4.8 M293.5,89.8h4.1
	 M284.9,89.8h5.9 M582.3,81.6h6.2 M575.5,81.6h4.8 M567.9,81.6h4.1 M559,81.6h6.1 M552.1,81.6h4.8 M547.4,81.6h1.3 M341.9,81.6h4.8
	 M334.4,81.6h4.1 M325.5,81.6h6.1 M318.6,81.6h4.8 M311,81.6h4.2 M302.1,81.6h6.2 M295.2,81.6h4.8 M287.7,81.6h4.1 M284.9,81.6
	L284.9,81.6 M585.4,73.3h4.2 M576.5,73.3h6.2 M569.6,73.3h4.8 M562.1,73.3h4.1 M553.1,73.3h6.1 M547.6,73.3h3.5 M343,73.3h4.2
	 M336.1,73.3h4.8 M328.6,73.3h4.1 M319.6,73.3h6.1 M312.8,73.3h4.8 M305.2,73.3h4.1 M296.2,73.3h6.2 M289.4,73.3h4.8 M284.9,73.3
	h1.1 M587.1,65.1h3.8 M579.5,65.1h4.2 M570.6,65.1h6.2 M563.8,65.1h4.8 M556.2,65.1h4.1 M547.9,65.1h5.6 M346,65.1h1.2 M337.1,65.1
	h6.2 M330.2,65.1h4.8 M322.7,65.1h4.1 M313.8,65.1h6.2 M306.9,65.1h4.8 M299.4,65.1h4.1 M290.5,65.1h6.1 M284.9,65.1h3.5
	 M588.2,56.8h2.8 M581.3,56.8h4.8 M573.8,56.8h4.1 M564.8,56.8h6.1 M558,56.8h4.8 M550.4,56.8h4.2 M340.3,56.8h4.1 M331.3,56.8h6.1
	 M324.5,56.8h4.8 M316.9,56.8h4.2 M307.9,56.8h6.2 M301.1,56.8h4.8 M293.5,56.8h4.1 M284.9,56.8h5.9 M582.3,48.6h6.2 M575.5,48.6
	h4.8 M567.9,48.6h4.1 M559,48.6h6.1 M552.1,48.6h4.8 M544.5,48.6h4.2 M535.6,48.6h6.2 M528.7,48.6h4.8 M521.2,48.6h4.1 M512.3,48.6
	h6.1 M505.4,48.6h4.8 M497.9,48.6h4.1 M488.9,48.6h6.2 M482.1,48.6h4.8 M474.5,48.6h4.2 M465.6,48.6h6.2 M458.7,48.6h4.8
	 M451.2,48.6h4.1 M442.2,48.6h6.1 M435.4,48.6h4.8 M427.8,48.6h4.2 M418.9,48.6h6.2 M412,48.6h4.8 M404.4,48.6h4.1 M395.5,48.6h6.1
	 M388.7,48.6h4.8 M381.1,48.6h4.1 M372.1,48.6h6.2 M365.3,48.6h4.8 M357.7,48.6h4.2 M348.8,48.6h6.2 M341.9,48.6h4.8 M334.4,48.6
	h4.1 M325.5,48.6h6.1 M318.6,48.6h4.8 M311,48.6h4.2 M302.1,48.6h6.2 M295.2,48.6h4.8 M287.7,48.6h4.1 M284.9,48.6L284.9,48.6"/>
<path class="st4" d="M290.8,56.5h2.8 M588.5,48.3h2.4 M572,48.3h3.4 M565.1,48.3h2.8 M548.7,48.3h3.4 M541.8,48.3h2.7 M525.3,48.3
	h3.4 M518.4,48.3h2.8 M502,48.3h3.4 M495.1,48.3h2.8 M478.6,48.3h3.4 M471.8,48.3h2.7 M455.3,48.3h3.4 M448.4,48.3h2.8 M431.9,48.3
	h3.4 M425.1,48.3h2.7 M408.5,48.3h3.4 M401.7,48.3h2.8 M385.2,48.3h3.4 M378.3,48.3h2.8 M361.9,48.3h3.4 M355,48.3h2.7 M338.5,48.3
	h3.4 M331.6,48.3h2.8 M315.2,48.3h3.4 M308.3,48.3h2.7 M291.8,48.3h3.4 M284.9,48.3h2.8 M589.6,40h1.4 M582.7,40h2.7 M566.2,40h3.4
	 M559.3,40h2.8 M542.8,40h3.4 M536,40h2.8 M519.5,40h3.4 M512.6,40h2.7 M496.1,40h3.4 M489.3,40h2.8 M472.8,40h3.4 M465.9,40h2.7
	 M449.4,40h3.4 M442.5,40h2.8 M426.1,40h3.4 M419.2,40h2.8 M402.8,40h3.4 M395.9,40h2.7 M379.4,40h3.4 M372.5,40h2.8 M356,40h3.4
	 M349.2,40h2.7 M332.7,40h3.4 M325.8,40h2.8 M309.3,40h3.4 M302.5,40h2.8 M285.9,40h3.4 M583.7,31.8h3.4 M576.8,31.8h2.7
	 M560.3,31.8h3.4 M553.5,31.8h2.7 M537,31.8h3.4 M530.1,31.8h2.8 M513.7,31.8h3.4 M506.8,31.8h2.7 M490.3,31.8h3.4 M483.4,31.8h2.8
	 M467,31.8h3.4 M460.1,31.8h2.7 M443.6,31.8h3.4 M436.8,31.8h2.7 M420.2,31.8h3.4 M413.4,31.8h2.8 M396.9,31.8h3.4 M390,31.8h2.7
	 M373.5,31.8h3.4 M366.7,31.8h2.8 M350.2,31.8h3.4 M343.3,31.8h2.7 M326.8,31.8h3.4 M320,31.8h2.7 M303.5,31.8h3.4 M296.6,31.8h2.8
	 M577.9,23.5h3.4 M571,23.5h2.8 M554.5,23.5h3.4 M547.7,23.5h2.7 M531.1,23.5h3.4 M524.3,23.5h2.8 M507.8,23.5h3.4 M500.9,23.5h2.7
	 M484.4,23.5h3.4 M477.6,23.5h2.8 M461.1,23.5h3.4 M454.2,23.5h2.8 M437.8,23.5h3.4 M430.9,23.5h2.7 M414.4,23.5h3.4 M407.5,23.5
	h2.8 M391.1,23.5h3.4 M384.2,23.5h2.7 M367.7,23.5h3.4 M360.8,23.5h2.8 M344.3,23.5h3.4 M337.5,23.5h2.8 M321,23.5h3.4 M314.2,23.5
	h2.7 M297.6,23.5h3.4 M290.8,23.5h2.8 M588.5,15.3h2.4 M572,15.3h3.4 M565.1,15.3h2.8 M548.7,15.3h3.4 M541.8,15.3h2.7 M525.3,15.3
	h3.4 M518.4,15.3h2.8 M502,15.3h3.4 M495.1,15.3h2.8 M478.6,15.3h3.4 M471.8,15.3h2.7 M455.3,15.3h3.4 M448.4,15.3h2.8 M431.9,15.3
	h3.4 M425.1,15.3h2.7 M408.5,15.3h3.4 M401.7,15.3h2.8 M385.2,15.3h3.4 M378.3,15.3h2.8 M361.9,15.3h3.4 M355,15.3h2.7 M338.5,15.3
	h3.4 M331.6,15.3h2.8 M315.2,15.3h3.4 M308.3,15.3h2.7 M291.8,15.3h3.4 M284.9,15.3h2.8 M589.6,7.1h1.4 M582.7,7.1h2.7 M566.2,7.1
	h3.4 M559.3,7.1h2.8 M542.8,7.1h3.4 M536,7.1h2.8 M519.5,7.1h3.4 M512.6,7.1h2.7 M496.1,7.1h3.4 M489.3,7.1h2.8 M472.8,7.1h3.4
	 M465.9,7.1h2.7 M449.4,7.1h3.4 M442.5,7.1h2.8 M426.1,7.1h3.4 M419.2,7.1h2.8 M402.8,7.1h3.4 M395.9,7.1h2.7 M379.4,7.1h3.4
	 M372.5,7.1h2.8 M356,7.1h3.4 M349.2,7.1h2.7 M332.7,7.1h3.4 M325.8,7.1h2.8 M309.3,7.1h3.4 M302.5,7.1h2.8 M285.9,7.1h3.4
	 M587.1,131h3.8 M579.5,131h4.2 M570.6,131h6.2 M563.8,131h4.8 M556.2,131h4.1 M547.3,131h6.2 M540.4,131h4.8 M532.9,131h4.1
	 M524,131h6.1 M517.1,131h4.8 M509.5,131h4.2 M500.6,131h6.2 M493.7,131h4.8 M486.2,131h4.1 M477.3,131h6.1 M470.4,131h4.8
	 M462.8,131h4.2 M453.9,131h6.2 M447,131h4.8 M439.5,131h4.1 M430.5,131h6.2 M423.7,131h4.8 M416.1,131h4.1 M407.2,131h6.1
	 M400.3,131h4.8 M392.8,131h4.2 M383.8,131h6.2 M377,131h4.8 M369.4,131h4.1 M360.5,131h6.1 M353.6,131h4.8 M346,131h4.2 M337.1,131
	h6.2 M330.2,131h4.8 M322.7,131h4.1 M313.8,131h6.2 M306.9,131h4.8 M299.4,131h4.1 M290.5,131h6.1"/>
<path class="st4" d="M311.7,65.6h2 M288.4,65.6h2.1 M586.1,57.4h2 M562.7,57.4h2.1 M329.2,57.4h2.1 M305.9,57.4h2 M580.3,49.1h2
	 M556.9,49.1h2.1 M533.6,49.1h2.1 M510.2,49.1h2.1 M486.8,49.1h2 M463.5,49.1h2 M440.1,49.1h2.1 M416.8,49.1h2.1 M393.5,49.1h2.1
	 M370.1,49.1h2 M346.8,49.1h2 M323.4,49.1h2.1 M300,49.1h2.1 M574.4,40.9h2 M551.1,40.9h2 M527.7,40.9h2 M504.4,40.9h2 M481,40.9
	h2.1 M457.7,40.9h2 M434.3,40.9h2 M411,40.9h2.1 M387.6,40.9h2 M364.2,40.9h2.1 M340.9,40.9h2 M317.6,40.9h2 M294.2,40.9h2
	 M568.6,32.6h2 M545.3,32.6h2 M521.9,32.6h2.1 M498.5,32.6h2.1 M475.2,32.6h2.1 M451.8,32.6h2 M428.5,32.6h2 M405.1,32.6h2.1
	 M381.8,32.6h2.1 M358.5,32.6h2 M335.1,32.6h2 M311.7,32.6h2 M288.4,32.6h2.1 M586.1,24.4h2 M562.7,24.4h2.1 M539.4,24.4h2.1
	 M516.1,24.4h2 M492.7,24.4h2 M469.4,24.4h2 M446,24.4h2.1 M422.6,24.4h2 M399.3,24.4h2 M375.9,24.4h2 M352.6,24.4h2 M329.2,24.4
	h2.1 M305.9,24.4h2 M580.3,16.2h2 M556.9,16.2h2.1 M533.6,16.2h2.1 M510.2,16.2h2.1 M486.8,16.2h2 M463.5,16.2h2 M440.1,16.2h2.1
	 M416.8,16.2h2.1 M393.5,16.2h2.1 M370.1,16.2h2 M346.8,16.2h2 M323.4,16.2h2.1 M300,16.2h2.1 M574.4,7.9h2 M551.1,7.9h2 M527.7,7.9
	h2 M504.4,7.9h2 M481,7.9h2.1 M457.7,7.9h2 M434.3,7.9h2 M411,7.9h2.1 M387.6,7.9h2 M364.2,7.9h2.1 M340.9,7.9h2 M317.6,7.9h2
	 M294.2,7.9h2 M381.8-0.4h2.1 M358.5-0.4h2 M335.1-0.4h2 M311.7-0.4h2 M288.4-0.4h2.1 M583.7,130.7h3.4 M576.8,130.7h2.7
	 M560.3,130.7h3.4 M553.5,130.7h2.7 M537,130.7h3.4 M530.1,130.7h2.8 M513.7,130.7h3.4 M506.8,130.7h2.7 M490.3,130.7h3.4
	 M483.4,130.7h2.8 M467,130.7h3.4 M460.1,130.7h2.7 M443.6,130.7h3.4 M436.8,130.7h2.7 M420.2,130.7h3.4 M413.4,130.7h2.8
	 M396.9,130.7h3.4 M390,130.7h2.7 M373.5,130.7h3.4 M366.7,130.7h2.8 M350.2,130.7h3.4 M343.3,130.7h2.7 M326.8,130.7h3.4
	 M320,130.7h2.7 M303.5,130.7h3.4 M296.6,130.7h2.8 M577.9,122.4h3.4 M571,122.4h2.8 M554.5,122.4h3.4 M547.7,122.4h2.7
	 M344.3,122.4h2.7 M337.5,122.4h2.8 M321,122.4h3.4 M314.2,122.4h2.7 M297.6,122.4h3.4 M290.8,122.4h2.8 M588.5,114.2h2.4
	 M572,114.2h3.4 M565.1,114.2h2.8 M548.7,114.2h3.4 M338.5,114.2h3.4 M331.6,114.2h2.8 M315.2,114.2h3.4 M308.3,114.2h2.7
	 M291.8,114.2h3.4 M284.9,114.2h2.8 M589.6,106h1.4 M582.7,106h2.7 M566.2,106h3.4 M559.3,106h2.8 M332.7,106h3.4 M325.8,106h2.8
	 M309.3,106h3.4 M302.5,106h2.8 M285.9,106h3.4 M583.7,97.7h3.4 M576.8,97.7h2.7 M560.3,97.7h3.4 M553.5,97.7h2.7 M343.3,97.7h2.7
	 M326.8,97.7h3.4 M320,97.7h2.7 M303.5,97.7h3.4 M296.6,97.7h2.8 M577.9,89.5h3.4 M571,89.5h2.8 M554.5,89.5h3.4 M547.7,89.5h2.7
	 M344.3,89.5h2.7 M337.5,89.5h2.8 M321,89.5h3.4 M314.2,89.5h2.7 M297.6,89.5h3.4 M290.8,89.5h2.8 M588.5,81.2h2.4 M572,81.2h3.4
	 M565.1,81.2h2.8 M548.7,81.2h3.4 M338.5,81.2h3.4 M331.6,81.2h2.8 M315.2,81.2h3.4 M308.3,81.2h2.7 M291.8,81.2h3.4 M284.9,81.2
	h2.8 M589.6,73h1.4 M582.7,73h2.7 M566.2,73h3.4 M559.3,73h2.8 M332.7,73h3.4 M325.8,73h2.8 M309.3,73h3.4 M302.5,73h2.8 M285.9,73
	h3.4 M583.7,64.7h3.4 M576.8,64.7h2.7 M560.3,64.7h3.4 M553.5,64.7h2.7 M343.3,64.7h2.7 M326.8,64.7h3.4 M320,64.7h2.7 M303.5,64.7
	h3.4 M296.6,64.7h2.8 M577.9,56.5h3.4 M571,56.5h2.8 M554.5,56.5h3.4 M548.2,56.5h2.2 M344.3,56.5h3 M337.5,56.5h2.8 M321,56.5h3.4
	 M314.2,56.5h2.7 M297.6,56.5h3.4"/>
<path class="st4" d="M562.1,40.4v-7.9 M562.1,73.3v-7.9 M562.1,106.3v-7.9 M562.1,138.3v-7 M556.2,32.1v-7.9 M556.2,65.1v-7.9
	 M556.2,98.1v-7.9 M556.2,131v-7.9 M550.4,23.9V16 M550.4,56.8v-7.9 M550.4,89.8v-7.9 M550.4,122.8v-7.9 M544.5,15.6V7.7
	 M544.5,48.6v-7.9 M538.7,7.4V0.1 M538.7,40.4v-7.9 M538.7,138.3v-6.9 M532.9,32.1v-7.9 M532.9,131v-7.9 M527,23.9V16 M527,52.6
	v-3.7 M527,122.8v-0.2 M521.2,15.6V7.7 M521.2,48.6v-7.9 M515.4,7.4V0.1 M515.4,40.4v-7.9 M515.4,138.2v-6.9 M509.5,32.1v-7.9
	 M509.5,131v-7.9 M503.7,23.9V16 M503.7,52.6v-3.7 M503.7,122.8v-0.2 M497.9,15.6V7.7 M497.9,48.6v-7.9 M492,7.4v-7.5 M492,40.4
	v-7.9 M492,138.2v-6.8 M486.2,32.1v-7.9 M486.2,131v-7.9 M480.3,23.9V16 M480.3,52.6v-3.7 M480.3,122.8v-0.2 M474.5,15.6V7.7
	 M474.5,48.6v-7.9 M468.6,7.4v-7.5 M468.6,40.4v-7.9 M468.6,138.1v-6.8 M462.8,32.1v-7.9 M462.8,131v-7.9 M457,23.9V16 M457,52.6
	v-3.6 M457,122.8v-0.2 M451.2,15.6V7.7 M451.2,48.6v-7.9 M445.3,7.4v-7.6 M445.3,40.4v-7.9 M445.3,138v-6.7 M439.5,32.1v-7.9
	 M439.5,131v-7.9 M433.6,23.9V16 M433.6,52.6v-3.6 M433.6,122.8v-0.2 M427.8,15.6V7.7 M427.8,48.6v-7.9 M422,7.4v-7.7 M422,40.4
	v-7.9 M422,138v-6.6 M416.1,32.1v-7.9 M416.1,131v-7.9 M410.3,23.9V16 M410.3,52.5v-3.6 M410.3,122.8v-0.2 M404.4,15.6V7.7
	 M404.4,48.6v-7.9 M398.6,7.4v-7.7 M398.6,40.4v-7.9 M398.6,137.9v-6.5 M392.8,32.1v-7.9 M392.8,131v-7.9 M386.9,23.9V16
	 M386.9,52.5v-3.6 M386.9,122.8v-0.2 M381.1,15.6V7.7 M381.1,48.6v-7.9 M375.3,7.4v-7.8 M375.3,40.4v-7.9 M375.3,137.8v-6.4
	 M369.4,32.1v-7.9 M369.4,131v-7.9 M363.6,23.9V16 M363.6,52.5v-3.6 M363.6,122.8v-0.2 M357.7,15.6V7.7 M357.7,48.6v-7.9 M351.9,7.4
	v-7.9 M351.9,40.4v-7.9 M351.9,137.7v-6.4 M346,32.1v-7.9 M346,65.1v-7.9 M346,98.1v-7.9 M346,131v-7.9 M340.3,23.9V16 M340.3,56.8
	v-7.9 M340.3,89.8v-7.9 M340.3,122.8v-7.9 M334.4,15.6V7.7 M334.4,48.6v-7.9 M334.4,81.6v-7.9 M334.4,114.5v-7.9 M328.6,7.4v-7.9
	 M328.6,40.4v-7.9 M328.6,73.3v-7.9 M328.6,106.3v-7.9 M328.6,137.7v-6.3 M322.7,32.1v-7.9 M322.7,65.1v-7.9 M322.7,98.1v-7.9
	 M322.7,131v-7.9 M316.9,23.9V16 M316.9,56.8v-7.9 M316.9,89.8v-7.9 M316.9,122.8v-7.9 M311,15.6V7.7 M311,48.6v-7.9 M311,81.6v-7.9
	 M311,114.5v-7.9 M305.2,7.4v-7.9 M305.2,40.4v-7.9 M305.2,73.3v-7.9 M305.2,106.3v-7.9 M305.2,137.6v-6.3 M299.4,32.1v-7.9
	 M299.4,65.1v-7.9 M299.4,98.1v-7.9 M299.4,131v-7.9 M293.5,23.9V16 M293.5,56.8v-7.9 M293.5,89.8v-7.9 M293.5,122.8v-7.9
	 M287.7,15.6V7.7 M287.7,48.6v-7.9 M287.7,81.6v-7.9 M287.7,114.5v-7.9 M568.6,131.5h2 M545.3,131.5h2 M521.9,131.5h2.1
	 M498.5,131.5h2.1 M475.2,131.5h2 M451.8,131.5h2 M428.5,131.5h2 M405.1,131.5h2.1 M381.8,131.5h2 M358.5,131.5h2 M335.1,131.5h2
	 M311.7,131.5h2 M288.4,131.5h2.1 M586.1,123.3h2 M562.7,123.3h2.1 M539.4,123.3h2.1 M516.1,123.3h2 M492.7,123.3h2 M469.4,123.3h2
	 M446,123.3h2.1 M422.6,123.3h2 M399.3,123.3h2 M375.9,123.3h2 M352.6,123.3h2 M329.2,123.3h2.1 M305.9,123.3h2 M580.3,115.1h2
	 M556.9,115.1h2.1 M346.8,115.1h0.2 M323.4,115.1h2.1 M300,115.1h2.1 M574.4,106.8h2 M551.1,106.8h2 M340.9,106.8h2 M317.6,106.8h2
	 M294.2,106.8h2 M568.6,98.6h2 M546.8,98.6h0.5 M335.1,98.6h2 M311.7,98.6h2 M288.4,98.6h2.1 M586.1,90.3h2 M562.7,90.3h2.1
	 M329.2,90.3h2.1 M305.9,90.3h2 M580.3,82.1h2 M556.9,82.1h2.1 M346.8,82.1h0.4 M323.4,82.1h2.1 M300,82.1h2.1 M574.4,73.8h2
	 M551.1,73.8h2 M340.9,73.8h2 M317.6,73.8h2 M294.2,73.8h2 M568.6,65.6h2 M335.1,65.6h2"/>
<path class="st4" d="M306.9,65.1v-7.2 M306.9,98.1v-7.2 M306.9,131v-7.2 M301.1,23.9v-7.2 M301.1,56.8v-7.2 M301.1,89.8v-7.2
	 M301.1,122.8v-7.2 M295.2,15.6V8.4 M295.2,48.6v-7.2 M295.2,81.6v-7.2 M295.2,114.5v-7.2 M289.4,7.4V0.2 M289.4,40.4v-7.2
	 M289.4,73.3v-7.2 M289.4,106.3v-7.2 M289.4,137.6v-5.5 M589.6,7.4V0.2 M589.6,40.4v-7.8 M589.6,73.3v-7.7 M589.6,106.3v-7.7
	 M589.6,138.5v-6.9 M583.7,32.1v-7.7 M583.7,65.1v-7.7 M583.7,98.1v-7.8 M583.7,131v-7.8 M577.9,23.9v-7.7 M577.9,56.8v-7.7
	 M577.9,89.8v-7.7 M577.9,122.8v-7.7 M572,15.6V7.9 M572,48.6v-7.7 M572,81.6v-7.7 M572,114.5v-7.7 M566.2,7.4V0.2 M566.2,40.4v-7.8
	 M566.2,73.3v-7.7 M566.2,106.3v-7.7 M566.2,138.4v-6.9 M560.3,32.1v-7.7 M560.3,65.1v-7.7 M560.3,98.1v-7.8 M560.3,131v-7.8
	 M554.5,23.9v-7.7 M554.5,56.8v-7.7 M554.5,89.8v-7.7 M554.5,122.8v-7.7 M548.7,15.6V7.9 M548.7,48.6v-7.7 M548.7,81.6v-7.7
	 M548.7,114.5v-7.7 M542.8,7.4V0.1 M542.8,40.4v-7.8 M542.8,138.3v-6.8 M537,32.1v-7.7 M537,131v-7.8 M531.1,23.9v-7.7 M531.1,52.6
	v-3.5 M531.1,122.8v-0.2 M525.3,15.6V7.9 M525.3,48.6v-7.7 M519.5,7.4V0.1 M519.5,40.4v-7.8 M519.5,138.2v-6.7 M513.7,32.1v-7.7
	 M513.7,131v-7.8 M507.8,23.9v-7.7 M507.8,52.6v-3.5 M507.8,122.8v-0.2 M502,15.6V7.9 M502,48.6v-7.7 M496.1,7.4V0 M496.1,40.4v-7.8
	 M496.1,138.2v-6.6 M490.3,32.1v-7.7 M490.3,131v-7.8 M484.4,23.9v-7.7 M484.4,52.6v-3.5 M484.4,122.8v-0.2 M478.6,15.6V7.9
	 M478.6,48.6v-7.7 M472.8,7.4v-7.5 M472.8,40.4v-7.8 M472.8,138.1v-6.6 M467,32.1v-7.7 M467,131v-7.8 M461.1,23.9v-7.7 M461.1,52.6
	v-3.4 M461.1,122.8v-0.2 M455.3,15.6V7.9 M455.3,48.6v-7.7 M449.4,7.4v-7.6 M449.4,40.4v-7.8 M449.4,138v-6.5 M443.6,32.1v-7.7
	 M443.6,131v-7.8 M437.8,23.9v-7.7 M437.8,52.6v-3.4 M437.8,122.8v-0.2 M431.9,15.6V7.9 M431.9,48.6v-7.7 M426.1,7.4v-7.7
	 M426.1,40.4v-7.8 M426.1,138v-6.4 M420.2,32.1v-7.7 M420.2,131v-7.8 M414.4,23.9v-7.7 M414.4,52.5v-3.4 M414.4,122.8v-0.2
	 M408.5,15.6V7.9 M408.5,48.6v-7.7 M402.8,7.4v-7.7 M402.8,40.4v-7.8 M402.8,137.9v-6.4 M396.9,32.1v-7.7 M396.9,131v-7.8
	 M391.1,23.9v-7.7 M391.1,52.5v-3.4 M391.1,122.8v-0.2 M385.2,15.6V7.9 M385.2,48.6v-7.7 M379.4,7.4v-7.8 M379.4,40.4v-7.8
	 M379.4,137.8v-6.3 M373.5,32.1v-7.7 M373.5,131v-7.8 M367.7,23.9v-7.7 M367.7,52.5v-3.4 M367.7,122.8v-0.2 M361.9,15.6V7.9
	 M361.9,48.6v-7.7 M356,7.4v-7.8 M356,40.4v-7.8 M356,137.7v-6.2 M350.2,32.1v-7.7 M350.2,131v-7.8 M344.3,23.9v-7.7 M344.3,56.8
	v-7.7 M344.3,89.8v-7.7 M344.3,122.8v-7.7 M338.5,15.6V7.9 M338.5,48.6v-7.7 M338.5,81.6v-7.7 M338.5,114.5v-7.7 M332.7,7.4v-7.8
	 M332.7,40.4v-7.8 M332.7,73.3v-7.7 M332.7,106.3v-7.7 M332.7,137.7v-6.1 M326.8,32.1v-7.7 M326.8,65.1v-7.7 M326.8,98.1v-7.8
	 M326.8,131v-7.8 M321,23.9v-7.7 M321,56.8v-7.7 M321,89.8v-7.7 M321,122.8v-7.7 M315.2,15.6V7.9 M315.2,48.6v-7.7 M315.2,81.6v-7.7
	 M315.2,114.5v-7.7 M309.3,7.4v-7.8 M309.3,40.4v-7.8 M309.3,73.3v-7.7 M309.3,106.3v-7.7 M309.3,137.6v-6.1 M303.5,32.1v-7.7
	 M303.5,65.1v-7.7 M303.5,98.1v-7.8 M303.5,131v-7.8 M297.6,23.9v-7.7 M297.6,56.8v-7.7 M297.6,89.8v-7.7 M297.6,122.8v-7.7
	 M291.8,15.6V7.9 M291.8,48.6v-7.7 M291.8,81.6v-7.7 M291.8,114.5v-7.7 M285.9,7.4v-7.8 M285.9,40.4v-7.8 M285.9,73.3v-7.7
	 M285.9,106.3v-7.7 M285.9,137.6v-6 M585.4,7.4V0.2 M585.4,40.4v-7.9 M585.4,73.3v-7.9 M585.4,106.3v-7.9 M585.4,138.5v-7.1
	 M579.5,32.1v-7.9 M579.5,65.1v-7.9 M579.5,98.1v-7.9 M579.5,131v-7.9 M573.8,23.9V16 M573.8,56.8v-7.9 M573.8,89.8v-7.9
	 M573.8,122.8v-7.9 M567.9,15.6V7.7 M567.9,48.6v-7.9 M567.9,81.6v-7.9 M567.9,114.5v-7.9 M562.1,7.4V0.2"/>
<g>
	<defs>
		<rect id="SVGID_5_" x="-651.1" y="-0.8" width="1796.7" height="400.7"/>
	</defs>
	<clipPath id="SVGID_6_">
		<use xlink:href="#SVGID_5_"  style="overflow:visible;"/>
	</clipPath>
	<path class="st6" d="M358.5-0.4L358.5-0.4 M358.5,32.6v-7.9 M358.5,131.5v-7.9 M352.6,24.4v-7.9 M352.6,52.4v-3 M352.6,123.3v-0.7
		 M346.8,16.2V8.3 M346.8,49.1v-7.9 M346.8,82.1v-7.9 M346.8,115.1v-7.9 M340.9,7.9V0 M340.9,40.9V33 M340.9,73.8v-7.9 M340.9,106.8
		v-7.9 M340.9,137.7v-5.8 M335.1-0.4v-0.1 M335.1,32.6v-7.9 M335.1,65.6v-7.9 M335.1,98.6v-7.9 M335.1,131.5v-7.9 M329.2,24.4v-7.9
		 M329.2,57.4v-7.9 M329.2,90.3v-7.9 M329.2,123.3v-7.9 M323.4,16.2V8.3 M323.4,49.1v-7.9 M323.4,82.1v-7.9 M323.4,115.1v-7.9
		 M317.6,7.9V0 M317.6,40.9V33 M317.6,73.8v-7.9 M317.6,106.8v-7.9 M317.6,137.6v-5.7 M311.7-0.4v-0.2 M311.7,32.6v-7.9 M311.7,65.6
		v-7.9 M311.7,98.6v-7.9 M311.7,131.5v-7.9 M305.9,24.4v-7.9 M305.9,57.4v-7.9 M305.9,90.3v-7.9 M305.9,123.3v-7.9 M300,16.2V8.3
		 M300,49.1v-7.9 M300,82.1v-7.9 M300,115.1v-7.9 M294.2,7.9V0 M294.2,40.9V33 M294.2,73.8v-7.9 M294.2,106.8v-7.9 M294.2,137.6
		v-5.7 M288.4-0.4v-0.3 M288.4,32.6v-7.9 M288.4,65.6v-7.9 M288.4,98.6v-7.9 M288.4,131.5v-7.9 M587.1,32.1v-7.2 M587.1,65.1v-7.2
		 M587.1,98.1v-7.2 M587.1,131v-7.2 M581.3,23.9v-7.2 M581.3,56.8v-7.2 M581.3,89.8v-7.2 M581.3,122.8v-7.2 M575.5,15.6V8.4
		 M575.5,48.6v-7.2 M575.5,81.6v-7.2 M575.5,114.5v-7.2 M569.6,7.4V0.2 M569.6,40.4v-7.2 M569.6,73.3v-7.2 M569.6,106.3v-7.2
		 M569.6,138.4v-6.3 M563.8,32.1v-7.2 M563.8,65.1v-7.2 M563.8,98.1v-7.2 M563.8,131v-7.2 M558,23.9v-7.2 M558,56.8v-7.2 M558,89.8
		v-7.2 M558,122.8v-7.2 M552.1,15.6V8.4 M552.1,48.6v-7.2 M552.1,81.6v-7.2 M552.1,114.5v-7.2 M546.3,7.4V0.2 M546.3,40.4v-7.2
		 M546.3,138.3v-6.3 M540.4,32.1v-7.2 M540.4,131v-7.2 M534.6,23.9v-7.2 M534.6,52.7v-3.1 M534.6,122.8v-0.2 M528.7,15.6V8.4
		 M528.7,48.6v-7.2 M522.9,7.4V0.2 M522.9,40.4v-7.2 M522.9,138.3v-6.2 M517.1,32.1v-7.2 M517.1,131v-7.2 M511.3,23.9v-7.2
		 M511.3,52.6v-3 M511.3,122.8v-0.2 M505.4,15.6V8.4 M505.4,48.6v-7.2 M499.6,7.4V0.2 M499.6,40.4v-7.2 M499.6,138.2v-6.1
		 M493.7,32.1v-7.2 M493.7,131v-7.2 M487.9,23.9v-7.2 M487.9,52.6v-3 M487.9,122.8v-0.2 M482.1,15.6V8.4 M482.1,48.6v-7.2
		 M476.2,7.4V0.2 M476.2,40.4v-7.2 M476.2,138.1v-6 M470.4,32.1v-7.2 M470.4,131v-7.2 M464.5,23.9v-7.2 M464.5,52.6v-3 M464.5,122.8
		v-0.2 M458.7,15.6V8.4 M458.7,48.6v-7.2 M452.8,7.4V0.2 M452.8,40.4v-7.2 M452.8,138v-6 M447,32.1v-7.2 M447,131v-7.2 M441.2,23.9
		v-7.2 M441.2,52.6v-3 M441.2,122.8v-0.2 M435.4,15.6V8.4 M435.4,48.6v-7.2 M429.5,7.4V0.2 M429.5,40.4v-7.2 M429.5,138v-5.9
		 M423.7,32.1v-7.2 M423.7,131v-7.2 M417.8,23.9v-7.2 M417.8,52.6v-3 M417.8,122.8v-0.2 M412,15.6V8.4 M412,48.6v-7.2 M406.1,7.4
		V0.2 M406.1,40.4v-7.2 M406.1,137.9v-5.8 M400.3,32.1v-7.2 M400.3,131v-7.2 M394.5,23.9v-7.2 M394.5,52.5v-2.9 M394.5,122.8v-0.2
		 M388.7,15.6V8.4 M388.7,48.6v-7.2 M382.8,7.4V0.2 M382.8,40.4v-7.2 M382.8,137.9v-5.8 M377,32.1v-7.2 M377,131v-7.2 M371.1,23.9
		v-7.2 M371.1,52.5v-2.9 M371.1,122.8v-0.2 M365.3,15.6V8.4 M365.3,48.6v-7.2 M359.5,7.4V0.2 M359.5,40.4v-7.2 M359.5,137.7v-5.7
		 M353.6,32.1v-7.2 M353.6,131v-7.2 M347.8,23.9v-7.2 M347.8,52.4v-2.8 M347.8,122.8v-0.2 M341.9,15.6V8.4 M341.9,48.6v-7.2
		 M341.9,81.6v-7.2 M341.9,114.5v-7.2 M336.1,7.4V0.2 M336.1,40.4v-7.2 M336.1,73.3v-7.2 M336.1,106.3v-7.2 M336.1,137.7v-5.6
		 M330.2,32.1v-7.2 M330.2,65.1v-7.2 M330.2,98.1v-7.2 M330.2,131v-7.2 M324.5,23.9v-7.2 M324.5,56.8v-7.2 M324.5,89.8v-7.2
		 M324.5,122.8v-7.2 M318.6,15.6V8.4 M318.6,48.6v-7.2 M318.6,81.6v-7.2 M318.6,114.5v-7.2 M312.8,7.4V0.2 M312.8,40.4v-7.2
		 M312.8,73.3v-7.2 M312.8,106.3v-7.2 M312.8,137.6v-5.5 M306.9,32.1v-7.2"/>
	<path class="st6" d="M442.2,49.1v-7.9 M436.4,7.9V0 M436.4,40.9V33 M436.4,138v-6.1 M430.5,32.6v-7.9 M430.5,131.5v-7.9
		 M424.7,24.4v-7.9 M424.7,52.6v-3.1 M424.7,123.3v-0.7 M418.9,16.2V8.3 M418.9,49.1v-7.9 M413,7.9V0 M413,40.9V33 M413,137.9v-6
		 M407.2,32.6v-7.9 M407.2,131.5v-7.9 M401.4,24.4v-7.9 M401.4,52.5v-3 M401.4,123.3v-0.7 M395.5,16.2V8.3 M395.5,49.1v-7.9
		 M389.7,7.9V0 M389.7,40.9V33 M389.7,137.9v-6 M383.8,32.6v-7.9 M383.8,131.5v-7.9 M378,24.4v-7.9 M378,52.5v-3 M378,123.3v-0.7
		 M372.1,16.2V8.3 M372.1,49.1v-7.9 M366.4,7.9V0 M366.4,40.9V33 M366.4,137.8v-5.9 M360.5-0.4L360.5-0.4 M360.5,32.6v-7.9
		 M360.5,131.5v-7.9 M354.7,24.4v-7.9 M354.7,52.4v-3 M354.7,123.3v-0.7 M348.8,16.2V8.3 M348.8,49.1v-7.9 M343,7.9V0 M343,40.9V33
		 M343,73.8v-7.9 M343,106.8v-7.9 M343,137.7v-5.8 M337.1-0.4v-0.1 M337.1,32.6v-7.9 M337.1,65.6v-7.9 M337.1,98.6v-7.9
		 M337.1,131.5v-7.9 M331.3,24.4v-7.9 M331.3,57.4v-7.9 M331.3,90.3v-7.9 M331.3,123.3v-7.9 M325.5,16.2V8.3 M325.5,49.1v-7.9
		 M325.5,82.1v-7.9 M325.5,115.1v-7.9 M319.6,7.9V0 M319.6,40.9V33 M319.6,73.8v-7.9 M319.6,106.8v-7.9 M319.6,137.6v-5.7
		 M313.8-0.4v-0.2 M313.8,32.6v-7.9 M313.8,65.6v-7.9 M313.8,98.6v-7.9 M313.8,131.5v-7.9 M307.9,24.4v-7.9 M307.9,57.4v-7.9
		 M307.9,90.3v-7.9 M307.9,123.3v-7.9 M302.1,16.2V8.3 M302.1,49.1v-7.9 M302.1,82.1v-7.9 M302.1,115.1v-7.9 M296.2,7.9V0
		 M296.2,40.9V33 M296.2,73.8v-7.9 M296.2,106.8v-7.9 M296.2,137.6v-5.7 M290.5-0.4v-0.3 M290.5,32.6v-7.9 M290.5,65.6v-7.9
		 M290.5,98.6v-7.9 M290.5,131.5v-7.9 M586.1,24.4v-7.9 M586.1,57.4v-7.9 M586.1,90.3v-7.9 M586.1,123.3v-7.9 M580.3,16.2V8.3
		 M580.3,49.1v-7.9 M580.3,82.1v-7.9 M580.3,115.1v-7.9 M574.4,7.9V0.2 M574.4,40.9V33 M574.4,73.8v-7.9 M574.4,106.8v-7.9
		 M574.4,138.4v-6.5 M568.6,32.6v-7.9 M568.6,65.6v-7.9 M568.6,98.6v-7.9 M568.6,131.5v-7.9 M562.7,24.4v-7.9 M562.7,57.4v-7.9
		 M562.7,90.3v-7.9 M562.7,123.3v-7.9 M556.9,16.2V8.3 M556.9,49.1v-7.9 M556.9,82.1v-7.9 M556.9,115.1v-7.9 M551.1,7.9V0.1
		 M551.1,40.9V33 M551.1,73.8v-7.9 M551.1,106.8v-7.9 M551.1,138.3v-6.5 M545.3,32.6v-7.9 M545.3,131.5v-7.9 M539.4,24.4v-7.9
		 M539.4,52.7v-3.2 M539.4,123.3v-0.7 M533.6,16.2V8.3 M533.6,49.1v-7.9 M527.7,7.9V0.1 M527.7,40.9V33 M527.7,138.3v-6.4
		 M521.9,32.6v-7.9 M521.9,131.5v-7.9 M516.1,24.4v-7.9 M516.1,52.6v-3.1 M516.1,123.3v-0.7 M510.2,16.2V8.3 M510.2,49.1v-7.9
		 M504.4,7.9V0 M504.4,40.9V33 M504.4,138.2v-6.3 M498.5,32.6v-7.9 M498.5,131.5v-7.9 M492.7,24.4v-7.9 M492.7,52.6v-3.1
		 M492.7,123.3v-0.7 M486.8,16.2V8.3 M486.8,49.1v-7.9 M481,7.9V0 M481,40.9V33 M481,138.1v-6.2 M475.2,32.6v-7.9 M475.2,131.5v-7.9
		 M469.4,24.4v-7.9 M469.4,52.6v-3.1 M469.4,123.3v-0.7 M463.5,16.2V8.3 M463.5,49.1v-7.9 M457.7,7.9V0 M457.7,40.9V33 M457.7,138
		v-6.1 M451.8,32.6v-7.9 M451.8,131.5v-7.9 M446,24.4v-7.9 M446,52.6v-3.1 M446,123.3v-0.7 M440.1,16.2V8.3 M440.1,49.1v-7.9
		 M434.3,7.9V0 M434.3,40.9V33 M434.3,138v-6.1 M428.5,32.6v-7.9 M428.5,131.5v-7.9 M422.6,24.4v-7.9 M422.6,52.6v-3.1 M422.6,123.3
		v-0.7 M416.8,16.2V8.3 M416.8,49.1v-7.9 M411,7.9V0 M411,40.9V33 M411,137.9v-6 M405.1,32.6v-7.9 M405.1,131.5v-7.9 M399.3,24.4
		v-7.9 M399.3,52.5v-3 M399.3,123.3v-0.7 M393.5,16.2V8.3 M393.5,49.1v-7.9 M387.6,7.9V0 M387.6,40.9V33 M387.6,137.9v-6
		 M381.8,32.6v-7.9 M381.8,131.5v-7.9 M375.9,24.4v-7.9 M375.9,52.5v-3 M375.9,123.3v-0.7 M370.1,16.2V8.3 M370.1,49.1v-7.9
		 M364.2,7.9V0 M364.2,40.9V33 M364.2,137.8v-5.9"/>
</g>
<path class="st4" d="M524.3,52.6v-3.3 M524.3,122.8v-0.2 M518.4,15.6V8.1 M518.4,48.6V41 M512.6,7.4V0 M512.6,40.4v-7.6
	 M512.6,138.2v-6.5 M506.8,32.1v-7.6 M506.8,131v-7.6 M500.9,23.9v-7.5 M500.9,52.6v-3.3 M500.9,122.8v-0.2 M495.1,15.6V8.1
	 M495.1,48.6V41 M489.3,7.4v-7.5 M489.3,40.4v-7.6 M489.3,138.2v-6.4 M483.4,32.1v-7.6 M483.4,131v-7.6 M477.6,23.9v-7.5
	 M477.6,52.6v-3.3 M477.6,122.8v-0.2 M471.8,15.6V8.1 M471.8,48.6V41 M465.9,7.4v-7.5 M465.9,40.4v-7.6 M465.9,138.1v-6.4
	 M460.1,32.1v-7.6 M460.1,131v-7.6 M454.2,23.9v-7.5 M454.2,52.6v-3.3 M454.2,122.8v-0.2 M448.4,15.6V8.1 M448.4,48.6V41 M442.5,7.4
	v-7.6 M442.5,40.4v-7.6 M442.5,138v-6.3 M436.8,32.1v-7.6 M436.8,131v-7.6 M430.9,23.9v-7.5 M430.9,52.6v-3.3 M430.9,122.8v-0.2
	 M425.1,15.6V8.1 M425.1,48.6V41 M419.2,7.4v-7.6 M419.2,40.4v-7.6 M419.2,137.9v-6.2 M413.4,32.1v-7.6 M413.4,131v-7.6 M407.5,23.9
	v-7.5 M407.5,52.5v-3.2 M407.5,122.8v-0.2 M401.7,15.6V8.1 M401.7,48.6V41 M395.9,7.4v-7.6 M395.9,40.4v-7.6 M395.9,137.9v-6.1
	 M390,32.1v-7.6 M390,131v-7.6 M384.2,23.9v-7.5 M384.2,52.5v-3.2 M384.2,122.8v-0.2 M378.3,15.6V8.1 M378.3,48.6V41 M372.5,7.4
	v-7.6 M372.5,40.4v-7.6 M372.5,137.8v-6.1 M366.7,32.1v-7.6 M366.7,131v-7.6 M360.8,23.9v-7.5 M360.8,52.5v-3.2 M360.8,122.8v-0.2
	 M355,15.6V8.1 M355,48.6V41 M349.2,7.4v-7.6 M349.2,40.4v-7.6 M349.2,137.7v-6 M343.3,32.1v-7.6 M343.3,65.1v-7.6 M343.3,98.1v-7.6
	 M343.3,131v-7.6 M337.5,23.9v-7.5 M337.5,56.8v-7.5 M337.5,89.8v-7.5 M337.5,122.8v-7.6 M331.6,15.6V8.1 M331.6,48.6V41
	 M331.6,81.6V74 M331.6,114.5V107 M325.8,7.4v-7.6 M325.8,40.4v-7.6 M325.8,73.3v-7.5 M325.8,106.3v-7.5 M325.8,137.7v-6 M320,32.1
	v-7.6 M320,65.1v-7.6 M320,98.1v-7.6 M320,131v-7.6 M314.2,23.9v-7.5 M314.2,56.8v-7.5 M314.2,89.8v-7.5 M314.2,122.8v-7.6
	 M308.3,15.6V8.1 M308.3,48.6V41 M308.3,81.6V74 M308.3,114.5V107 M302.5,7.4v-7.6 M302.5,40.4v-7.6 M302.5,73.3v-7.5 M302.5,106.3
	v-7.5 M302.5,137.6v-5.9 M296.6,32.1v-7.6 M296.6,65.1v-7.6 M296.6,98.1v-7.6 M296.6,131v-7.6 M290.8,23.9v-7.5 M290.8,56.8v-7.5
	 M290.8,89.8v-7.5 M290.8,122.8v-7.6 M284.9,15.6V8.1 M284.9,48.6V41 M284.9,81.6V74 M284.9,114.5V107 M588.2,24.4v-7.9 M588.2,57.4
	v-7.9 M588.2,90.3v-7.9 M588.2,123.3v-7.9 M582.3,16.2V8.3 M582.3,49.1v-7.9 M582.3,82.1v-7.9 M582.3,115.1v-7.9 M576.5,7.9V0.2
	 M576.5,40.9V33 M576.5,73.8v-7.9 M576.5,106.8v-7.9 M576.5,138.4v-6.5 M570.6,32.6v-7.9 M570.6,65.6v-7.9 M570.6,98.6v-7.9
	 M570.6,131.5v-7.9 M564.8,24.4v-7.9 M564.8,57.4v-7.9 M564.8,90.3v-7.9 M564.8,123.3v-7.9 M559,16.2V8.3 M559,49.1v-7.9 M559,82.1
	v-7.9 M559,115.1v-7.9 M553.1,7.9V0.1 M553.1,40.9V33 M553.1,73.8v-7.9 M553.1,106.8v-7.9 M553.1,138.3v-6.4 M547.3,32.6v-7.9
	 M547.3,98.6v-7.9 M547.3,131.5v-7.9 M541.5,24.4v-7.9 M541.5,52.7v-3.2 M541.5,123.3v-0.7 M535.6,16.2V8.3 M535.6,49.1v-7.9
	 M529.8,7.9V0.1 M529.8,40.9V33 M529.8,138.3v-6.4 M524,32.6v-7.9 M524,131.5v-7.9 M518.1,24.4v-7.9 M518.1,52.6v-3.1 M518.1,123.3
	v-0.7 M512.3,16.2V8.3 M512.3,49.1v-7.9 M506.4,7.9V0 M506.4,40.9V33 M506.4,138.2v-6.3 M500.6,32.6v-7.9 M500.6,131.5v-7.9
	 M494.7,24.4v-7.9 M494.7,52.6v-3.1 M494.7,123.3v-0.7 M488.9,16.2V8.3 M488.9,49.1v-7.9 M483.1,7.9V0 M483.1,40.9V33 M483.1,138.2
	v-6.3 M477.3,32.6v-7.9 M477.3,131.5v-7.9 M471.4,24.4v-7.9 M471.4,52.6v-3.1 M471.4,123.3v-0.7 M465.6,16.2V8.3 M465.6,49.1v-7.9
	 M459.7,7.9V0 M459.7,40.9V33 M459.7,138v-6.1 M453.9,32.6v-7.9 M453.9,131.5v-7.9 M448.1,24.4v-7.9 M448.1,52.6v-3.1 M448.1,123.3
	v-0.7 M442.2,16.2V8.3"/>
<path class="st4" d="M588.5,15.6V8.1 M588.5,48.6V41 M588.5,81.6V74 M588.5,114.5V107 M582.7,7.4V0.2 M582.7,40.4v-7.6 M582.7,73.3
	v-7.5 M582.7,106.3v-7.5 M582.7,138.4v-6.7 M576.8,32.1v-7.6 M576.8,65.1v-7.6 M576.8,98.1v-7.6 M576.8,131v-7.6 M571,23.9v-7.5
	 M571,56.8v-7.5 M571,89.8v-7.5 M571,122.8v-7.6 M565.1,15.6V8.1 M565.1,48.6V41 M565.1,81.6V74 M565.1,114.5V107 M559.3,7.4V0.2
	 M559.3,40.4v-7.6 M559.3,73.3v-7.5 M559.3,106.3v-7.5 M559.3,138.3v-6.6 M553.5,32.1v-7.6 M553.5,65.1v-7.6 M553.5,98.1v-7.6
	 M553.5,131v-7.6 M547.7,23.9v-7.5 M547.7,52.7v-3.4 M547.7,89.8v-7.5 M547.7,122.8v-7.6 M541.8,15.6V8.1 M541.8,48.6V41 M536,7.4
	V0.1 M536,40.4v-7.6 M536,138.3v-6.6 M530.1,32.1v-7.6 M530.1,131v-7.6 M524.3,23.9v-7.5"/>
<line class="st0" x1="590.9" y1="137.6" x2="284.9" y2="137.6"/>
<polyline class="st1" points="500.8,230.5 500.8,177.3 535.4,177.3 535.4,230.5 "/>
<rect x="502.3" y="178.8" class="st4" width="31.6" height="50.2"/>
<path class="st1" d="M425,230.5v-53.2h32.5v53.2 M494.7,170.9h46.8 M494.7,171.2h46.8 M497.8,230.5v-56.2h40.7v56.2"/>
<rect x="426.5" y="178.8" class="st4" width="29.5" height="50.2"/>
<g>
	<defs>
		<rect id="SVGID_7_" x="-651.1" y="-0.8" width="1796.7" height="400.7"/>
	</defs>
	<clipPath id="SVGID_8_">
		<use xlink:href="#SVGID_7_"  style="overflow:visible;"/>
	</clipPath>
	<path class="st7" d="M544.7,233.6v-3.1h-53.2v3.1 M544.7,233.6h-53.2 M467.9,233.6v-3.1h-53.2v3.1 M467.9,233.6h-53.2 M331.5,230.4
		v3 M384.6,230.4v3 M334.5,171.2v-0.3 M381.5,171.2v-0.3 M418.9,171.2v-0.3 M463.6,171.2v-0.3 M541.5,171.2v-0.3 M494.7,171.2v-0.3
		 M381.5,171.3c-1.3,0.6-2.4,1.7-3,3 M378.5,174.3c-1.3,0.6-2.4,1.7-3,3 M460.5,174.3c-1.3,0.6-2.4,1.7-3,3 M463.6,171.3
		c-1.3,0.6-2.4,1.7-3,3 M538.4,174.3c-1.3,0.6-2.4,1.7-3,3 M541.5,171.3c-1.3,0.6-2.4,1.7-3,3 M500.7,177.3c-0.6-1.3-1.7-2.4-3-3
		 M497.7,174.3c-0.6-1.3-1.7-2.4-3-3 M425,177.3c-0.6-1.3-1.7-2.4-3-3 M421.9,174.3c-0.6-1.3-1.7-2.4-3-3 M340.5,177.3
		c-0.6-1.3-1.7-2.4-3-3 M337.5,174.3c-0.6-1.3-1.7-2.4-3-3 M334.5,170.9h47.1 M334.5,171.2h47.1 M384.6,230.4h-53.2 M384.6,233.5
		h-53.2 M337.5,230.4v-56.1h41v56.1 M340.6,230.4v-53.1h34.9v53.1 M418.9,170.9h44.7 M418.9,171.2h44.7 M422,230.5v-56.2h38.6v56.2"
		/>
	<path class="st8" d="M590.9,139.5V-0.1 M284.9,137.6V-0.1"/>
</g>
<line class="st2" x1="284.9" y1="137.6" x2="284.9" y2="139.5"/>
<g>
	<defs>
		<rect id="SVGID_9_" x="-651.1" y="-0.8" width="1796.7" height="400.7"/>
	</defs>
	<clipPath id="SVGID_10_">
		<use xlink:href="#SVGID_9_"  style="overflow:visible;"/>
	</clipPath>
	<path class="st9" d="M580.2,139.5h10.7 M284.9-0.1h306.1"/>
</g>
<path class="st1" d="M457.8,88h54.7v33.2h-54.7V88z M456.3,86.5H514v36.3h-57.7V86.5z M390.3,88H445v33.2h-54.7V88z M388.8,86.5
	h57.7v36.3h-57.7V86.5z M347,84.8l-0.2-32.1 M547,52.4l-0.2,32.4v37.9 M347,84.8v37.9 M346.8,52.7L547,52.4 M347,84.8h199.8
	 M347,86.4h199.8 M347,122.7h199.8"/>
<rect x="356.8" y="333.4" class="st4" width="1" height="6"/>
<path class="st1" d="M394.5,295.8h6v0.3h-6V295.8z M301.2,268.5h-5.6L277,284.7h18.6h5.6V268.5z"/>
<g>
	<defs>
		<rect id="SVGID_11_" x="-651.1" y="-0.8" width="1796.7" height="400.7"/>
	</defs>
	<clipPath id="SVGID_12_">
		<use xlink:href="#SVGID_11_"  style="overflow:visible;"/>
	</clipPath>
	<path class="st10" d="M470.8,263v-0.6 M470.7,263c-1.3,0.6-2.4,1.7-3,3 M470.8,262.4h-56.2 M420.5,269.1v85.7 M414.5,263v-0.6
		 M417.5,266c-0.6-1.3-1.7-2.4-3-3 M414.5,263h56.2 M420.5,269.1h44.1 M426.1,269.1h15.2 M426.1,326.8v17.6 M426.1,269.1v80.8"/>
	<path class="st11" d="M590.9,137.6h2.8v1.9h-2.8 M578,330.1h2.1v0.3H578 M578,330.1v0.3 M578,297.6h2.1v0.3H578 M578,297.6v0.3
		 M578,259.6h2.1v0.3H578 M578,259.6v0.3 M578,224.4h2.1v0.3H578 M578,224.4v0.3 M578,194.1h2.1v0.3H578 M578,194.1v0.3
		 M583.5,155.5l0.8,2 M583.2,155.6l0.8,2 M578,160.3h2.1v0.3H578 M579.8,330.4v48.9 M579.8,297.9v32.2 M579.8,259.9v37.8
		 M579.8,224.7v34.8 M579.8,194.4v30 M579.8,160.6v33.5 M579.8,157.8v2.5 M578,160.3v0.3 M578.3,330.4v48.8 M578.3,297.9v32.2
		 M578.3,259.9v37.8 M578.3,224.7v34.8 M578.3,194.4v30 M578.3,160.6v33.5 M580.2,156.3h-1.9v4 M589.6,150l2,0.7 M589.5,150.3l2,0.7
		 M591.5,151c0-0.1,0.1-0.2,0.1-0.3 M584,157.5c0.1,0,0.2-0.1,0.3-0.1 M591.2,150.6c0.7-3.7,1.1-7.4,1.1-11.1 M584.1,157.1
		c3.1-1.1,5.6-3.3,7-6.2 M579.8,157.7c1.4,0,2.7-0.1,4.1-0.6 M589.5,150.3c0-0.1,0.1-0.2,0.1-0.3 M589.9,150.1c0.7-3.5,1-7.1,1-10.6
		 M589.5,150.3C589.5,150.3,589.5,150.2,589.5,150.3 M583.2,155.5c0.1,0,0.2-0.1,0.3-0.1 M583.6,155.7c2.7-0.9,4.9-2.8,6.2-5.4
		 M580.2,156.3c1.1,0,2.1-0.2,3.1-0.5"/>
</g>
<path class="st1" d="M499.7,323.8h36.9 M426.1,344.4h33.1"/>
<path class="st0" d="M556.5,349.9v-27.3 M555.7,349.9V378"/>
<line class="st1" x1="426.1" y1="344.4" x2="426.1" y2="349.9"/>
<path class="st0" d="M555.9,322.6H422.7 M558.1,349.8H422.7"/>
<line class="st4" x1="459.8" y1="344.4" x2="578" y2="344.4"/>
<rect x="311.7" y="266.7" class="st0" width="3" height="19.8"/>
<path class="st1" d="M536.6,178.5h17.5v51.6h-17.5V178.5z M499.6,178.5h-17.4v51.6h17.4V178.5z M459.7,178.8h17.5v51.6h-17.5V178.8z
	 M422.8,178.8h-17.5v51.6h17.5V178.8z M376.5,178.8H394v51.6h-17.5V178.8z M339.5,178.8H322v51.6h17.5V178.8z"/>
<rect x="400.7" y="245" class="st0" width="1.9" height="6.1"/>
<path class="st1" d="M534.5,270.6H552v49.5h-17.5V270.6z M501.7,270.6h-17.5v49.5h17.5V270.6z"/>
<path class="st0" d="M312.2,251.1h1.9V245h-1.9V251.1z M555.6,251.1h2V245h-2V251.1z M478.7,251.1h2V245h-2V251.1z"/>
<path class="st4" d="M358.5,214h15.5 M341.9,214h15.3 M358.5,215.2h15.5 M341.9,215.2h15.3 M358.5,195.6h15.5 M341.9,195.6h15.3
	 M358.5,196.8h15.5 M341.9,196.8h15.3 M358.5,215.2V229 M358.5,196.8V214 M358.5,194.3v1.3 M358.5,215.2V229 M358.5,196.8V214
	 M358.5,178.8v16.8 M357.2,215.2V229 M357.2,196.8V214 M357.2,194.3v1.3 M357.2,215.2V229 M357.2,196.8V214 M357.2,178.8v16.8
	 M341.9,178.8h32V229h-32V178.8z"/>
<path class="st0" d="M393.1,366.7h6.9 M403,364.5V339l19.7-16.4"/>
<path class="st1" d="M395.3,370.6h9.1v-1.2h-9.1V370.6z M402,365.7h9.2v-1.2H402V365.7z M408.7,360.9h9.1v-1.3h-9.1V360.9z
	 M415.4,356h9.7v-1.2h-9.7V356z M425.1,351.1v3.7 M423.9,351.1v3.7 M422.7,351.1h8.5v-1.2h-8.5V351.1z M393.1,366.8v5.4
	 M399.9,326.8v17.6"/>
<g>
	<defs>
		<rect id="SVGID_13_" x="-651.1" y="-0.8" width="1796.7" height="400.7"/>
	</defs>
	<clipPath id="SVGID_14_">
		<use xlink:href="#SVGID_13_"  style="overflow:visible;"/>
	</clipPath>
	<line class="st12" x1="227.7" y1="367.6" x2="1144.9" y2="399.2"/>
</g>
<rect x="431.2" y="349.9" class="st1" width="126.9" height="1.2"/>
<polyline class="st1" points="397.1,372.2 393.1,372.2 393.1,367 393.1,366.8 "/>
<line class="st13" x1="394.4" y1="364.3" x2="332.1" y2="364.3"/>
<path class="st1" d="M464.7,269.1v80.8 M459.2,269.1v80.8"/>
<line class="st13" x1="417.5" y1="266.1" x2="467.7" y2="266.1"/>
<g>
	<defs>
		<rect id="SVGID_15_" x="-651.1" y="-0.8" width="1796.7" height="400.7"/>
	</defs>
	<clipPath id="SVGID_16_">
		<use xlink:href="#SVGID_15_"  style="overflow:visible;"/>
	</clipPath>
	<path class="st14" d="M397.7,370.6v3.6 M396.5,370.6v3.6 M404.4,365.7v3.7 M403.2,365.7v3.7 M411.1,360.9v3.6 M409.9,360.9v3.6
		 M417.8,356v3.6 M416.6,356v3.6 M467.7,266c-1.3,0.6-2.4,1.7-3,3 M420.5,269.1c-0.6-1.3-1.7-2.4-3-3"/>
</g>
<line class="st0" x1="295.6" y1="139.5" x2="295.6" y2="268.5"/>
<line class="st1" x1="295.6" y1="284.7" x2="295.6" y2="368.8"/>
<path class="st0" d="M580.2,157.8l-0.4,221.5 M580.2,139.5v16.8 M289.6,284.7v84.1"/>
<path class="st1" d="M393.1,366.7v2.8 M394.4,301v65.7 M400.5,295.8v0.3"/>
<line class="st2" x1="295.6" y1="368.8" x2="289.6" y2="368.8"/>
<g>
	<defs>
		<rect id="SVGID_17_" x="-651.1" y="-0.8" width="1796.7" height="400.7"/>
	</defs>
	<clipPath id="SVGID_18_">
		<use xlink:href="#SVGID_17_"  style="overflow:visible;"/>
	</clipPath>
	<path class="st15" d="M502.7,269.1h30.8v51.1h-30.8V269.1z M365.2,297.5v73 M365.2,294.5L365.2,294.5 M359.1,297.5v73 M359.1,294.5
		L359.1,294.5 M362.1,294.5v76.1 M359.6,294.5v-8.3 M365.7,294.5v-8.3 M324.2,296.1v74.4 M328.3,296.1v74.4 M324.1,296.1
		c-0.9-1.5-2-2.9-3.3-4.1 M331.4,292c-1.2,1.2-2.3,2.6-3.3,4.1 M329.2,296.1h-6.1 M329.2,295.8h-6.1 M365.7,286.3h-6.1 M359.6,290.4
		l-6,0.2l-6,0.5l-6,0.7l-5.9,0.9l-5.9,1.2 M393.5,293.5l-5.5-1l-5.5-0.8l-5.6-0.6l-5.6-0.4l-5.6-0.2 M323.7,295.4l-0.5,0.1
		 M359.1,297.5l-5.4,0.2l-5.4,0.4l-5.4,0.7l-5.3,0.8l-5.3,1 M394.4,301l-5.8-1.1l-5.8-0.9l-5.8-0.7l-5.9-0.4l-5.8-0.2 M395.3,298.1
		l-6-1.2l-6-1l-6.1-0.7l-6.1-0.5l-6.1-0.2h-6.1l-6.1,0.3l-6.1,0.5l-6.1,0.8l-6,1l-6,1.3 M331.5,292h-10.6 M332.3,300.7v69.9
		 M329.2,298.2v72.3 M329.2,295.8v0.3 M323.1,295.5v75 M323.1,295.8v0.3 M399.9,296.1v70.5 M395.3,296.1v70.5 M402.8,292
		c-1.2,1.2-2.3,2.6-3.3,4.1 M395.5,296.1c-0.9-1.5-2-2.9-3.3-4.1 M392.2,292h10.6"/>
</g>
<rect x="504.2" y="270.6" class="st4" width="27.8" height="48"/>
<path class="st1" d="M496.6,263h43 M499.7,323.8v-57.7h36.9v57.7"/>
<path class="st4" d="M517.5,303.1v15.5 M517.5,301.9v-14.5V301.9z M517.5,270.6v15.6 M518.7,303.1v15.5 M518.7,301.9v-14.5V301.9z
	 M518.7,270.6v15.6H532 M504.2,286.3h13.3 M518.7,287.5H532 M504.2,287.5h13.3"/>
<g>
	<defs>
		<rect id="SVGID_19_" x="-651.1" y="-0.8" width="1796.7" height="400.7"/>
	</defs>
	<clipPath id="SVGID_20_">
		<use xlink:href="#SVGID_19_"  style="overflow:visible;"/>
	</clipPath>
	<path class="st16" d="M536.6,266c-1.3,0.6-2.4,1.7-3,3 M539.6,263c-1.3,0.6-2.4,1.7-3,3 M502.7,269.1c-0.6-1.3-1.7-2.4-3-3
		 M499.7,266c-0.6-1.3-1.7-2.4-3-3 M496.6,263v-0.6h43v0.6"/>
</g>
<line class="st0" x1="580.2" y1="139.5" x2="284.9" y2="139.5"/>
<path class="st4" d="M585.4,40.4h4.2 M576.5,40.4h6.2 M569.6,40.4h4.8 M562.1,40.4h4.1 M553.1,40.4h6.1 M546.3,40.4h4.8 M538.7,40.4
	h4.1 M529.8,40.4h6.2 M522.9,40.4h4.8 M515.4,40.4h4.2 M506.4,40.4h6.2 M499.6,40.4h4.8 M492,40.4h4.1 M483.1,40.4h6.1 M476.2,40.4
	h4.8 M468.6,40.4h4.2 M459.7,40.4h6.2 M452.8,40.4h4.8 M445.3,40.4h4.1 M436.4,40.4h6.1 M429.5,40.4h4.8 M422,40.4h4.1 M413,40.4
	h6.2 M406.1,40.4h4.8 M398.6,40.4h4.2 M389.7,40.4h6.2 M382.8,40.4h4.8 M375.3,40.4h4.1 M366.4,40.4h6.1 M359.5,40.4h4.8
	 M351.9,40.4h4.2 M343,40.4h6.2 M336.1,40.4h4.8 M328.6,40.4h4.1 M319.6,40.4h6.1 M312.8,40.4h4.8 M305.2,40.4h4.1 M296.2,40.4h6.2
	 M289.4,40.4h4.8 M284.9,40.4h1.1 M587.1,32.1h3.8 M579.5,32.1h4.2 M570.6,32.1h6.2 M563.8,32.1h4.8 M556.2,32.1h4.1 M547.3,32.1
	h6.2 M540.4,32.1h4.8 M532.9,32.1h4.1 M524,32.1h6.1 M517.1,32.1h4.8 M509.5,32.1h4.2 M500.6,32.1h6.2 M493.7,32.1h4.8 M486.2,32.1
	h4.1 M477.3,32.1h6.1 M470.4,32.1h4.8 M462.8,32.1h4.2 M453.9,32.1h6.2 M447,32.1h4.8 M439.5,32.1h4.1 M430.5,32.1h6.2 M423.7,32.1
	h4.8 M416.1,32.1h4.1 M407.2,32.1h6.1 M400.3,32.1h4.8 M392.8,32.1h4.2 M383.8,32.1h6.2 M377,32.1h4.8 M369.4,32.1h4.1 M360.5,32.1
	h6.1 M353.6,32.1h4.8 M346,32.1h4.2 M337.1,32.1h6.2 M330.2,32.1h4.8 M322.7,32.1h4.1 M313.8,32.1h6.2 M306.9,32.1h4.8 M299.4,32.1
	h4.1 M290.5,32.1h6.1 M284.9,32.1h3.5 M588.2,23.9h2.8 M581.3,23.9h4.8 M573.8,23.9h4.1 M564.8,23.9h6.1 M558,23.9h4.8 M550.4,23.9
	h4.2 M541.5,23.9h6.2 M534.6,23.9h4.8 M527,23.9h4.1 M518.1,23.9h6.1 M511.3,23.9h4.8 M503.7,23.9h4.2 M494.7,23.9h6.2 M487.9,23.9
	h4.8 M480.3,23.9h4.1 M471.4,23.9h6.1 M464.5,23.9h4.8 M457,23.9h4.1 M448.1,23.9h6.1 M441.2,23.9h4.8 M433.6,23.9h4.2 M424.7,23.9
	h6.2 M417.8,23.9h4.8 M410.3,23.9h4.1 M401.4,23.9h6.1 M394.5,23.9h4.8 M386.9,23.9h4.2 M378,23.9h6.2 M371.1,23.9h4.8 M363.6,23.9
	h4.1 M354.7,23.9h6.1 M347.8,23.9h4.8 M340.3,23.9h4.1 M331.3,23.9h6.1 M324.5,23.9h4.8 M316.9,23.9h4.2 M307.9,23.9h6.2
	 M301.1,23.9h4.8 M293.5,23.9h4.1 M284.9,23.9h5.9 M582.3,15.6h6.2 M575.5,15.6h4.8 M567.9,15.6h4.1 M559,15.6h6.1 M552.1,15.6h4.8
	 M544.5,15.6h4.2 M535.6,15.6h6.2 M528.7,15.6h4.8 M521.2,15.6h4.1 M512.3,15.6h6.1 M505.4,15.6h4.8 M497.9,15.6h4.1 M488.9,15.6
	h6.2 M482.1,15.6h4.8 M474.5,15.6h4.2 M465.6,15.6h6.2 M458.7,15.6h4.8 M451.2,15.6h4.1 M442.2,15.6h6.1 M435.4,15.6h4.8
	 M427.8,15.6h4.2 M418.9,15.6h6.2 M412,15.6h4.8 M404.4,15.6h4.1 M395.5,15.6h6.1 M388.7,15.6h4.8 M381.1,15.6h4.1 M372.1,15.6h6.2
	 M365.3,15.6h4.8 M357.7,15.6h4.2 M348.8,15.6h6.2 M341.9,15.6h4.8 M334.4,15.6h4.1 M325.5,15.6h6.1 M318.6,15.6h4.8 M311,15.6h4.2
	 M302.1,15.6h6.2 M295.2,15.6h4.8 M287.7,15.6h4.1 M284.9,15.6L284.9,15.6 M585.4,7.4h4.2 M576.5,7.4h6.2 M569.6,7.4h4.8 M562.1,7.4
	h4.1 M553.1,7.4h6.1 M546.3,7.4h4.8 M538.7,7.4h4.1 M529.8,7.4h6.2 M522.9,7.4h4.8 M515.4,7.4h4.2 M506.4,7.4h6.2 M499.6,7.4h4.8
	 M492,7.4h4.1 M483.1,7.4h6.1 M476.2,7.4h4.8 M468.6,7.4h4.2 M459.7,7.4h6.2 M452.8,7.4h4.8 M445.3,7.4h4.1 M436.4,7.4h6.1
	 M429.5,7.4h4.8 M422,7.4h4.1 M413,7.4h6.2 M406.1,7.4h4.8 M398.6,7.4h4.2 M389.7,7.4h6.2 M382.8,7.4h4.8 M375.3,7.4h4.1 M366.4,7.4
	h6.1 M359.5,7.4h4.8 M351.9,7.4h4.2 M343,7.4h6.2 M336.1,7.4h4.8 M328.6,7.4h4.1 M319.6,7.4h6.1 M312.8,7.4h4.8 M305.2,7.4h4.1
	 M296.2,7.4h6.2 M289.4,7.4h4.8 M284.9,7.4h1.1"/>
<path class="st4" d="M284.9,131h3.5 M588.2,122.8h2.8 M581.3,122.8h4.8 M573.8,122.8h4.1 M564.8,122.8h6.1 M558,122.8h4.8
	 M550.4,122.8h4.2 M541.5,122.8h6.2 M534.6,122.8h4.8 M527,122.8h4.1 M518.1,122.8h6.1 M511.3,122.8h4.8 M503.7,122.8h4.2
	 M494.7,122.8h6.2 M487.9,122.8h4.8 M480.3,122.8h4.1 M471.4,122.8h6.1 M464.5,122.8h4.8 M457,122.8h4.1 M448.1,122.8h6.1
	 M441.2,122.8h4.8 M433.6,122.8h4.2 M424.7,122.8h6.2 M417.8,122.8h4.8 M410.3,122.8h4.1 M401.4,122.8h6.1 M394.5,122.8h4.8
	 M386.9,122.8h4.2 M378,122.8h6.2 M371.1,122.8h4.8 M363.6,122.8h4.1 M354.7,122.8h6.1 M347.8,122.8h4.8 M340.3,122.8h4.1
	 M331.3,122.8h6.1 M324.5,122.8h4.8 M316.9,122.8h4.2 M307.9,122.8h6.2 M301.1,122.8h4.8 M293.5,122.8h4.1 M284.9,122.8h5.9
	 M582.3,114.5h6.2 M575.5,114.5h4.8 M567.9,114.5h4.1 M559,114.5h6.1 M552.1,114.5h4.8 M546.8,114.5h1.9 M341.9,114.5h4.8
	 M334.4,114.5h4.1 M325.5,114.5h6.1 M318.6,114.5h4.8 M311,114.5h4.2 M302.1,114.5h6.2 M295.2,114.5h4.8 M287.7,114.5h4.1
	 M284.9,114.5L284.9,114.5 M585.4,106.3h4.2 M576.5,106.3h6.2 M569.6,106.3h4.8 M562.1,106.3h4.1 M553.1,106.3h6.1 M546.8,106.3h4.3
	 M343,106.3h4 M336.1,106.3h4.8 M328.6,106.3h4.1 M319.6,106.3h6.1 M312.8,106.3h4.8 M305.2,106.3h4.1 M296.2,106.3h6.2
	 M289.4,106.3h4.8 M284.9,106.3h1.1 M587.1,98.1h3.8 M579.5,98.1h4.2 M570.6,98.1h6.2 M563.8,98.1h4.8 M556.2,98.1h4.1 M547.3,98.1
	h6.2 M346,98.1h1 M337.1,98.1h6.2 M330.2,98.1h4.8 M322.7,98.1h4.1 M313.8,98.1h6.2 M306.9,98.1h4.8 M299.4,98.1h4.1 M290.5,98.1
	h6.1 M284.9,98.1h3.5 M588.2,89.8h2.8 M581.3,89.8h4.8 M573.8,89.8h4.1 M564.8,89.8h6.1 M558,89.8h4.8 M550.4,89.8h4.2 M547.1,89.8
	h0.6 M340.3,89.8h4.1 M331.3,89.8h6.1 M324.5,89.8h4.8 M316.9,89.8h4.2 M307.9,89.8h6.2 M301.1,89.8h4.8 M293.5,89.8h4.1
	 M284.9,89.8h5.9 M582.3,81.6h6.2 M575.5,81.6h4.8 M567.9,81.6h4.1 M559,81.6h6.1 M552.1,81.6h4.8 M547.4,81.6h1.3 M341.9,81.6h4.8
	 M334.4,81.6h4.1 M325.5,81.6h6.1 M318.6,81.6h4.8 M311,81.6h4.2 M302.1,81.6h6.2 M295.2,81.6h4.8 M287.7,81.6h4.1 M284.9,81.6
	L284.9,81.6 M585.4,73.3h4.2 M576.5,73.3h6.2 M569.6,73.3h4.8 M562.1,73.3h4.1 M553.1,73.3h6.1 M547.6,73.3h3.5 M343,73.3h4.2
	 M336.1,73.3h4.8 M328.6,73.3h4.1 M319.6,73.3h6.1 M312.8,73.3h4.8 M305.2,73.3h4.1 M296.2,73.3h6.2 M289.4,73.3h4.8 M284.9,73.3
	h1.1 M587.1,65.1h3.8 M579.5,65.1h4.2 M570.6,65.1h6.2 M563.8,65.1h4.8 M556.2,65.1h4.1 M547.9,65.1h5.6 M346,65.1h1.2 M337.1,65.1
	h6.2 M330.2,65.1h4.8 M322.7,65.1h4.1 M313.8,65.1h6.2 M306.9,65.1h4.8 M299.4,65.1h4.1 M290.5,65.1h6.1 M284.9,65.1h3.5
	 M588.2,56.8h2.8 M581.3,56.8h4.8 M573.8,56.8h4.1 M564.8,56.8h6.1 M558,56.8h4.8 M550.4,56.8h4.2 M340.3,56.8h4.1 M331.3,56.8h6.1
	 M324.5,56.8h4.8 M316.9,56.8h4.2 M307.9,56.8h6.2 M301.1,56.8h4.8 M293.5,56.8h4.1 M284.9,56.8h5.9 M582.3,48.6h6.2 M575.5,48.6
	h4.8 M567.9,48.6h4.1 M559,48.6h6.1 M552.1,48.6h4.8 M544.5,48.6h4.2 M535.6,48.6h6.2 M528.7,48.6h4.8 M521.2,48.6h4.1 M512.3,48.6
	h6.1 M505.4,48.6h4.8 M497.9,48.6h4.1 M488.9,48.6h6.2 M482.1,48.6h4.8 M474.5,48.6h4.2 M465.6,48.6h6.2 M458.7,48.6h4.8
	 M451.2,48.6h4.1 M442.2,48.6h6.1 M435.4,48.6h4.8 M427.8,48.6h4.2 M418.9,48.6h6.2 M412,48.6h4.8 M404.4,48.6h4.1 M395.5,48.6h6.1
	 M388.7,48.6h4.8 M381.1,48.6h4.1 M372.1,48.6h6.2 M365.3,48.6h4.8 M357.7,48.6h4.2 M348.8,48.6h6.2 M341.9,48.6h4.8 M334.4,48.6
	h4.1 M325.5,48.6h6.1 M318.6,48.6h4.8 M311,48.6h4.2 M302.1,48.6h6.2 M295.2,48.6h4.8 M287.7,48.6h4.1 M284.9,48.6L284.9,48.6"/>
<path class="st4" d="M290.8,56.5h2.8 M588.5,48.3h2.4 M572,48.3h3.4 M565.1,48.3h2.8 M548.7,48.3h3.4 M541.8,48.3h2.7 M525.3,48.3
	h3.4 M518.4,48.3h2.8 M502,48.3h3.4 M495.1,48.3h2.8 M478.6,48.3h3.4 M471.8,48.3h2.7 M455.3,48.3h3.4 M448.4,48.3h2.8 M431.9,48.3
	h3.4 M425.1,48.3h2.7 M408.5,48.3h3.4 M401.7,48.3h2.8 M385.2,48.3h3.4 M378.3,48.3h2.8 M361.9,48.3h3.4 M355,48.3h2.7 M338.5,48.3
	h3.4 M331.6,48.3h2.8 M315.2,48.3h3.4 M308.3,48.3h2.7 M291.8,48.3h3.4 M284.9,48.3h2.8 M589.6,40h1.4 M582.7,40h2.7 M566.2,40h3.4
	 M559.3,40h2.8 M542.8,40h3.4 M536,40h2.8 M519.5,40h3.4 M512.6,40h2.7 M496.1,40h3.4 M489.3,40h2.8 M472.8,40h3.4 M465.9,40h2.7
	 M449.4,40h3.4 M442.5,40h2.8 M426.1,40h3.4 M419.2,40h2.8 M402.8,40h3.4 M395.9,40h2.7 M379.4,40h3.4 M372.5,40h2.8 M356,40h3.4
	 M349.2,40h2.7 M332.7,40h3.4 M325.8,40h2.8 M309.3,40h3.4 M302.5,40h2.8 M285.9,40h3.4 M583.7,31.8h3.4 M576.8,31.8h2.7
	 M560.3,31.8h3.4 M553.5,31.8h2.7 M537,31.8h3.4 M530.1,31.8h2.8 M513.7,31.8h3.4 M506.8,31.8h2.7 M490.3,31.8h3.4 M483.4,31.8h2.8
	 M467,31.8h3.4 M460.1,31.8h2.7 M443.6,31.8h3.4 M436.8,31.8h2.7 M420.2,31.8h3.4 M413.4,31.8h2.8 M396.9,31.8h3.4 M390,31.8h2.7
	 M373.5,31.8h3.4 M366.7,31.8h2.8 M350.2,31.8h3.4 M343.3,31.8h2.7 M326.8,31.8h3.4 M320,31.8h2.7 M303.5,31.8h3.4 M296.6,31.8h2.8
	 M577.9,23.5h3.4 M571,23.5h2.8 M554.5,23.5h3.4 M547.7,23.5h2.7 M531.1,23.5h3.4 M524.3,23.5h2.8 M507.8,23.5h3.4 M500.9,23.5h2.7
	 M484.4,23.5h3.4 M477.6,23.5h2.8 M461.1,23.5h3.4 M454.2,23.5h2.8 M437.8,23.5h3.4 M430.9,23.5h2.7 M414.4,23.5h3.4 M407.5,23.5
	h2.8 M391.1,23.5h3.4 M384.2,23.5h2.7 M367.7,23.5h3.4 M360.8,23.5h2.8 M344.3,23.5h3.4 M337.5,23.5h2.8 M321,23.5h3.4 M314.2,23.5
	h2.7 M297.6,23.5h3.4 M290.8,23.5h2.8 M588.5,15.3h2.4 M572,15.3h3.4 M565.1,15.3h2.8 M548.7,15.3h3.4 M541.8,15.3h2.7 M525.3,15.3
	h3.4 M518.4,15.3h2.8 M502,15.3h3.4 M495.1,15.3h2.8 M478.6,15.3h3.4 M471.8,15.3h2.7 M455.3,15.3h3.4 M448.4,15.3h2.8 M431.9,15.3
	h3.4 M425.1,15.3h2.7 M408.5,15.3h3.4 M401.7,15.3h2.8 M385.2,15.3h3.4 M378.3,15.3h2.8 M361.9,15.3h3.4 M355,15.3h2.7 M338.5,15.3
	h3.4 M331.6,15.3h2.8 M315.2,15.3h3.4 M308.3,15.3h2.7 M291.8,15.3h3.4 M284.9,15.3h2.8 M589.6,7.1h1.4 M582.7,7.1h2.7 M566.2,7.1
	h3.4 M559.3,7.1h2.8 M542.8,7.1h3.4 M536,7.1h2.8 M519.5,7.1h3.4 M512.6,7.1h2.7 M496.1,7.1h3.4 M489.3,7.1h2.8 M472.8,7.1h3.4
	 M465.9,7.1h2.7 M449.4,7.1h3.4 M442.5,7.1h2.8 M426.1,7.1h3.4 M419.2,7.1h2.8 M402.8,7.1h3.4 M395.9,7.1h2.7 M379.4,7.1h3.4
	 M372.5,7.1h2.8 M356,7.1h3.4 M349.2,7.1h2.7 M332.7,7.1h3.4 M325.8,7.1h2.8 M309.3,7.1h3.4 M302.5,7.1h2.8 M285.9,7.1h3.4
	 M587.1,131h3.8 M579.5,131h4.2 M570.6,131h6.2 M563.8,131h4.8 M556.2,131h4.1 M547.3,131h6.2 M540.4,131h4.8 M532.9,131h4.1
	 M524,131h6.1 M517.1,131h4.8 M509.5,131h4.2 M500.6,131h6.2 M493.7,131h4.8 M486.2,131h4.1 M477.3,131h6.1 M470.4,131h4.8
	 M462.8,131h4.2 M453.9,131h6.2 M447,131h4.8 M439.5,131h4.1 M430.5,131h6.2 M423.7,131h4.8 M416.1,131h4.1 M407.2,131h6.1
	 M400.3,131h4.8 M392.8,131h4.2 M383.8,131h6.2 M377,131h4.8 M369.4,131h4.1 M360.5,131h6.1 M353.6,131h4.8 M346,131h4.2 M337.1,131
	h6.2 M330.2,131h4.8 M322.7,131h4.1 M313.8,131h6.2 M306.9,131h4.8 M299.4,131h4.1 M290.5,131h6.1"/>
<path class="st4" d="M311.7,65.6h2 M288.4,65.6h2.1 M586.1,57.4h2 M562.7,57.4h2.1 M329.2,57.4h2.1 M305.9,57.4h2 M580.3,49.1h2
	 M556.9,49.1h2.1 M533.6,49.1h2.1 M510.2,49.1h2.1 M486.8,49.1h2 M463.5,49.1h2 M440.1,49.1h2.1 M416.8,49.1h2.1 M393.5,49.1h2.1
	 M370.1,49.1h2 M346.8,49.1h2 M323.4,49.1h2.1 M300,49.1h2.1 M574.4,40.9h2 M551.1,40.9h2 M527.7,40.9h2 M504.4,40.9h2 M481,40.9
	h2.1 M457.7,40.9h2 M434.3,40.9h2 M411,40.9h2.1 M387.6,40.9h2 M364.2,40.9h2.1 M340.9,40.9h2 M317.6,40.9h2 M294.2,40.9h2
	 M568.6,32.6h2 M545.3,32.6h2 M521.9,32.6h2.1 M498.5,32.6h2.1 M475.2,32.6h2.1 M451.8,32.6h2 M428.5,32.6h2 M405.1,32.6h2.1
	 M381.8,32.6h2.1 M358.5,32.6h2 M335.1,32.6h2 M311.7,32.6h2 M288.4,32.6h2.1 M586.1,24.4h2 M562.7,24.4h2.1 M539.4,24.4h2.1
	 M516.1,24.4h2 M492.7,24.4h2 M469.4,24.4h2 M446,24.4h2.1 M422.6,24.4h2 M399.3,24.4h2 M375.9,24.4h2 M352.6,24.4h2 M329.2,24.4
	h2.1 M305.9,24.4h2 M580.3,16.2h2 M556.9,16.2h2.1 M533.6,16.2h2.1 M510.2,16.2h2.1 M486.8,16.2h2 M463.5,16.2h2 M440.1,16.2h2.1
	 M416.8,16.2h2.1 M393.5,16.2h2.1 M370.1,16.2h2 M346.8,16.2h2 M323.4,16.2h2.1 M300,16.2h2.1 M574.4,7.9h2 M551.1,7.9h2 M527.7,7.9
	h2 M504.4,7.9h2 M481,7.9h2.1 M457.7,7.9h2 M434.3,7.9h2 M411,7.9h2.1 M387.6,7.9h2 M364.2,7.9h2.1 M340.9,7.9h2 M317.6,7.9h2
	 M294.2,7.9h2 M381.8-0.4h2.1 M358.5-0.4h2 M335.1-0.4h2 M311.7-0.4h2 M288.4-0.4h2.1 M583.7,130.7h3.4 M576.8,130.7h2.7
	 M560.3,130.7h3.4 M553.5,130.7h2.7 M537,130.7h3.4 M530.1,130.7h2.8 M513.7,130.7h3.4 M506.8,130.7h2.7 M490.3,130.7h3.4
	 M483.4,130.7h2.8 M467,130.7h3.4 M460.1,130.7h2.7 M443.6,130.7h3.4 M436.8,130.7h2.7 M420.2,130.7h3.4 M413.4,130.7h2.8
	 M396.9,130.7h3.4 M390,130.7h2.7 M373.5,130.7h3.4 M366.7,130.7h2.8 M350.2,130.7h3.4 M343.3,130.7h2.7 M326.8,130.7h3.4
	 M320,130.7h2.7 M303.5,130.7h3.4 M296.6,130.7h2.8 M577.9,122.4h3.4 M571,122.4h2.8 M554.5,122.4h3.4 M547.7,122.4h2.7
	 M344.3,122.4h2.7 M337.5,122.4h2.8 M321,122.4h3.4 M314.2,122.4h2.7 M297.6,122.4h3.4 M290.8,122.4h2.8 M588.5,114.2h2.4
	 M572,114.2h3.4 M565.1,114.2h2.8 M548.7,114.2h3.4 M338.5,114.2h3.4 M331.6,114.2h2.8 M315.2,114.2h3.4 M308.3,114.2h2.7
	 M291.8,114.2h3.4 M284.9,114.2h2.8 M589.6,106h1.4 M582.7,106h2.7 M566.2,106h3.4 M559.3,106h2.8 M332.7,106h3.4 M325.8,106h2.8
	 M309.3,106h3.4 M302.5,106h2.8 M285.9,106h3.4 M583.7,97.7h3.4 M576.8,97.7h2.7 M560.3,97.7h3.4 M553.5,97.7h2.7 M343.3,97.7h2.7
	 M326.8,97.7h3.4 M320,97.7h2.7 M303.5,97.7h3.4 M296.6,97.7h2.8 M577.9,89.5h3.4 M571,89.5h2.8 M554.5,89.5h3.4 M547.7,89.5h2.7
	 M344.3,89.5h2.7 M337.5,89.5h2.8 M321,89.5h3.4 M314.2,89.5h2.7 M297.6,89.5h3.4 M290.8,89.5h2.8 M588.5,81.2h2.4 M572,81.2h3.4
	 M565.1,81.2h2.8 M548.7,81.2h3.4 M338.5,81.2h3.4 M331.6,81.2h2.8 M315.2,81.2h3.4 M308.3,81.2h2.7 M291.8,81.2h3.4 M284.9,81.2
	h2.8 M589.6,73h1.4 M582.7,73h2.7 M566.2,73h3.4 M559.3,73h2.8 M332.7,73h3.4 M325.8,73h2.8 M309.3,73h3.4 M302.5,73h2.8 M285.9,73
	h3.4 M583.7,64.7h3.4 M576.8,64.7h2.7 M560.3,64.7h3.4 M553.5,64.7h2.7 M343.3,64.7h2.7 M326.8,64.7h3.4 M320,64.7h2.7 M303.5,64.7
	h3.4 M296.6,64.7h2.8 M577.9,56.5h3.4 M571,56.5h2.8 M554.5,56.5h3.4 M548.2,56.5h2.2 M344.3,56.5h3 M337.5,56.5h2.8 M321,56.5h3.4
	 M314.2,56.5h2.7 M297.6,56.5h3.4"/>
<path class="st4" d="M562.1,40.4v-7.9 M562.1,73.3v-7.9 M562.1,106.3v-7.9 M562.1,138.3v-7 M556.2,32.1v-7.9 M556.2,65.1v-7.9
	 M556.2,98.1v-7.9 M556.2,131v-7.9 M550.4,23.9V16 M550.4,56.8v-7.9 M550.4,89.8v-7.9 M550.4,122.8v-7.9 M544.5,15.6V7.7
	 M544.5,48.6v-7.9 M538.7,7.4V0.1 M538.7,40.4v-7.9 M538.7,138.3v-6.9 M532.9,32.1v-7.9 M532.9,131v-7.9 M527,23.9V16 M527,52.6
	v-3.7 M527,122.8v-0.2 M521.2,15.6V7.7 M521.2,48.6v-7.9 M515.4,7.4V0.1 M515.4,40.4v-7.9 M515.4,138.2v-6.9 M509.5,32.1v-7.9
	 M509.5,131v-7.9 M503.7,23.9V16 M503.7,52.6v-3.7 M503.7,122.8v-0.2 M497.9,15.6V7.7 M497.9,48.6v-7.9 M492,7.4v-7.5 M492,40.4
	v-7.9 M492,138.2v-6.8 M486.2,32.1v-7.9 M486.2,131v-7.9 M480.3,23.9V16 M480.3,52.6v-3.7 M480.3,122.8v-0.2 M474.5,15.6V7.7
	 M474.5,48.6v-7.9 M468.6,7.4v-7.5 M468.6,40.4v-7.9 M468.6,138.1v-6.8 M462.8,32.1v-7.9 M462.8,131v-7.9 M457,23.9V16 M457,52.6
	v-3.6 M457,122.8v-0.2 M451.2,15.6V7.7 M451.2,48.6v-7.9 M445.3,7.4v-7.6 M445.3,40.4v-7.9 M445.3,138v-6.7 M439.5,32.1v-7.9
	 M439.5,131v-7.9 M433.6,23.9V16 M433.6,52.6v-3.6 M433.6,122.8v-0.2 M427.8,15.6V7.7 M427.8,48.6v-7.9 M422,7.4v-7.7 M422,40.4
	v-7.9 M422,138v-6.6 M416.1,32.1v-7.9 M416.1,131v-7.9 M410.3,23.9V16 M410.3,52.5v-3.6 M410.3,122.8v-0.2 M404.4,15.6V7.7
	 M404.4,48.6v-7.9 M398.6,7.4v-7.7 M398.6,40.4v-7.9 M398.6,137.9v-6.5 M392.8,32.1v-7.9 M392.8,131v-7.9 M386.9,23.9V16
	 M386.9,52.5v-3.6 M386.9,122.8v-0.2 M381.1,15.6V7.7 M381.1,48.6v-7.9 M375.3,7.4v-7.8 M375.3,40.4v-7.9 M375.3,137.8v-6.4
	 M369.4,32.1v-7.9 M369.4,131v-7.9 M363.6,23.9V16 M363.6,52.5v-3.6 M363.6,122.8v-0.2 M357.7,15.6V7.7 M357.7,48.6v-7.9 M351.9,7.4
	v-7.9 M351.9,40.4v-7.9 M351.9,137.7v-6.4 M346,32.1v-7.9 M346,65.1v-7.9 M346,98.1v-7.9 M346,131v-7.9 M340.3,23.9V16 M340.3,56.8
	v-7.9 M340.3,89.8v-7.9 M340.3,122.8v-7.9 M334.4,15.6V7.7 M334.4,48.6v-7.9 M334.4,81.6v-7.9 M334.4,114.5v-7.9 M328.6,7.4v-7.9
	 M328.6,40.4v-7.9 M328.6,73.3v-7.9 M328.6,106.3v-7.9 M328.6,137.7v-6.3 M322.7,32.1v-7.9 M322.7,65.1v-7.9 M322.7,98.1v-7.9
	 M322.7,131v-7.9 M316.9,23.9V16 M316.9,56.8v-7.9 M316.9,89.8v-7.9 M316.9,122.8v-7.9 M311,15.6V7.7 M311,48.6v-7.9 M311,81.6v-7.9
	 M311,114.5v-7.9 M305.2,7.4v-7.9 M305.2,40.4v-7.9 M305.2,73.3v-7.9 M305.2,106.3v-7.9 M305.2,137.6v-6.3 M299.4,32.1v-7.9
	 M299.4,65.1v-7.9 M299.4,98.1v-7.9 M299.4,131v-7.9 M293.5,23.9V16 M293.5,56.8v-7.9 M293.5,89.8v-7.9 M293.5,122.8v-7.9
	 M287.7,15.6V7.7 M287.7,48.6v-7.9 M287.7,81.6v-7.9 M287.7,114.5v-7.9 M568.6,131.5h2 M545.3,131.5h2 M521.9,131.5h2.1
	 M498.5,131.5h2.1 M475.2,131.5h2 M451.8,131.5h2 M428.5,131.5h2 M405.1,131.5h2.1 M381.8,131.5h2 M358.5,131.5h2 M335.1,131.5h2
	 M311.7,131.5h2 M288.4,131.5h2.1 M586.1,123.3h2 M562.7,123.3h2.1 M539.4,123.3h2.1 M516.1,123.3h2 M492.7,123.3h2 M469.4,123.3h2
	 M446,123.3h2.1 M422.6,123.3h2 M399.3,123.3h2 M375.9,123.3h2 M352.6,123.3h2 M329.2,123.3h2.1 M305.9,123.3h2 M580.3,115.1h2
	 M556.9,115.1h2.1 M346.8,115.1h0.2 M323.4,115.1h2.1 M300,115.1h2.1 M574.4,106.8h2 M551.1,106.8h2 M340.9,106.8h2 M317.6,106.8h2
	 M294.2,106.8h2 M568.6,98.6h2 M546.8,98.6h0.5 M335.1,98.6h2 M311.7,98.6h2 M288.4,98.6h2.1 M586.1,90.3h2 M562.7,90.3h2.1
	 M329.2,90.3h2.1 M305.9,90.3h2 M580.3,82.1h2 M556.9,82.1h2.1 M346.8,82.1h0.4 M323.4,82.1h2.1 M300,82.1h2.1 M574.4,73.8h2
	 M551.1,73.8h2 M340.9,73.8h2 M317.6,73.8h2 M294.2,73.8h2 M568.6,65.6h2 M335.1,65.6h2"/>
<path class="st4" d="M306.9,65.1v-7.2 M306.9,98.1v-7.2 M306.9,131v-7.2 M301.1,23.9v-7.2 M301.1,56.8v-7.2 M301.1,89.8v-7.2
	 M301.1,122.8v-7.2 M295.2,15.6V8.4 M295.2,48.6v-7.2 M295.2,81.6v-7.2 M295.2,114.5v-7.2 M289.4,7.4V0.2 M289.4,40.4v-7.2
	 M289.4,73.3v-7.2 M289.4,106.3v-7.2 M289.4,137.6v-5.5 M589.6,7.4V0.2 M589.6,40.4v-7.8 M589.6,73.3v-7.7 M589.6,106.3v-7.7
	 M589.6,138.5v-6.9 M583.7,32.1v-7.7 M583.7,65.1v-7.7 M583.7,98.1v-7.8 M583.7,131v-7.8 M577.9,23.9v-7.7 M577.9,56.8v-7.7
	 M577.9,89.8v-7.7 M577.9,122.8v-7.7 M572,15.6V7.9 M572,48.6v-7.7 M572,81.6v-7.7 M572,114.5v-7.7 M566.2,7.4V0.2 M566.2,40.4v-7.8
	 M566.2,73.3v-7.7 M566.2,106.3v-7.7 M566.2,138.4v-6.9 M560.3,32.1v-7.7 M560.3,65.1v-7.7 M560.3,98.1v-7.8 M560.3,131v-7.8
	 M554.5,23.9v-7.7 M554.5,56.8v-7.7 M554.5,89.8v-7.7 M554.5,122.8v-7.7 M548.7,15.6V7.9 M548.7,48.6v-7.7 M548.7,81.6v-7.7
	 M548.7,114.5v-7.7 M542.8,7.4V0.1 M542.8,40.4v-7.8 M542.8,138.3v-6.8 M537,32.1v-7.7 M537,131v-7.8 M531.1,23.9v-7.7 M531.1,52.6
	v-3.5 M531.1,122.8v-0.2 M525.3,15.6V7.9 M525.3,48.6v-7.7 M519.5,7.4V0.1 M519.5,40.4v-7.8 M519.5,138.2v-6.7 M513.7,32.1v-7.7
	 M513.7,131v-7.8 M507.8,23.9v-7.7 M507.8,52.6v-3.5 M507.8,122.8v-0.2 M502,15.6V7.9 M502,48.6v-7.7 M496.1,7.4V0 M496.1,40.4v-7.8
	 M496.1,138.2v-6.6 M490.3,32.1v-7.7 M490.3,131v-7.8 M484.4,23.9v-7.7 M484.4,52.6v-3.5 M484.4,122.8v-0.2 M478.6,15.6V7.9
	 M478.6,48.6v-7.7 M472.8,7.4v-7.5 M472.8,40.4v-7.8 M472.8,138.1v-6.6 M467,32.1v-7.7 M467,131v-7.8 M461.1,23.9v-7.7 M461.1,52.6
	v-3.4 M461.1,122.8v-0.2 M455.3,15.6V7.9 M455.3,48.6v-7.7 M449.4,7.4v-7.6 M449.4,40.4v-7.8 M449.4,138v-6.5 M443.6,32.1v-7.7
	 M443.6,131v-7.8 M437.8,23.9v-7.7 M437.8,52.6v-3.4 M437.8,122.8v-0.2 M431.9,15.6V7.9 M431.9,48.6v-7.7 M426.1,7.4v-7.7
	 M426.1,40.4v-7.8 M426.1,138v-6.4 M420.2,32.1v-7.7 M420.2,131v-7.8 M414.4,23.9v-7.7 M414.4,52.5v-3.4 M414.4,122.8v-0.2
	 M408.5,15.6V7.9 M408.5,48.6v-7.7 M402.8,7.4v-7.7 M402.8,40.4v-7.8 M402.8,137.9v-6.4 M396.9,32.1v-7.7 M396.9,131v-7.8
	 M391.1,23.9v-7.7 M391.1,52.5v-3.4 M391.1,122.8v-0.2 M385.2,15.6V7.9 M385.2,48.6v-7.7 M379.4,7.4v-7.8 M379.4,40.4v-7.8
	 M379.4,137.8v-6.3 M373.5,32.1v-7.7 M373.5,131v-7.8 M367.7,23.9v-7.7 M367.7,52.5v-3.4 M367.7,122.8v-0.2 M361.9,15.6V7.9
	 M361.9,48.6v-7.7 M356,7.4v-7.8 M356,40.4v-7.8 M356,137.7v-6.2 M350.2,32.1v-7.7 M350.2,131v-7.8 M344.3,23.9v-7.7 M344.3,56.8
	v-7.7 M344.3,89.8v-7.7 M344.3,122.8v-7.7 M338.5,15.6V7.9 M338.5,48.6v-7.7 M338.5,81.6v-7.7 M338.5,114.5v-7.7 M332.7,7.4v-7.8
	 M332.7,40.4v-7.8 M332.7,73.3v-7.7 M332.7,106.3v-7.7 M332.7,137.7v-6.1 M326.8,32.1v-7.7 M326.8,65.1v-7.7 M326.8,98.1v-7.8
	 M326.8,131v-7.8 M321,23.9v-7.7 M321,56.8v-7.7 M321,89.8v-7.7 M321,122.8v-7.7 M315.2,15.6V7.9 M315.2,48.6v-7.7 M315.2,81.6v-7.7
	 M315.2,114.5v-7.7 M309.3,7.4v-7.8 M309.3,40.4v-7.8 M309.3,73.3v-7.7 M309.3,106.3v-7.7 M309.3,137.6v-6.1 M303.5,32.1v-7.7
	 M303.5,65.1v-7.7 M303.5,98.1v-7.8 M303.5,131v-7.8 M297.6,23.9v-7.7 M297.6,56.8v-7.7 M297.6,89.8v-7.7 M297.6,122.8v-7.7
	 M291.8,15.6V7.9 M291.8,48.6v-7.7 M291.8,81.6v-7.7 M291.8,114.5v-7.7 M285.9,7.4v-7.8 M285.9,40.4v-7.8 M285.9,73.3v-7.7
	 M285.9,106.3v-7.7 M285.9,137.6v-6 M585.4,7.4V0.2 M585.4,40.4v-7.9 M585.4,73.3v-7.9 M585.4,106.3v-7.9 M585.4,138.5v-7.1
	 M579.5,32.1v-7.9 M579.5,65.1v-7.9 M579.5,98.1v-7.9 M579.5,131v-7.9 M573.8,23.9V16 M573.8,56.8v-7.9 M573.8,89.8v-7.9
	 M573.8,122.8v-7.9 M567.9,15.6V7.7 M567.9,48.6v-7.9 M567.9,81.6v-7.9 M567.9,114.5v-7.9 M562.1,7.4V0.2"/>
<g>
	<defs>
		<rect id="SVGID_21_" x="-651.1" y="-0.8" width="1796.7" height="400.7"/>
	</defs>
	<clipPath id="SVGID_22_">
		<use xlink:href="#SVGID_21_"  style="overflow:visible;"/>
	</clipPath>
	<path class="st17" d="M358.5-0.4L358.5-0.4 M358.5,32.6v-7.9 M358.5,131.5v-7.9 M352.6,24.4v-7.9 M352.6,52.4v-3 M352.6,123.3v-0.7
		 M346.8,16.2V8.3 M346.8,49.1v-7.9 M346.8,82.1v-7.9 M346.8,115.1v-7.9 M340.9,7.9V0 M340.9,40.9V33 M340.9,73.8v-7.9 M340.9,106.8
		v-7.9 M340.9,137.7v-5.8 M335.1-0.4v-0.1 M335.1,32.6v-7.9 M335.1,65.6v-7.9 M335.1,98.6v-7.9 M335.1,131.5v-7.9 M329.2,24.4v-7.9
		 M329.2,57.4v-7.9 M329.2,90.3v-7.9 M329.2,123.3v-7.9 M323.4,16.2V8.3 M323.4,49.1v-7.9 M323.4,82.1v-7.9 M323.4,115.1v-7.9
		 M317.6,7.9V0 M317.6,40.9V33 M317.6,73.8v-7.9 M317.6,106.8v-7.9 M317.6,137.6v-5.7 M311.7-0.4v-0.2 M311.7,32.6v-7.9 M311.7,65.6
		v-7.9 M311.7,98.6v-7.9 M311.7,131.5v-7.9 M305.9,24.4v-7.9 M305.9,57.4v-7.9 M305.9,90.3v-7.9 M305.9,123.3v-7.9 M300,16.2V8.3
		 M300,49.1v-7.9 M300,82.1v-7.9 M300,115.1v-7.9 M294.2,7.9V0 M294.2,40.9V33 M294.2,73.8v-7.9 M294.2,106.8v-7.9 M294.2,137.6
		v-5.7 M288.4-0.4v-0.3 M288.4,32.6v-7.9 M288.4,65.6v-7.9 M288.4,98.6v-7.9 M288.4,131.5v-7.9 M587.1,32.1v-7.2 M587.1,65.1v-7.2
		 M587.1,98.1v-7.2 M587.1,131v-7.2 M581.3,23.9v-7.2 M581.3,56.8v-7.2 M581.3,89.8v-7.2 M581.3,122.8v-7.2 M575.5,15.6V8.4
		 M575.5,48.6v-7.2 M575.5,81.6v-7.2 M575.5,114.5v-7.2 M569.6,7.4V0.2 M569.6,40.4v-7.2 M569.6,73.3v-7.2 M569.6,106.3v-7.2
		 M569.6,138.4v-6.3 M563.8,32.1v-7.2 M563.8,65.1v-7.2 M563.8,98.1v-7.2 M563.8,131v-7.2 M558,23.9v-7.2 M558,56.8v-7.2 M558,89.8
		v-7.2 M558,122.8v-7.2 M552.1,15.6V8.4 M552.1,48.6v-7.2 M552.1,81.6v-7.2 M552.1,114.5v-7.2 M546.3,7.4V0.2 M546.3,40.4v-7.2
		 M546.3,138.3v-6.3 M540.4,32.1v-7.2 M540.4,131v-7.2 M534.6,23.9v-7.2 M534.6,52.7v-3.1 M534.6,122.8v-0.2 M528.7,15.6V8.4
		 M528.7,48.6v-7.2 M522.9,7.4V0.2 M522.9,40.4v-7.2 M522.9,138.3v-6.2 M517.1,32.1v-7.2 M517.1,131v-7.2 M511.3,23.9v-7.2
		 M511.3,52.6v-3 M511.3,122.8v-0.2 M505.4,15.6V8.4 M505.4,48.6v-7.2 M499.6,7.4V0.2 M499.6,40.4v-7.2 M499.6,138.2v-6.1
		 M493.7,32.1v-7.2 M493.7,131v-7.2 M487.9,23.9v-7.2 M487.9,52.6v-3 M487.9,122.8v-0.2 M482.1,15.6V8.4 M482.1,48.6v-7.2
		 M476.2,7.4V0.2 M476.2,40.4v-7.2 M476.2,138.1v-6 M470.4,32.1v-7.2 M470.4,131v-7.2 M464.5,23.9v-7.2 M464.5,52.6v-3 M464.5,122.8
		v-0.2 M458.7,15.6V8.4 M458.7,48.6v-7.2 M452.8,7.4V0.2 M452.8,40.4v-7.2 M452.8,138v-6 M447,32.1v-7.2 M447,131v-7.2 M441.2,23.9
		v-7.2 M441.2,52.6v-3 M441.2,122.8v-0.2 M435.4,15.6V8.4 M435.4,48.6v-7.2 M429.5,7.4V0.2 M429.5,40.4v-7.2 M429.5,138v-5.9
		 M423.7,32.1v-7.2 M423.7,131v-7.2 M417.8,23.9v-7.2 M417.8,52.6v-3 M417.8,122.8v-0.2 M412,15.6V8.4 M412,48.6v-7.2 M406.1,7.4
		V0.2 M406.1,40.4v-7.2 M406.1,137.9v-5.8 M400.3,32.1v-7.2 M400.3,131v-7.2 M394.5,23.9v-7.2 M394.5,52.5v-2.9 M394.5,122.8v-0.2
		 M388.7,15.6V8.4 M388.7,48.6v-7.2 M382.8,7.4V0.2 M382.8,40.4v-7.2 M382.8,137.9v-5.8 M377,32.1v-7.2 M377,131v-7.2 M371.1,23.9
		v-7.2 M371.1,52.5v-2.9 M371.1,122.8v-0.2 M365.3,15.6V8.4 M365.3,48.6v-7.2 M359.5,7.4V0.2 M359.5,40.4v-7.2 M359.5,137.7v-5.7
		 M353.6,32.1v-7.2 M353.6,131v-7.2 M347.8,23.9v-7.2 M347.8,52.4v-2.8 M347.8,122.8v-0.2 M341.9,15.6V8.4 M341.9,48.6v-7.2
		 M341.9,81.6v-7.2 M341.9,114.5v-7.2 M336.1,7.4V0.2 M336.1,40.4v-7.2 M336.1,73.3v-7.2 M336.1,106.3v-7.2 M336.1,137.7v-5.6
		 M330.2,32.1v-7.2 M330.2,65.1v-7.2 M330.2,98.1v-7.2 M330.2,131v-7.2 M324.5,23.9v-7.2 M324.5,56.8v-7.2 M324.5,89.8v-7.2
		 M324.5,122.8v-7.2 M318.6,15.6V8.4 M318.6,48.6v-7.2 M318.6,81.6v-7.2 M318.6,114.5v-7.2 M312.8,7.4V0.2 M312.8,40.4v-7.2
		 M312.8,73.3v-7.2 M312.8,106.3v-7.2 M312.8,137.6v-5.5 M306.9,32.1v-7.2"/>
	<path class="st17" d="M442.2,49.1v-7.9 M436.4,7.9V0 M436.4,40.9V33 M436.4,138v-6.1 M430.5,32.6v-7.9 M430.5,131.5v-7.9
		 M424.7,24.4v-7.9 M424.7,52.6v-3.1 M424.7,123.3v-0.7 M418.9,16.2V8.3 M418.9,49.1v-7.9 M413,7.9V0 M413,40.9V33 M413,137.9v-6
		 M407.2,32.6v-7.9 M407.2,131.5v-7.9 M401.4,24.4v-7.9 M401.4,52.5v-3 M401.4,123.3v-0.7 M395.5,16.2V8.3 M395.5,49.1v-7.9
		 M389.7,7.9V0 M389.7,40.9V33 M389.7,137.9v-6 M383.8,32.6v-7.9 M383.8,131.5v-7.9 M378,24.4v-7.9 M378,52.5v-3 M378,123.3v-0.7
		 M372.1,16.2V8.3 M372.1,49.1v-7.9 M366.4,7.9V0 M366.4,40.9V33 M366.4,137.8v-5.9 M360.5-0.4L360.5-0.4 M360.5,32.6v-7.9
		 M360.5,131.5v-7.9 M354.7,24.4v-7.9 M354.7,52.4v-3 M354.7,123.3v-0.7 M348.8,16.2V8.3 M348.8,49.1v-7.9 M343,7.9V0 M343,40.9V33
		 M343,73.8v-7.9 M343,106.8v-7.9 M343,137.7v-5.8 M337.1-0.4v-0.1 M337.1,32.6v-7.9 M337.1,65.6v-7.9 M337.1,98.6v-7.9
		 M337.1,131.5v-7.9 M331.3,24.4v-7.9 M331.3,57.4v-7.9 M331.3,90.3v-7.9 M331.3,123.3v-7.9 M325.5,16.2V8.3 M325.5,49.1v-7.9
		 M325.5,82.1v-7.9 M325.5,115.1v-7.9 M319.6,7.9V0 M319.6,40.9V33 M319.6,73.8v-7.9 M319.6,106.8v-7.9 M319.6,137.6v-5.7
		 M313.8-0.4v-0.2 M313.8,32.6v-7.9 M313.8,65.6v-7.9 M313.8,98.6v-7.9 M313.8,131.5v-7.9 M307.9,24.4v-7.9 M307.9,57.4v-7.9
		 M307.9,90.3v-7.9 M307.9,123.3v-7.9 M302.1,16.2V8.3 M302.1,49.1v-7.9 M302.1,82.1v-7.9 M302.1,115.1v-7.9 M296.2,7.9V0
		 M296.2,40.9V33 M296.2,73.8v-7.9 M296.2,106.8v-7.9 M296.2,137.6v-5.7 M290.5-0.4v-0.3 M290.5,32.6v-7.9 M290.5,65.6v-7.9
		 M290.5,98.6v-7.9 M290.5,131.5v-7.9 M586.1,24.4v-7.9 M586.1,57.4v-7.9 M586.1,90.3v-7.9 M586.1,123.3v-7.9 M580.3,16.2V8.3
		 M580.3,49.1v-7.9 M580.3,82.1v-7.9 M580.3,115.1v-7.9 M574.4,7.9V0.2 M574.4,40.9V33 M574.4,73.8v-7.9 M574.4,106.8v-7.9
		 M574.4,138.4v-6.5 M568.6,32.6v-7.9 M568.6,65.6v-7.9 M568.6,98.6v-7.9 M568.6,131.5v-7.9 M562.7,24.4v-7.9 M562.7,57.4v-7.9
		 M562.7,90.3v-7.9 M562.7,123.3v-7.9 M556.9,16.2V8.3 M556.9,49.1v-7.9 M556.9,82.1v-7.9 M556.9,115.1v-7.9 M551.1,7.9V0.1
		 M551.1,40.9V33 M551.1,73.8v-7.9 M551.1,106.8v-7.9 M551.1,138.3v-6.5 M545.3,32.6v-7.9 M545.3,131.5v-7.9 M539.4,24.4v-7.9
		 M539.4,52.7v-3.2 M539.4,123.3v-0.7 M533.6,16.2V8.3 M533.6,49.1v-7.9 M527.7,7.9V0.1 M527.7,40.9V33 M527.7,138.3v-6.4
		 M521.9,32.6v-7.9 M521.9,131.5v-7.9 M516.1,24.4v-7.9 M516.1,52.6v-3.1 M516.1,123.3v-0.7 M510.2,16.2V8.3 M510.2,49.1v-7.9
		 M504.4,7.9V0 M504.4,40.9V33 M504.4,138.2v-6.3 M498.5,32.6v-7.9 M498.5,131.5v-7.9 M492.7,24.4v-7.9 M492.7,52.6v-3.1
		 M492.7,123.3v-0.7 M486.8,16.2V8.3 M486.8,49.1v-7.9 M481,7.9V0 M481,40.9V33 M481,138.1v-6.2 M475.2,32.6v-7.9 M475.2,131.5v-7.9
		 M469.4,24.4v-7.9 M469.4,52.6v-3.1 M469.4,123.3v-0.7 M463.5,16.2V8.3 M463.5,49.1v-7.9 M457.7,7.9V0 M457.7,40.9V33 M457.7,138
		v-6.1 M451.8,32.6v-7.9 M451.8,131.5v-7.9 M446,24.4v-7.9 M446,52.6v-3.1 M446,123.3v-0.7 M440.1,16.2V8.3 M440.1,49.1v-7.9
		 M434.3,7.9V0 M434.3,40.9V33 M434.3,138v-6.1 M428.5,32.6v-7.9 M428.5,131.5v-7.9 M422.6,24.4v-7.9 M422.6,52.6v-3.1 M422.6,123.3
		v-0.7 M416.8,16.2V8.3 M416.8,49.1v-7.9 M411,7.9V0 M411,40.9V33 M411,137.9v-6 M405.1,32.6v-7.9 M405.1,131.5v-7.9 M399.3,24.4
		v-7.9 M399.3,52.5v-3 M399.3,123.3v-0.7 M393.5,16.2V8.3 M393.5,49.1v-7.9 M387.6,7.9V0 M387.6,40.9V33 M387.6,137.9v-6
		 M381.8,32.6v-7.9 M381.8,131.5v-7.9 M375.9,24.4v-7.9 M375.9,52.5v-3 M375.9,123.3v-0.7 M370.1,16.2V8.3 M370.1,49.1v-7.9
		 M364.2,7.9V0 M364.2,40.9V33 M364.2,137.8v-5.9"/>
</g>
<path class="st4" d="M524.3,52.6v-3.3 M524.3,122.8v-0.2 M518.4,15.6V8.1 M518.4,48.6V41 M512.6,7.4V0 M512.6,40.4v-7.6
	 M512.6,138.2v-6.5 M506.8,32.1v-7.6 M506.8,131v-7.6 M500.9,23.9v-7.5 M500.9,52.6v-3.3 M500.9,122.8v-0.2 M495.1,15.6V8.1
	 M495.1,48.6V41 M489.3,7.4v-7.5 M489.3,40.4v-7.6 M489.3,138.2v-6.4 M483.4,32.1v-7.6 M483.4,131v-7.6 M477.6,23.9v-7.5
	 M477.6,52.6v-3.3 M477.6,122.8v-0.2 M471.8,15.6V8.1 M471.8,48.6V41 M465.9,7.4v-7.5 M465.9,40.4v-7.6 M465.9,138.1v-6.4
	 M460.1,32.1v-7.6 M460.1,131v-7.6 M454.2,23.9v-7.5 M454.2,52.6v-3.3 M454.2,122.8v-0.2 M448.4,15.6V8.1 M448.4,48.6V41 M442.5,7.4
	v-7.6 M442.5,40.4v-7.6 M442.5,138v-6.3 M436.8,32.1v-7.6 M436.8,131v-7.6 M430.9,23.9v-7.5 M430.9,52.6v-3.3 M430.9,122.8v-0.2
	 M425.1,15.6V8.1 M425.1,48.6V41 M419.2,7.4v-7.6 M419.2,40.4v-7.6 M419.2,137.9v-6.2 M413.4,32.1v-7.6 M413.4,131v-7.6 M407.5,23.9
	v-7.5 M407.5,52.5v-3.2 M407.5,122.8v-0.2 M401.7,15.6V8.1 M401.7,48.6V41 M395.9,7.4v-7.6 M395.9,40.4v-7.6 M395.9,137.9v-6.1
	 M390,32.1v-7.6 M390,131v-7.6 M384.2,23.9v-7.5 M384.2,52.5v-3.2 M384.2,122.8v-0.2 M378.3,15.6V8.1 M378.3,48.6V41 M372.5,7.4
	v-7.6 M372.5,40.4v-7.6 M372.5,137.8v-6.1 M366.7,32.1v-7.6 M366.7,131v-7.6 M360.8,23.9v-7.5 M360.8,52.5v-3.2 M360.8,122.8v-0.2
	 M355,15.6V8.1 M355,48.6V41 M349.2,7.4v-7.6 M349.2,40.4v-7.6 M349.2,137.7v-6 M343.3,32.1v-7.6 M343.3,65.1v-7.6 M343.3,98.1v-7.6
	 M343.3,131v-7.6 M337.5,23.9v-7.5 M337.5,56.8v-7.5 M337.5,89.8v-7.5 M337.5,122.8v-7.6 M331.6,15.6V8.1 M331.6,48.6V41
	 M331.6,81.6V74 M331.6,114.5V107 M325.8,7.4v-7.6 M325.8,40.4v-7.6 M325.8,73.3v-7.5 M325.8,106.3v-7.5 M325.8,137.7v-6 M320,32.1
	v-7.6 M320,65.1v-7.6 M320,98.1v-7.6 M320,131v-7.6 M314.2,23.9v-7.5 M314.2,56.8v-7.5 M314.2,89.8v-7.5 M314.2,122.8v-7.6
	 M308.3,15.6V8.1 M308.3,48.6V41 M308.3,81.6V74 M308.3,114.5V107 M302.5,7.4v-7.6 M302.5,40.4v-7.6 M302.5,73.3v-7.5 M302.5,106.3
	v-7.5 M302.5,137.6v-5.9 M296.6,32.1v-7.6 M296.6,65.1v-7.6 M296.6,98.1v-7.6 M296.6,131v-7.6 M290.8,23.9v-7.5 M290.8,56.8v-7.5
	 M290.8,89.8v-7.5 M290.8,122.8v-7.6 M284.9,15.6V8.1 M284.9,48.6V41 M284.9,81.6V74 M284.9,114.5V107 M588.2,24.4v-7.9 M588.2,57.4
	v-7.9 M588.2,90.3v-7.9 M588.2,123.3v-7.9 M582.3,16.2V8.3 M582.3,49.1v-7.9 M582.3,82.1v-7.9 M582.3,115.1v-7.9 M576.5,7.9V0.2
	 M576.5,40.9V33 M576.5,73.8v-7.9 M576.5,106.8v-7.9 M576.5,138.4v-6.5 M570.6,32.6v-7.9 M570.6,65.6v-7.9 M570.6,98.6v-7.9
	 M570.6,131.5v-7.9 M564.8,24.4v-7.9 M564.8,57.4v-7.9 M564.8,90.3v-7.9 M564.8,123.3v-7.9 M559,16.2V8.3 M559,49.1v-7.9 M559,82.1
	v-7.9 M559,115.1v-7.9 M553.1,7.9V0.1 M553.1,40.9V33 M553.1,73.8v-7.9 M553.1,106.8v-7.9 M553.1,138.3v-6.4 M547.3,32.6v-7.9
	 M547.3,98.6v-7.9 M547.3,131.5v-7.9 M541.5,24.4v-7.9 M541.5,52.7v-3.2 M541.5,123.3v-0.7 M535.6,16.2V8.3 M535.6,49.1v-7.9
	 M529.8,7.9V0.1 M529.8,40.9V33 M529.8,138.3v-6.4 M524,32.6v-7.9 M524,131.5v-7.9 M518.1,24.4v-7.9 M518.1,52.6v-3.1 M518.1,123.3
	v-0.7 M512.3,16.2V8.3 M512.3,49.1v-7.9 M506.4,7.9V0 M506.4,40.9V33 M506.4,138.2v-6.3 M500.6,32.6v-7.9 M500.6,131.5v-7.9
	 M494.7,24.4v-7.9 M494.7,52.6v-3.1 M494.7,123.3v-0.7 M488.9,16.2V8.3 M488.9,49.1v-7.9 M483.1,7.9V0 M483.1,40.9V33 M483.1,138.2
	v-6.3 M477.3,32.6v-7.9 M477.3,131.5v-7.9 M471.4,24.4v-7.9 M471.4,52.6v-3.1 M471.4,123.3v-0.7 M465.6,16.2V8.3 M465.6,49.1v-7.9
	 M459.7,7.9V0 M459.7,40.9V33 M459.7,138v-6.1 M453.9,32.6v-7.9 M453.9,131.5v-7.9 M448.1,24.4v-7.9 M448.1,52.6v-3.1 M448.1,123.3
	v-0.7 M442.2,16.2V8.3"/>
<path class="st4" d="M588.5,15.6V8.1 M588.5,48.6V41 M588.5,81.6V74 M588.5,114.5V107 M582.7,7.4V0.2 M582.7,40.4v-7.6 M582.7,73.3
	v-7.5 M582.7,106.3v-7.5 M582.7,138.4v-6.7 M576.8,32.1v-7.6 M576.8,65.1v-7.6 M576.8,98.1v-7.6 M576.8,131v-7.6 M571,23.9v-7.5
	 M571,56.8v-7.5 M571,89.8v-7.5 M571,122.8v-7.6 M565.1,15.6V8.1 M565.1,48.6V41 M565.1,81.6V74 M565.1,114.5V107 M559.3,7.4V0.2
	 M559.3,40.4v-7.6 M559.3,73.3v-7.5 M559.3,106.3v-7.5 M559.3,138.3v-6.6 M553.5,32.1v-7.6 M553.5,65.1v-7.6 M553.5,98.1v-7.6
	 M553.5,131v-7.6 M547.7,23.9v-7.5 M547.7,52.7v-3.4 M547.7,89.8v-7.5 M547.7,122.8v-7.6 M541.8,15.6V8.1 M541.8,48.6V41 M536,7.4
	V0.1 M536,40.4v-7.6 M536,138.3v-6.6 M530.1,32.1v-7.6 M530.1,131v-7.6 M524.3,23.9v-7.5"/>
<line class="st0" x1="590.9" y1="137.6" x2="284.9" y2="137.6"/>
<polyline class="st1" points="500.8,230.5 500.8,177.3 535.4,177.3 535.4,230.5 "/>
<rect x="502.3" y="178.8" class="st4" width="31.6" height="50.2"/>
<path class="st1" d="M425,230.5v-53.2h32.5v53.2 M494.7,170.9h46.8 M494.7,171.2h46.8 M497.8,230.5v-56.2h40.7v56.2"/>
<rect x="426.5" y="178.8" class="st4" width="29.5" height="50.2"/>
<g>
	<defs>
		<rect id="SVGID_23_" x="-651.1" y="-0.8" width="1796.7" height="400.7"/>
	</defs>
	<clipPath id="SVGID_24_">
		<use xlink:href="#SVGID_23_"  style="overflow:visible;"/>
	</clipPath>
	<path class="st18" d="M544.7,233.6v-3.1h-53.2v3.1 M544.7,233.6h-53.2 M467.9,233.6v-3.1h-53.2v3.1 M467.9,233.6h-53.2
		 M331.5,230.4v3 M384.6,230.4v3 M334.5,171.2v-0.3 M381.5,171.2v-0.3 M418.9,171.2v-0.3 M463.6,171.2v-0.3 M541.5,171.2v-0.3
		 M494.7,171.2v-0.3 M381.5,171.3c-1.3,0.6-2.4,1.7-3,3 M378.5,174.3c-1.3,0.6-2.4,1.7-3,3 M460.5,174.3c-1.3,0.6-2.4,1.7-3,3
		 M463.6,171.3c-1.3,0.6-2.4,1.7-3,3 M538.4,174.3c-1.3,0.6-2.4,1.7-3,3 M541.5,171.3c-1.3,0.6-2.4,1.7-3,3 M500.7,177.3
		c-0.6-1.3-1.7-2.4-3-3 M497.7,174.3c-0.6-1.3-1.7-2.4-3-3 M425,177.3c-0.6-1.3-1.7-2.4-3-3 M421.9,174.3c-0.6-1.3-1.7-2.4-3-3
		 M340.5,177.3c-0.6-1.3-1.7-2.4-3-3 M337.5,174.3c-0.6-1.3-1.7-2.4-3-3 M334.5,170.9h47.1 M334.5,171.2h47.1 M384.6,230.4h-53.2
		 M384.6,233.5h-53.2 M337.5,230.4v-56.1h41v56.1 M340.6,230.4v-53.1h34.9v53.1 M418.9,170.9h44.7 M418.9,171.2h44.7 M422,230.5
		v-56.2h38.6v56.2"/>
	<path class="st19" d="M590.9,139.5V-0.1 M284.9,137.6V-0.1"/>
</g>
<line class="st2" x1="284.9" y1="137.6" x2="284.9" y2="139.5"/>
<g>
	<defs>
		<rect id="SVGID_25_" x="-651.1" y="-0.8" width="1796.7" height="400.7"/>
	</defs>
	<clipPath id="SVGID_26_">
		<use xlink:href="#SVGID_25_"  style="overflow:visible;"/>
	</clipPath>
	<path class="st20" d="M580.2,139.5h10.7 M284.9-0.1h306.1"/>
</g>
<path class="st1" d="M457.8,88h54.7v33.2h-54.7V88z M456.3,86.5H514v36.3h-57.7V86.5z M390.3,88H445v33.2h-54.7V88z M388.8,86.5
	h57.7v36.3h-57.7V86.5z M347,84.8l-0.2-32.1 M547,52.4l-0.2,32.4v37.9 M347,84.8v37.9 M346.8,52.7L547,52.4 M347,84.8h199.8
	 M347,86.4h199.8 M347,122.7h199.8"/>
<rect x="356.8" y="333.4" class="st4" width="1" height="6"/>
<path class="st1" d="M394.5,295.8h6v0.3h-6V295.8z M301.2,268.5h-5.6L277,284.7h18.6h5.6V268.5z"/>
<path class="st4" d="M518.7,301.9H532 M504.2,301.9h13.3 M518.7,303.1H532 M504.2,303.1h13.3 M519.1,214h14.8 M502.3,214h15.6
	 M519.1,215.2h14.8 M502.3,215.2h15.6 M519.1,195.6h14.8 M502.6,195.6h15.3 M519.1,196.8h14.8 M502.6,196.8h15.3 M519.1,215.2V229
	 M519.1,196.8V214 M519.1,215.2V229 M519.1,196.8V214 M519.1,178.8v16.8 M517.9,215.2V229 M517.9,196.8V214 M517.9,215.2V229
	 M517.9,196.8V214 M517.9,178.8v16.8 M441.7,214H456 M426.5,214h14 M441.7,215.2H456 M426.5,215.2h14 M441.7,195.6H456 M426.5,195.6
	h14 M441.7,196.8H456 M426.5,196.8h14 M441.7,215.2V229 M441.7,196.8V214 M441.7,194.3v1.3 M441.7,215.2V229 M441.7,196.8V214
	 M441.7,178.8v16.8 M440.5,215.2V229 M440.5,196.8V214 M440.5,194.3v1.3 M440.5,215.2V229 M440.5,196.8V214 M440.5,178.8v16.8"/>
<g>
	<defs>
		<rect id="SVGID_27_" x="-651.1" y="-0.8" width="1796.7" height="400.7"/>
	</defs>
	<clipPath id="SVGID_28_">
		<use xlink:href="#SVGID_27_"  style="overflow:visible;"/>
	</clipPath>
	<path class="st21" d="M470.8,263v-0.6 M470.7,263c-1.3,0.6-2.4,1.7-3,3 M470.8,262.4h-56.2 M420.5,269.1v85.7 M414.5,263v-0.6
		 M417.5,266c-0.6-1.3-1.7-2.4-3-3 M414.5,263h56.2 M420.5,269.1h44.1 M426.1,269.1h15.2 M426.1,326.8v17.6 M426.1,269.1v80.8"/>
	<path class="st22" d="M590.9,137.6h2.8v1.9h-2.8 M578,330.1h2.1v0.3H578 M578,330.1v0.3 M578,297.6h2.1v0.3H578 M578,297.6v0.3
		 M578,259.6h2.1v0.3H578 M578,259.6v0.3 M578,224.4h2.1v0.3H578 M578,224.4v0.3 M578,194.1h2.1v0.3H578 M578,194.1v0.3
		 M583.5,155.5l0.8,2 M583.2,155.6l0.8,2 M578,160.3h2.1v0.3H578 M579.8,330.4v48.9 M579.8,297.9v32.2 M579.8,259.9v37.8
		 M579.8,224.7v34.8 M579.8,194.4v30 M579.8,160.6v33.5 M579.8,157.8v2.5 M578,160.3v0.3 M578.3,330.4v48.8 M578.3,297.9v32.2
		 M578.3,259.9v37.8 M578.3,224.7v34.8 M578.3,194.4v30 M578.3,160.6v33.5 M580.2,156.3h-1.9v4 M589.6,150l2,0.7 M589.5,150.3l2,0.7
		 M591.5,151c0-0.1,0.1-0.2,0.1-0.3 M584,157.5c0.1,0,0.2-0.1,0.3-0.1 M591.2,150.6c0.7-3.7,1.1-7.4,1.1-11.1 M584.1,157.1
		c3.1-1.1,5.6-3.3,7-6.2 M579.8,157.7c1.4,0,2.7-0.1,4.1-0.6 M589.5,150.3c0-0.1,0.1-0.2,0.1-0.3 M589.9,150.1c0.7-3.5,1-7.1,1-10.6
		 M589.5,150.3C589.5,150.3,589.5,150.2,589.5,150.3 M583.2,155.5c0.1,0,0.2-0.1,0.3-0.1 M583.6,155.7c2.7-0.9,4.9-2.8,6.2-5.4
		 M580.2,156.3c1.1,0,2.1-0.2,3.1-0.5"/>
</g>
<path class="st1" d="M499.7,323.8h36.9 M426.1,344.4h33.1"/>
<path class="st0" d="M556.5,349.9v-27.3 M555.7,349.9V378"/>
<line class="st1" x1="426.1" y1="344.4" x2="426.1" y2="349.9"/>
<path class="st0" d="M555.9,322.6H422.7 M558.1,349.8H422.7"/>
<line class="st4" x1="459.8" y1="344.4" x2="578" y2="344.4"/>
<rect x="311.7" y="266.7" class="st0" width="3" height="19.8"/>
<path class="st1" d="M536.6,178.5h17.5v51.6h-17.5V178.5z M499.6,178.5h-17.4v51.6h17.4V178.5z M459.7,178.8h17.5v51.6h-17.5V178.8z
	 M422.8,178.8h-17.5v51.6h17.5V178.8z M376.5,178.8H394v51.6h-17.5V178.8z M339.5,178.8H322v51.6h17.5V178.8z"/>
<rect x="400.7" y="245" class="st0" width="1.9" height="6.1"/>
<path class="st1" d="M534.5,270.6H552v49.5h-17.5V270.6z M501.7,270.6h-17.5v49.5h17.5V270.6z"/>
<path class="st0" d="M312.2,251.1h1.9V245h-1.9V251.1z M555.6,251.1h2V245h-2V251.1z M478.7,251.1h2V245h-2V251.1z"/>
<path class="st4" d="M358.5,214h15.5 M341.9,214h15.3 M358.5,215.2h15.5 M341.9,215.2h15.3 M358.5,195.6h15.5 M341.9,195.6h15.3
	 M358.5,196.8h15.5 M341.9,196.8h15.3 M358.5,215.2V229 M358.5,196.8V214 M358.5,194.3v1.3 M358.5,215.2V229 M358.5,196.8V214
	 M358.5,178.8v16.8 M357.2,215.2V229 M357.2,196.8V214 M357.2,194.3v1.3 M357.2,215.2V229 M357.2,196.8V214 M357.2,178.8v16.8
	 M341.9,178.8h32V229h-32V178.8z"/>
<path class="st0" d="M393.1,366.7h6.9 M403,364.5V339l19.7-16.4"/>
<path class="st1" d="M395.3,370.6h9.1v-1.2h-9.1V370.6z M402,365.7h9.2v-1.2H402V365.7z M408.7,360.9h9.1v-1.3h-9.1V360.9z
	 M415.4,356h9.7v-1.2h-9.7V356z M425.1,351.1v3.7 M423.9,351.1v3.7 M422.7,351.1h8.5v-1.2h-8.5V351.1z M393.1,366.8v5.4
	 M399.9,326.8v17.6"/>
<rect x="431.2" y="349.9" class="st1" width="126.9" height="1.2"/>
<polyline class="st1" points="397.1,372.2 393.1,372.2 393.1,367 393.1,366.8 "/>
<line class="st13" x1="394.4" y1="364.3" x2="332.1" y2="364.3"/>
<path class="st1" d="M464.7,269.1v80.8 M459.2,269.1v80.8"/>
<line class="st13" x1="417.5" y1="266.1" x2="467.7" y2="266.1"/>
<g>
	<defs>
		<rect id="SVGID_29_" x="-651.1" y="-0.8" width="1796.7" height="400.7"/>
	</defs>
	<clipPath id="SVGID_30_">
		<use xlink:href="#SVGID_29_"  style="overflow:visible;"/>
	</clipPath>
	<path class="st23" d="M397.7,370.6v3.6 M396.5,370.6v3.6 M404.4,365.7v3.7 M403.2,365.7v3.7 M411.1,360.9v3.6 M409.9,360.9v3.6
		 M417.8,356v3.6 M416.6,356v3.6 M467.7,266c-1.3,0.6-2.4,1.7-3,3 M420.5,269.1c-0.6-1.3-1.7-2.4-3-3"/>
</g>
<path class="st4" d="M377.7,363.3l0.4,1 M376.7,360.8l0.7,1.6 M375.6,358.3l0.7,1.7 M374.5,355.8l0.7,1.7 M373.5,353.3l0.7,1.6
	 M372.4,350.8l0.7,1.7 M371.3,348.3l0.7,1.7 M370.3,345.9l0.7,1.6 M369.2,343.3l0.7,1.7 M368.1,340.9l0.7,1.6 M367,338.4l0.7,1.6
	 M366,335.9l0.7,1.7 M365.5,333.1l-0.3,0.9l0.4,1 M366.5,330.6l-0.7,1.7 M367.4,328.1l-0.7,1.7 M368.4,325.6l-0.7,1.7 M369.4,323
	l-0.7,1.7 M370.3,320.5l-0.7,1.7 M371.3,318l-0.7,1.7 M372.3,315.4l-0.7,1.7 M373.2,312.9l-0.7,1.7 M374.2,310.4l-0.7,1.7
	 M375.2,307.8l-0.7,1.7 M376.1,305.3l-0.7,1.7 M377.1,302.8l-0.7,1.7 M378,300.2l-0.7,1.7 M378.6,298.5l-0.3,0.9 M378.2,313.7h-13
	 M379.4,313.7h15H379.4z M379.4,314.9v0.8 M379.4,298.6v15.1 M378.2,314.9v0.8 M378.2,298.4v15.2 M378.2,331.3h-13 M379.4,316.9
	v14.4h15h-15 M378.2,316.9v14.4 M378.2,314.9h-13 M379.4,314.9h15H379.4z M378.2,347h-13 M379.4,347h15H379.4z M378.2,348.2h-13
	 M379.4,348.2h15H379.4v16.2 M379.4,347v-14.4V347z M379.4,315.7v15.6 M378.2,348.2v16.2 M378.2,347v-14.4V347z M378.2,315.7v15.6
	h-13 M379.4,331.3h15H379.4z M378.2,332.5h-13 M379.4,332.5h15H379.4z M366.5,333.4h1v6h-1V333.4z M346.6,363.3l-0.4,1 M347.6,360.8
	l-0.7,1.6 M348.7,358.3L348,360 M349.8,355.8l-0.7,1.7 M350.9,353.3l-0.7,1.6 M351.9,350.8l-0.7,1.7 M353,348.3l-0.7,1.7
	 M354.1,345.9l-0.7,1.6 M355.1,343.3l-0.7,1.7 M356.2,340.9l-0.7,1.6 M357.2,338.4l-0.7,1.6 M358.3,335.9l-0.7,1.7 M358.8,333.1
	l0.4,0.9l-0.4,1 M357.8,330.6l0.7,1.7 M356.8,328.1l0.7,1.7 M355.9,325.6l0.7,1.7 M354.9,323l0.7,1.7 M354,320.5l0.6,1.7 M353,318
	l0.6,1.7 M352.1,315.4l0.6,1.7 M351.1,312.9l0.6,1.7 M350.1,310.4l0.6,1.7 M349.2,307.8l0.6,1.7 M348.2,305.3l0.6,1.7 M347.2,302.8
	l0.6,1.7 M346.3,300.2l0.6,1.7 M345.6,298.5l0.3,0.9 M346.2,313.7h13 M344.9,313.7h-12.6H344.9z M344.9,314.9v0.8 M344.9,298.6v15.1
	 M346.2,314.9v0.8 M346.2,298.4v15.2 M346.2,331.3h13 M344.9,316.9v14.4h-12.6h12.6 M346.2,316.9v14.4 M346.2,314.9h13 M344.9,314.9
	h-12.6H344.9z M346.2,347h13 M344.9,347h-12.6H344.9z M346.2,348.2h13 M344.9,348.2h-12.6H344.9v16.2 M344.9,347v-14.4V347z
	 M344.9,315.7v15.6 M346.2,348.2v16.2 M346.2,347v-14.4V347z M346.2,315.7v15.6h13 M344.9,331.3h-12.6H344.9z M346.2,332.5h13
	 M344.9,332.5h-12.6H344.9z"/>
<g>
	<defs>
		<rect id="SVGID_31_" x="-651.1" y="-0.8" width="1796.7" height="400.7"/>
	</defs>
	<clipPath id="SVGID_32_">
		<use xlink:href="#SVGID_31_"  style="overflow:visible;"/>
	</clipPath>
	<line class="st24" x1="227.9" y1="367.6" x2="-651.1" y2="367.6"/>
</g>
</svg>
